<?xml version="1.0" encoding="utf-8"?>
<!-- Generator: Adobe Illustrator 26.4.1, SVG Export Plug-In . SVG Version: 6.00 Build 0)  -->
<svg version="1.1" id="Layer_1" xmlns="http://www.w3.org/2000/svg" xmlns:xlink="http://www.w3.org/1999/xlink" x="0px" y="0px"
	 width="419.6px" height="109px" viewBox="0 0 419.6 109" style="enable-background:new 0 0 419.6 109;" xml:space="preserve">
<style type="text/css">
	.st0{fill:#211846;}
</style>
<path class="st0" d="M50,63.2l6.6-0.1l9.4,0.1c6.1,0,10.4-3,10.4-8.7c0-5.4-3.8-8.4-8.4-9c-0.2,0-0.3-0.1-0.3-0.3
	c0-0.1,0.1-0.2,0.3-0.2c4-0.7,7.6-3.9,7.6-8.7s-4.1-8.5-9.8-8.5L56.7,28L50,27.8c-0.4,0.2-0.5,0.5-0.5,0.9s0.1,0.7,0.5,0.9h3.5
	c0.2,0,0.3,0.1,0.3,0.3V61c0,0.2-0.2,0.3-0.3,0.3H50c-0.4,0.2-0.5,0.6-0.5,0.9C49.6,62.7,49.7,63,50,63.2L50,63.2z M63.8,44.5h-4.3
	V30c0-0.2,0.2-0.4,0.3-0.4h4.1c3.7,0,5.7,2.1,5.7,7.2S67.2,44.5,63.8,44.5z M59.5,61.5V46.1h4.3c3.6,0,6.5,2.4,6.5,7.7
	s-2.1,7.6-6.2,7.6h-4.6V61.5z"/>
<path class="st0" d="M81.2,63.2l6.7-0.1l17.2,0.2c0.2,0,0.4-0.1,0.4-0.4L106,51c-0.2-0.4-0.5-0.5-0.8-0.5c-0.4,0-0.7,0.1-0.9,0.5
	l-0.2,3.6c-0.3,4.5-1.9,6.6-6.6,6.8l-5.9,0.1c-0.5,0-0.9-0.4-0.9-0.9V30c0-0.2,0.2-0.3,0.3-0.3h4c0.4-0.2,0.5-0.5,0.5-0.9
	s-0.1-0.7-0.5-0.9L87.9,28l-6.7-0.2c-0.4,0.2-0.5,0.5-0.5,0.9s0.1,0.7,0.5,0.9h3.5c0.2,0,0.3,0.1,0.3,0.3V61c0,0.2-0.2,0.3-0.3,0.3
	h-3.5c-0.4,0.2-0.5,0.6-0.5,0.9C80.8,62.7,80.9,63,81.2,63.2L81.2,63.2z"/>
<path class="st0" d="M107.3,63.2l4.3-0.1l5.4,0.1c0.4-0.2,0.5-0.5,0.5-0.9c0-0.3-0.2-0.7-0.5-0.9h-3.4c-0.3,0-0.6-0.2-0.6-0.6
	c0-0.1,0.1-0.4,0.2-0.8l3.1-9.3h9.4l2.9,9.3c0.1,0.4,0.4,1,0.4,1.1s-0.1,0.3-0.3,0.3h-3.8c-0.4,0.2-0.5,0.6-0.5,0.9
	c0,0.4,0.1,0.7,0.5,0.9l7-0.1l6.1,0.1c0.3-0.2,0.4-0.5,0.4-0.9c0-0.3-0.1-0.7-0.4-0.9h-3c-0.2,0-0.4-0.1-0.4-0.4l-10.7-32.6
	c-0.2-0.6-0.6-0.9-1.2-0.9c-0.7,0-1,0.3-1.2,0.9l-10.7,32.3c-0.1,0.5-0.5,0.8-1,0.8h-2.5c-0.4,0.2-0.5,0.6-0.5,0.9
	C106.9,62.7,107,63,107.3,63.2L107.3,63.2z M125.1,48.9h-8.3l4.3-12.9L125.1,48.9L125.1,48.9z"/>
<path class="st0" d="M140.2,45.6c0,11.5,6.8,18.3,14.5,18.3c2.8,0,4.9-0.8,6.8-1.9c0.7-0.4,1.1-0.8,1.8-0.8s0.8,0.4,0.8,1V63
	c0,0.3,0.2,0.6,0.7,0.6s0.6-0.3,0.7-0.5l0.4-12.7c-0.2-0.3-0.5-0.5-0.9-0.5s-0.7,0.1-0.9,0.5l-0.1,2.4c-0.4,5.4-3.8,9.4-8.5,9.4
	c-6,0-9-4.5-9-16.6s2.9-16.8,8.7-16.8c4.5,0,8.3,3.8,8.7,8.8l0.2,2.3c0.1,0.3,0.5,0.4,0.8,0.4c0.4,0,0.7-0.1,0.9-0.4L165.3,28
	c-0.1-0.3-0.3-0.5-0.7-0.5c-0.5,0-0.7,0.2-0.7,0.6v0.8c0,0.6-0.1,0.9-0.7,0.9c-0.5,0-1.1-0.3-1.6-0.6c-1.7-1.1-3.8-2-6.8-2
	C147.1,27.2,140.2,34.3,140.2,45.6L140.2,45.6z"/>
<path class="st0" d="M170.9,63.2l6.7-0.1l6.5,0.1c0.3-0.2,0.4-0.5,0.4-0.9c0-0.3-0.1-0.7-0.4-0.9h-3.4c-0.2,0-0.3-0.1-0.3-0.3V30
	c0-0.2,0.1-0.3,0.3-0.3h3.5c0.4-0.2,0.5-0.5,0.5-0.9s-0.1-0.7-0.5-0.9l-6.6,0.2l-6.7-0.2c-0.4,0.2-0.5,0.5-0.5,0.9s0.1,0.7,0.5,0.9
	h3.5c0.2,0,0.3,0.1,0.3,0.3v31.1c0,0.2-0.1,0.3-0.3,0.3h-3.5c-0.4,0.2-0.5,0.6-0.5,0.9C170.4,62.7,170.5,63,170.9,63.2z M189.2,63.2
	L195,63l6.5,0.2c0.3-0.2,0.4-0.5,0.4-0.9s-0.1-0.7-0.4-0.9h-2.6c-0.3,0-0.6-0.2-0.7-0.4L185,42l10.8-11.8c0.3-0.4,0.8-0.7,1.4-0.7
	h2.4c0.4-0.2,0.4-0.5,0.4-0.9s-0.1-0.7-0.4-0.9L195,28l-5.9-0.2c-0.4,0.2-0.5,0.5-0.5,0.9s0.1,0.7,0.5,0.9h3.4
	c0.2,0,0.5,0.2,0.5,0.5c0,0.2-0.3,0.5-0.6,1l-11.9,13.5v0.6l10.4,14.6c0.4,0.5,0.8,1.1,0.8,1.2s-0.1,0.3-0.4,0.3h-2
	c-0.4,0.2-0.5,0.6-0.5,0.9S188.7,63,189.2,63.2L189.2,63.2z"/>
<path class="st0" d="M227,27.8l-7.1,0.2l-6.1-0.2c-0.3,0.2-0.5,0.5-0.5,0.9s0.1,0.7,0.5,0.9h2.8c0.2,0,0.3,0.1,0.4,0.4l10.5,32.7
	c0.2,0.6,0.5,0.9,1.1,0.9c0.7,0,1-0.3,1.2-0.9l10.4-32.4c0.2-0.5,0.5-0.8,1-0.8h2.6c0.3-0.2,0.5-0.5,0.5-0.9s-0.1-0.7-0.5-0.9
	l-4.3,0.2l-5.7-0.2c-0.3,0.2-0.4,0.5-0.4,0.9s0.1,0.7,0.4,0.9h3.7c0.4,0,0.6,0.2,0.6,0.6c0,0.2-0.1,0.5-0.2,0.9l-7.5,23.7L223.1,31
	c-0.1-0.5-0.4-1-0.4-1.2c0-0.1,0.1-0.3,0.4-0.3h3.9c0.3-0.2,0.5-0.5,0.5-0.9S227.4,28,227,27.8L227,27.8z"/>
<path class="st0" d="M246.2,63.2l6.7-0.1l18.2,0.2c0.2,0,0.4-0.1,0.4-0.4l0.3-11c-0.2-0.3-0.5-0.5-0.8-0.5c-0.4,0-0.7,0.2-0.9,0.5
	l-0.1,2.9c-0.2,4.6-1.6,6.5-6.3,6.6l-7,0.1c-0.5,0-0.9-0.4-0.9-0.9V46.1l3.4,0.1c2.6,0.1,3.6,1.1,3.6,3.4v1.5
	c0.2,0.3,0.5,0.5,0.9,0.5s0.7-0.1,0.9-0.5l-0.2-5.9l0.2-5.7c-0.2-0.3-0.5-0.5-0.9-0.5s-0.7,0.1-0.9,0.5v1.1c0,2.4-1,3.5-3.6,3.6
	l-3.4,0.1V30c0-0.2,0.1-0.3,0.3-0.3l6.3,0.1c4.5,0.1,5.8,1.8,6.2,6.3l0.2,2.3c0.2,0.3,0.5,0.5,0.9,0.5s0.7-0.2,0.9-0.5L270,28.2
	c0-0.2-0.1-0.4-0.3-0.4L252.8,28l-6.7-0.2c-0.4,0.2-0.5,0.5-0.5,0.9s0.1,0.7,0.5,0.9h3.5c0.2,0,0.3,0.1,0.3,0.3V61
	c0,0.2-0.1,0.3-0.3,0.3h-3.5c-0.4,0.2-0.5,0.6-0.5,0.9C245.7,62.7,245.8,63,246.2,63.2L246.2,63.2z"/>
<path class="st0" d="M276.5,63.2l6.7-0.1l17.2,0.2c0.2,0,0.4-0.1,0.4-0.4l0.5-11.9c-0.2-0.4-0.5-0.5-0.8-0.5c-0.4,0-0.7,0.1-0.9,0.5
	l-0.2,3.6c-0.3,4.5-1.9,6.6-6.6,6.8l-5.9,0.1c-0.5,0-0.9-0.4-0.9-0.9V30c0-0.2,0.1-0.3,0.3-0.3h4c0.4-0.2,0.5-0.5,0.5-0.9
	s-0.1-0.7-0.5-0.9l-7.1,0.2l-6.7-0.2c-0.4,0.2-0.5,0.5-0.5,0.9s0.1,0.7,0.5,0.9h3.5c0.2,0,0.3,0.1,0.3,0.3v31.1
	c0,0.2-0.1,0.3-0.3,0.3h-3.5c-0.4,0.2-0.5,0.6-0.5,0.9C276,62.7,276.1,63,276.5,63.2L276.5,63.2z"/>
<path class="st0" d="M316.2,27.8L309,28l-6.1-0.2c-0.3,0.2-0.5,0.5-0.5,0.9s0.1,0.7,0.5,0.9h2.8c0.2,0,0.3,0.1,0.4,0.4l10.5,32.7
	c0.2,0.6,0.5,0.9,1.1,0.9c0.7,0,1-0.3,1.2-0.9l10.4-32.4c0.2-0.5,0.5-0.8,1-0.8h2.6c0.3-0.2,0.5-0.5,0.5-0.9s-0.1-0.7-0.5-0.9
	l-4.3,0.2l-5.7-0.2c-0.3,0.2-0.4,0.5-0.4,0.9s0.1,0.7,0.4,0.9h3.7c0.4,0,0.6,0.2,0.6,0.6c0,0.2-0.1,0.5-0.2,0.9l-7.5,23.7L312.2,31
	c-0.1-0.5-0.4-1-0.4-1.2c0-0.1,0.1-0.3,0.4-0.3h3.9c0.3-0.2,0.5-0.5,0.5-0.9S316.5,28,316.2,27.8L316.2,27.8z"/>
<path class="st0" d="M335.3,63.2l6.7-0.1l18.2,0.2c0.2,0,0.4-0.1,0.4-0.4l0.3-11c-0.2-0.3-0.5-0.5-0.8-0.5c-0.4,0-0.7,0.2-0.9,0.5
	l-0.1,2.9c-0.2,4.6-1.6,6.5-6.3,6.6l-7,0.1c-0.5,0-0.9-0.4-0.9-0.9V46.1l3.4,0.1c2.6,0.1,3.6,1.1,3.6,3.4v1.5
	c0.2,0.3,0.5,0.5,0.9,0.5s0.7-0.1,0.9-0.5l-0.2-5.9l0.2-5.7c-0.2-0.3-0.5-0.5-0.9-0.5s-0.7,0.1-0.9,0.5v1.1c0,2.4-1,3.5-3.6,3.6
	l-3.4,0.1V30c0-0.2,0.1-0.3,0.3-0.3l6.3,0.1c4.5,0.1,5.8,1.8,6.2,6.3l0.2,2.3c0.2,0.3,0.5,0.5,0.9,0.5s0.7-0.2,0.9-0.5l-0.4-10.2
	c0-0.2-0.1-0.4-0.3-0.4L342,28l-6.7-0.2c-0.4,0.2-0.5,0.5-0.5,0.9s0.1,0.7,0.5,0.9h3.5c0.2,0,0.3,0.1,0.3,0.3V61
	c0,0.2-0.1,0.3-0.3,0.3h-3.5c-0.4,0.2-0.5,0.6-0.5,0.9C334.9,62.7,335,63,335.3,63.2L335.3,63.2z"/>
<path class="st0" d="M371.3,63.2l7.2-0.1l7.1,0.1c0.3-0.2,0.5-0.5,0.5-0.9s-0.1-0.7-0.5-0.9h-4c-0.2,0-0.3-0.1-0.3-0.3V29.9
	c0-0.2,0.1-0.3,0.3-0.3l3.2,0.1c3.6,0.1,4.7,2.4,5,5.8l0.2,3.2c0.2,0.3,0.5,0.5,0.8,0.5c0.4,0,0.7-0.1,0.9-0.5l-0.2-10.6
	c0-0.2-0.1-0.4-0.3-0.4L378.4,28l-12.7-0.2c-0.2,0-0.3,0.1-0.3,0.4l-0.2,10.6c0.1,0.3,0.5,0.5,0.9,0.5c0.3,0,0.6-0.1,0.9-0.5
	l0.2-3.2c0.3-3.4,1.3-5.6,4.9-5.8l3.2-0.1c0.2,0,0.3,0.1,0.3,0.3v31.2c0,0.2-0.1,0.3-0.3,0.3h-4c-0.4,0.2-0.5,0.5-0.5,0.9
	C370.8,62.7,370.9,63.1,371.3,63.2L371.3,63.2z"/>
<path class="st0" d="M164.8,94.9c-0.7,0-1.4-0.2-2-0.5s-1-0.8-1.4-1.3s-0.6-1.2-0.8-1.8s-0.2-1.4-0.2-2.1s0.1-1.5,0.3-2.2
	s0.4-1.3,0.8-1.9c0.3-0.6,0.8-1,1.4-1.3c0.6-0.3,1.2-0.5,1.9-0.5c0.8,0,1.5,0.2,2,0.5s0.9,0.8,1.2,1.3l-0.5,0.3
	c-0.3-0.5-0.6-0.8-1-1.1c-0.4-0.3-0.9-0.4-1.7-0.4c-1.2,0-2.1,0.5-2.8,1.5c-0.6,1-1,2.2-1,3.7c0,0.9,0.1,1.8,0.4,2.6
	c0.2,0.8,0.6,1.4,1.2,1.9c0.6,0.5,1.3,0.8,2.1,0.8c0.7,0,1.3-0.2,1.8-0.5s0.8-0.7,1.1-1.2l0.5,0.2c-0.3,0.6-0.7,1.1-1.3,1.5
	C166.3,94.7,165.6,94.9,164.8,94.9z"/>
<path class="st0" d="M177.1,94.4c-0.6,0.3-1.3,0.5-2,0.5s-1.4-0.2-2-0.5s-1-0.8-1.4-1.4c-0.3-0.6-0.6-1.2-0.8-1.9
	c-0.2-0.7-0.2-1.4-0.2-2.1s0.1-1.4,0.2-2.1c0.2-0.7,0.4-1.3,0.8-1.9s0.8-1,1.4-1.4c0.6-0.3,1.3-0.5,2-0.5s1.4,0.2,2,0.5
	s1,0.8,1.4,1.4c0.3,0.6,0.6,1.2,0.7,1.9c0.2,0.7,0.2,1.3,0.2,2.1s-0.1,1.4-0.2,2.1c-0.2,0.7-0.4,1.3-0.7,1.9
	C178.1,93.7,177.7,94.1,177.1,94.4z M175,94.4c0.7,0,1.2-0.1,1.8-0.5c0.5-0.3,0.9-0.7,1.2-1.2s0.5-1.1,0.6-1.7s0.2-1.2,0.2-1.9
	c0-0.7-0.1-1.3-0.2-1.9c-0.1-0.6-0.4-1.2-0.6-1.7s-0.7-0.9-1.2-1.2c-0.5-0.3-1.1-0.4-1.8-0.4s-1.3,0.2-1.8,0.5s-0.9,0.7-1.2,1.2
	s-0.5,1.1-0.6,1.7s-0.2,1.2-0.2,1.8c0,0.7,0.1,1.4,0.2,2c0.1,0.6,0.3,1.1,0.6,1.6s0.7,0.9,1.2,1.2S174.4,94.4,175,94.4z"/>
<path class="st0" d="M182.5,94.7V83.5h3.5c1.2,0,2.1,0.3,2.7,1c0.6,0.6,0.8,1.4,0.8,2.4c0,0.4-0.1,0.8-0.2,1.1
	c-0.1,0.4-0.3,0.7-0.6,1.1c-0.3,0.3-0.6,0.6-1.1,0.8c-0.5,0.2-1,0.3-1.6,0.3h-2.9v4.6h-0.6V94.7z M186,89.5c1,0,1.8-0.3,2.2-0.8
	c0.5-0.5,0.7-1.2,0.7-1.9c0-0.8-0.2-1.4-0.7-1.9c-0.4-0.5-1.2-0.8-2.2-0.8h-2.9v5.4L186,89.5L186,89.5z"/>
<path class="st0" d="M192.1,94.7V83.5h5.9V84h-5.3v4.6h3.6v0.5h-3.6v5h5.6v0.5L192.1,94.7L192.1,94.7z"/>
<path class="st0" d="M208.8,94.7h-0.6l-5.8-9.3l-0.5-0.8v10.1h-0.6V83.5h0.6l5.8,9.3l0.5,0.8V83.5h0.6V94.7L208.8,94.7z"/>
<path class="st0" d="M218.9,94.7v-5.5h-6v5.5h-0.6V83.5h0.6v5.1h6v-5.1h0.6v11.2H218.9z"/>
<path class="st0" d="M229.7,94.7l-1.1-3.1H224l-1.1,3.1h-0.6l3.8-11.2h0.4l3.9,11.2H229.7L229.7,94.7z M228.5,91.1l-1.6-4.8
	c0,0-0.1-0.2-0.1-0.4c-0.1-0.3-0.2-0.5-0.2-0.8c-0.1-0.2-0.1-0.4-0.2-0.6c0,0.1-0.1,0.3-0.2,0.6c-0.1,0.2-0.2,0.5-0.3,0.8
	c-0.1,0.2-0.1,0.4-0.1,0.4l-1.6,4.8H228.5L228.5,91.1z"/>
<path class="st0" d="M237.1,94.9c-0.8,0-1.4-0.2-2-0.5s-1-0.8-1.4-1.3s-0.6-1.2-0.8-1.8s-0.2-1.4-0.2-2.1s0.1-1.5,0.3-2.2
	s0.4-1.3,0.8-1.8c0.3-0.6,0.8-1,1.4-1.3c0.6-0.3,1.2-0.5,2-0.5c1.3,0,2.3,0.5,3.1,1.5l-0.5,0.3c-0.6-0.9-1.5-1.3-2.5-1.3
	c-0.7,0-1.2,0.2-1.8,0.5c-0.5,0.3-0.9,0.7-1.2,1.2s-0.5,1.1-0.6,1.7s-0.2,1.2-0.2,1.8c0,1,0.1,1.8,0.4,2.6c0.2,0.8,0.7,1.4,1.2,1.9
	c0.6,0.5,1.3,0.8,2.1,0.8c0.9,0,1.6-0.3,2.1-1s0.8-1.6,0.8-2.9v-0.2h-2.4v-0.5h3v0.5c0,1.6-0.3,2.8-1,3.5
	C239.1,94.6,238.2,94.9,237.1,94.9L237.1,94.9z"/>
<path class="st0" d="M244,94.7V83.5h5.9V84h-5.3v4.6h3.6v0.5h-3.6v5h5.6v0.5L244,94.7L244,94.7z"/>
<path class="st0" d="M260.7,94.7h-0.6l-5.7-9.3l-0.5-0.8v10.1h-0.6V83.5h0.6l5.7,9.3l0.5,0.8V83.5h0.6V94.7L260.7,94.7z"/>
</svg>
