<?xml version="1.0" encoding="utf-8"?>
<!-- Generator: Adobe Illustrator 26.4.1, SVG Export Plug-In . SVG Version: 6.00 Build 0)  -->
<svg version="1.1" id="Layer_1" xmlns="http://www.w3.org/2000/svg" xmlns:xlink="http://www.w3.org/1999/xlink" x="0px" y="0px"
	 width="500px" height="320px" viewBox="0 0 500 320" style="enable-background:new 0 0 500 320;" xml:space="preserve">
<style type="text/css">
	.st0{clip-path:url(#SVGID_00000076574625017699009610000014702221612635402164_);}
	.st1{fill:#FFFFFF;}
</style>
<g>
	<g>
		<defs>
			<rect id="SVGID_1_" x="57.7" y="21.1" width="356.6" height="161.4"/>
		</defs>
		<clipPath id="SVGID_00000121972688187514717920000001790696607904934319_">
			<use xlink:href="#SVGID_1_"  style="overflow:visible;"/>
		</clipPath>
		<g style="clip-path:url(#SVGID_00000121972688187514717920000001790696607904934319_);">
			<path class="st1" d="M344.9,91c0.2,0.5,0.7,2,1.1,3.4c1.9,6.1,2.5,11.1,2,15.5c-0.7,5.7-2.1,10.4-4.1,13.3l-0.9,1.3l0.2-5.2
				c0.1-2.9,0.4-9.7,0.8-15.1c0.3-5.4,0.6-10.8,0.6-11.9C344.5,90.2,344.5,90.1,344.9,91L344.9,91z M342.8,91
				c-0.1,2.7-0.4,9.5-0.6,15c-0.3,5.5-0.6,12.4-0.8,15.2l-0.2,5.2l-1.1,0.9c-2.9,2.3-10,5.2-15.1,6.2c-1.3,0.3-2.7,0.6-2.9,0.8
				c-0.8,0.6-1.2,10.1-1,24c0.2,13.3,0.4,15.7,1.8,17.2c1.5,1.6,4.5,3.1,8.1,3.9c1.2,0.3-0.1,0.4-9,0.4l-10.5,0l1.7-0.9
				c2.1-1.1,4.7-3.3,5.2-4.5c0.3-0.7,0.4-2.4,0.2-6.8c-0.1-3.1-0.3-11.7-0.3-19.2c0-8.2,0-13.3-0.3-14c-0.1-0.4-0.8-0.6-1.7-0.7
				c-2.1-0.3-7.7-1.8-10.4-2.8c-3.6-1.3-8.6-4.7-11.6-7.8c-2.5-2.6-4.5-6.2-5.3-9.6c-0.6-2.3-0.7-8.3-0.1-11.1
				c1.4-7.2,4.8-15.4,9.2-22.3c2.3-3.6,6.2-8.8,7.8-10.2c0.3-0.3,0.8-1,1.2-1c1.8-0.2,4.7-0.3,6.3-0.3c12.6-0.2,14.1-0.2,16.5,0
				c2.1,0.2,2.5,0.3,3,0.9c1.7,2.1,6.4,9.6,8.1,12.8l1.9,3.6L342.8,91L342.8,91z M340.4,179.6c-0.6,0-3.2-0.5-7.6-1.5
				c-3.3-0.7-6.8-2.1-8.1-3.2c-1.7-1.4-1.8-2.4-1.9-18.3c-0.1-7.6,0-15.5,0.1-17.4c0.1-0.9,0.2-3.3,0.5-3.5c0.3-0.2,1.7-0.5,2.4-0.7
				c4-0.8,7.1-1.9,11.3-4.1c2.1-1.1,3.8-2,3.8-2c0,0,0,11.4,0.1,25.3C340.9,179,340.9,179.6,340.4,179.6z M297,180.2l-2.8-0.1
				l0-18.8c0-16.6-0.1-22.2-0.9-33.7l-0.2-2.7l1,0.8c0.5,0.4,1.9,1.5,3,2.3c3.1,2.3,6.4,4.2,9,5c3.1,1,8.4,2.2,9.6,2.4
				c0.5,0.1,0.7,0.2,0.8,0.7c0,0.4,0.1,7.6,0.1,16.1c0,8.5,0.2,16.6,0.3,18.4c0,0.8,0.1,2.2-0.2,2.9c-0.2,0.5-0.8,1.3-1.2,1.7
				c-1.9,1.8-5,3.4-7.9,4C304.3,179.9,300,180.3,297,180.2L297,180.2z M292.6,163.7l-0.1,16.5h-22l1-1.2c1.5-1.6,2.1-3,2.7-5.8
				c0.5-2.2,0.5-3.8,0.5-13.5c0-6.1-0.2-13.8-0.3-17.1c0-1.5-0.1-5.1-0.6-5.7c-0.6-0.7-9.6-0.3-12.7-0.2c-3.3,0.1-13.1,0.2-13.1,0.2
				l0.2-3.9c0.4-9.2,0.9-12.9,1.9-14.7c0.5-1,2.7-2.2,6.1-3.6c1.8-0.7,3.8-1.7,4.5-2.1c1.8-1.1,3.8-3.2,4.3-4.6
				c1.4-3.9,1.3-19-0.1-21.3c-0.3-0.5-1-1.1-1.6-1.5c-1-0.6-1.1-0.8-1.2-1.8c-0.1-1.1,0-1.2,0.9-1.6c1.3-0.6,10.2-0.6,11.3-0.1
				c0.6,0.3,0.8,0.6,0.8,1.5c0.1,1,0,1.2-0.9,1.7c-0.2,0.1-1,0.4-1,1.2c-0.1,3.3,0,7.3,0.1,9.9c0.3,11.4,0.1,11.9,1.7,14.3
				c1.3,1.9,3.3,3.3,6.7,4.8c4,1.7,5.3,2.5,6.9,4.1c2.3,2.3,2.6,2.9,2.9,5.6C292.3,131.3,292.7,147.5,292.6,163.7L292.6,163.7z
				 M268.3,179.4c-1.2,0.6-1.9,0.6-10.5,0.7c-8.7,0.1-9.2,0.1-9.4-0.4c-0.4-0.9-0.6-20-0.3-31l0.2-10.4l9.6-0.1
				c5.3-0.1,10.8-0.1,12.2-0.1c2.1-0.1,2.5,0,2.7,0.4c0.1,0.3,0.3,7.3,0.4,15.5c0.1,13.2,0.1,15.3-0.3,17.8
				C272,176.2,270.7,178.3,268.3,179.4L268.3,179.4z M241.1,180.2c-5.6,0-5.6,0-6.8-0.8c-2.8-1.8-3.9-3.5-4.6-7.1
				c-0.9-4.6-1.1-8-0.9-21c0,0,0.1-11.2,0.2-12.4c0-0.5,6.7-0.4,6.7-0.4c3.7-0.1,10.7-0.1,10.7-0.1s-0.3,37.2,0,39.7l0.2,2.1
				L241.1,180.2L241.1,180.2L241.1,180.2z M213.7,180.5c-9.9,0-12.4-0.1-12.2-0.4c0.1-0.2,1.2-1.5,2.3-2.9
				c4.8-6.1,8.2-16.7,9.9-31.6c1-8.5,0.9-16.3-0.3-23c-1.1-6.4-5.5-18.6-10.4-28.6l-1.7-3.6l0.3-3.6c0.8-8.5,3.5-19.6,6.6-26.8
				c2-4.7,1.4-4.4,6.8-4.4c4.5,0,4.6,0,5.1,0.7c1.7,2.7,5.3,16.4,6.3,24c0.4,3.4,0.4,12.6,0,17.3c-0.8,8.7-2,14-5.4,24.6
				c-3,9.2-3.8,12.7-4.2,19.2c-0.4,6.7-0.2,19,0.5,22.2c1.1,5.7,4,11.7,7.5,15.4l1.4,1.5L213.7,180.5L213.7,180.5L213.7,180.5z
				 M203.4,98.9c5,11.6,7.9,20.3,8.8,26.8l0.2,1.2l-0.8-1.3c-4.8-8.3-8.8-20.1-10.1-29.4C201.2,94.2,201.6,94.8,203.4,98.9
				L203.4,98.9z M198.9,180.5h-23.4l-2-0.8c-1.1-0.5-3-1.1-4.3-1.4c-2.6-0.6-2.4-0.3-5-6.4c-4.6-10.6-6.2-17.9-7.1-32.2l-0.3-4.5
				l3.6-3.6c2-2,4.3-4.7,5.2-6c6.3-8.9,9.2-20,7.2-27.7c-0.7-2.7-2.4-6.4-4.3-9.2l-1.3-2l2.8-6.3c1.5-3.5,3.4-8,4.1-10
				c1.7-4.9,3.4-12.8,4.4-20.2c0.8-5.6,0.8-6.9,0.8-15.2c0-10.1,0.1-9.7-2-9.7c-0.8,0-1.2-0.2-1.4-0.6c-0.4-0.8-0.4-1.1,0.1-1.6
				c0.6-0.5,5.7-0.6,11-0.2c3.7,0.3,4.2,0.5,4.2,1.2s-0.4,1-2.2,1.4c-0.8,0.2-1.6,0.5-1.7,0.6c-0.1,0.1-0.4,3.7-0.7,7.9
				c-0.6,12,0.1,22,2.4,32.2c1.3,5.8,3.3,11,7.5,19.3l2.7,5.4l0.2,3.2c0.4,5.8,2,12.3,5.2,20.8c1.5,3.9,2,5.2,4.8,10.6
				c1.9,3.8,2.4,5.2,2.8,8.6c0.8,7.1-1.6,22.9-4.9,32.3c-1.8,5.2-3.3,7.7-7.2,12.3L198.9,180.5L198.9,180.5z M162.5,172.2
				c1,2.4,1.8,4.4,1.7,4.5c-0.3,0.3-4.8-2.2-6.8-3.8c-2.2-1.7-2.7-2.3-3.6-5.7c-1.7-5.7-2.3-13.4-1.9-20.9c0.2-2.6,0.4-5.1,0.6-5.7
				s0.8-1.7,1.5-2.6l1.2-1.6l0.2,3.2c0.1,1.7,0.4,5.2,0.7,7.7C157,156.1,158.9,163.8,162.5,172.2L162.5,172.2z M166,180.6
				c-2.6,0.1-11.5,0.2-19.8,0.2c-13.7,0-15-0.1-13.7-0.4c5.8-1.7,6.8-2.1,8.7-3.3c2.9-1.9,4.4-3.6,4.8-5.5c1.1-5,1.2-6.9,1.2-24.1
				c0-14.3-0.1-18.2-0.6-24.5c-0.3-4.4-0.6-10.1-0.6-14c0-6.1-0.4-16.4-0.7-20.5l-0.1-1.7l8.6,0.2c4.8,0.1,9.3,0.3,10,0.4l1.3,0.2
				l-1.3,3.4c-5.6,14.5-8.8,29.5-8.8,40.5v2.8l-1.6,1.8c-2.4,2.6-2.7,3.5-3.1,8.3c-0.7,8.3,0.1,18.4,2,24c1.2,3.9,1.7,4.4,5.7,7
				c3.1,2,5.8,3.2,9.4,4.2l3.2,0.8L166,180.6L166,180.6z M144.9,136.6c-0.4-0.6-1.2-1.6-1.8-2.4c-11.1-12.4-12.6-14.6-14.4-20.1
				c-1.3-3.9-1.6-9.6-0.8-13.9c0.6-3.1,2.2-7.9,3.7-10.9c0.3-0.6,0.9-1.7,1.4-2.1c0.6-0.4,1.9-0.5,2.6-0.6c4.8-0.3,7.5-0.3,7.7,0
				c0.4,0.7,0.8,7.1,1,19.1c0.1,7,0.5,15,0.7,17.8c0.2,2.7,0.4,7,0.4,9.5v4.5L144.9,136.6L144.9,136.6z M166.5,88.8l0.5,0.7
				c0.3,0.4,1.2,1.9,2,3.4c0.8,1.5,1.7,3.8,2.1,5.1c1.7,5.9,0.2,13.9-3.9,21.8c-2.1,4.1-6.5,9.6-9.3,11.9l-1.2,1l0.2-4.5
				c0.2-4.7,0.4-6.3,1.5-12.2c1.6-8.4,4-16.5,7.4-25.4L166.5,88.8L166.5,88.8z M386.4,177.9c-2.2-2.1-2.1-3.4-2.4-10
				c-0.4-8.7-0.3-47.9,0.1-66.2c0.2-8.9,0.4-15.2,0-17.4c-0.3-1.3-1.5-3.4-3.5-4.2c-0.6-0.2-2-0.8-3.2-1.2c-3.5-1.1-6.3-2.5-7-3.6
				c-1-1.7-1.2-5.1-1.2-22c0-14-0.3-15.9,0.1-16c1.1-0.5,1.7-1.2,1.7-2.6c0-2.7-1.1-3.2-7.6-3.2c-4.4,0-6.9,0.3-7.6,1.3
				c-0.9,1.4-0.5,3.5,0,4.1c0.2,0.2,0.7,0.5,1.2,0.6c0.8,0.2,0.8,0.2,0.7,1.7c-0.3,3.5-0.5,8.6-0.7,20.3
				c-0.3,13.9-0.4,14.4-2.3,16.6c-1.2,1.3-2.3,2-6.1,3.3c-1.7,0.6-3,1.1-4.1,2.4c-0.4,0.4-1,1.7-1,1.7l-1.4-2.6
				c-1.8-3.4-4.7-8-6.9-10.9c-1.7-2.2-2-2.5-3-2.7c-0.6-0.1-6.7-0.2-13.4-0.2c-3,0-8.9,0-12,0.3c-0.6,0.1-1.5,1-1.9,1.4
				c-5.6,5.7-12.3,16.8-15.2,25.1c-4.5,12.6-2.4,19.8-2.1,20.9c0.3,1,0.2,1.4-0.2,1.1c-0.3-0.2-2.1-1-4-1.9
				c-5.2-2.2-6.3-3.1-7.5-5.7c-0.6-1.4-0.7-1.7-0.8-11.7c-0.1-7.3-0.2-9.5,0.1-10.1c0.1-0.1,0.8-0.5,1.1-0.8c0.6-0.5,0.7-1,0.7-2
				c0-3.3-1-3.9-8.3-3.8c-8.8,0.1-8,1.6-8.1,3.9c0,1,0.8,2.3,2.6,3.6c0.6,0.5,0.8,0.9,1,3.2c0.4,3.5,0.1,14-0.4,16.1
				c-0.8,2.8-2.9,4.5-8.3,6.6c-4.8,1.9-6.7,3.4-7.4,5.8c-0.6,2.2-1.1,6.3-1.2,12.5l-0.2,5.5h-8.9c-10.1,0-10.3,0-10.4,1.9
				c0,0.6-0.1,7.2-0.1,14.6c-0.1,11.3,0,13.9,0.4,16.6c0.8,5,1.4,6.9,3.3,8.9l1.6,1.7h-1.7c-2.1,0-3.2-0.7-5.7-3.6
				c-2.2-2.6-4.9-8-5.9-11.9c-1.1-4.2-1.5-11.9-1.1-20c0.5-9.9,1.1-12.5,4.7-23.3c3.8-11.3,5.1-18.7,5.4-30.9
				c0.1-5,0.1-7.5-0.3-10.6c-0.9-7.4-5.2-24.7-7.3-26.1c-0.6-0.3-4.2-0.3-6.4-0.3c-3.7,0-4.2,0-4.9,0.6c-3,2.3-8.1,19.5-9.3,31.4
				l-0.2,1.9l-1.5-2.7c-2.8-5.2-6.1-13.4-7.3-18.5c-1.2-4.9-2.4-13.7-2.7-20.3c-0.2-5,0.3-18.1,0.8-18.6c0.2-0.2,0.8-0.4,1.4-0.5
				c1.9-0.5,2.7-1.2,2.7-2.7c-0.1-1.3-0.4-1.6-1-2c-1-0.7-3.2-0.9-9.6-1.1c-4.7-0.1-6-0.1-6.8,0.2c-1.1,0.5-1.5,1.2-1.5,2.7
				c0,1.5,0.9,2.6,2.3,2.8l1.1,0.2l0.2,5.7c0.1,3.5,0.1,7-0.1,9.1c-1.5,15.4-3.8,25.8-8,34.9c-0.8,1.9-2,4.6-2.7,6.1l-1.1,2.7
				l-2.9-0.2c-1.6-0.1-6.4-0.3-10.7-0.4l-7.8-0.2l-0.8-1.1c-1.5-2.3-4-3.3-10.4-4.5c-1.4-0.3-5.1-2.7-5.9-4
				c-1.2-1.8-1.5-5.3-1.7-22.9c-0.2-14.7-0.1-15.7,0.1-16.6c0.2-1,1.6-1.8,2.1-2.2c0.9-0.7,1.5-2.1,0.2-4.5
				c-0.8-1.6-2.1-1.7-9.9-1.7c-9.4,0-12.1-0.4-13,2.7c-0.8,2.6,0.4,4.4,2.7,4.7c0.7,0.1,1.3,0.3,1.5,0.4c0.7,0.7,1.6,20.7,1.3,29.7
				c-0.2,9.1-1,10.7-6.3,12.6c-2.8,1-7.2,3.5-9,5.1c-1.1,1-2,2-2.5,3.4c-1.5,3.6-1,9.1-1.1,12.1c-0.8,14.3-0.1,46.8,0.5,55.9
				c0.2,4,0.5,8.5,0.6,10.8c0.2,4.7,0.3,5.1-0.8,7.2c-1.5,2.8-3.7,5-6.7,6.3c-1.9,0.8-2.9,1-7.8,1.5c-3.1,0.3-8.5,0.7-12,0.9
				c-3.5,0.2-6.4,0.4-6.5,0.4c-1.4,0.1-1.7,0.6-1.5,1c0.2,0.6,2.5,0.5,3.1,0.5c1.1-0.1,4.9-0.3,8.4-0.5c3.5-0.2,7.8-0.4,9.6-0.5
				c7.4-0.6,12.4-3.4,14.9-8.7c0.9-1.9,1.3-2.7,1-6.5c-0.1-1.8-0.2-5.9-0.5-10.2c-0.8-13.7-1.1-30.5-0.8-49.2
				c0.3-18.4,0.3-18.5,1.9-21.2c0.4-0.7,1.2-1.6,1.7-2c1.5-1.2,4.6-2.9,7.5-4.1c4.3-1.7,5.6-2.7,6.7-4.9c0.8-1.7,0.9-2.3,1.2-6.2
				c0.4-5.6-0.2-26.5-0.9-31.9c-0.3-2.2-1.2-3.2-2.6-3.2c-0.9,0-2.9-0.9-1.7-3.1c0.8-1.4,3.2-1.2,11.6-1.2c7.7,0,8.2,0.1,8.5,2
				c0.2,0.8,0.1,1-0.6,1.5c-1.4,1.1-2.1,2-2.5,3.2c-0.2,0.9-0.2,5.7,0,18.1c0.3,19,0.5,20.9,2.1,22.9c1.3,1.7,4.9,3.9,6.8,4.4
				c7,1.5,8.5,2.1,9.3,3.5c0.3,0.6,0.2,0.6-3.7,0.6c-2.2,0-5.3,0-6.5,0.8c-0.6,0.4-1.2,1.4-1.6,2c-1.7,3.3-2.9,6.5-3.8,10.2
				c-0.7,2.7-1,3.6-0.9,7.4c0.1,5.3,0.8,8.8,3.4,14.1c1.1,2.3,3.4,5.2,8.1,10.5c6.6,7.4,6.9,7.9,7.9,11.7c0.5,1.7,0.5,3.1,0.4,12.4
				c-0.1,14.4-0.6,17.7-3.1,19.9c-2.5,2.2-6,3.6-12.9,5.3c-1.5,0.4-3,0.9-3.3,1.1c-0.6,0.5-0.7,1.3-0.1,1.7
				c0.2,0.2,29.4,0.2,87.8-0.1c48.1-0.2,96.7-0.4,108-0.4c5.2,0,15.5,0.1,20.5,0c0,0,0.2-20.4,0.1-27.2c-0.1-6.8,0.1-27.2,0.1-27.2
				l1.3-1.5c1.7-1.9,2.9-4.2,4-7.5c3-9,2.1-19.7-2.4-30.4c-1.1-2.6-1-3.2,0.2-5.2c0.7-1.1,2.2-1.5,4.6-2.2c4.8-1.5,7.1-3.8,7.9-7.9
				c0.2-1,0.4-7.3,0.6-14.6c0.1-7,0.4-14.9,0.5-17.4c0.1-1.1,0.3-2.8,0.2-4.6c0-0.2-0.6-0.1-0.8-0.2c-1.5-0.4-1.6-0.4-1.5-1.2
				c0.1-0.5,0.4-0.9,0.9-1.2c1.9-0.9,10.2-0.7,11.2,0.3c0.6,0.6,0.2,1.5-0.7,2c-0.2,0.1-0.8,0.1-0.8,0.4c-0.5,5.8-0.1,13.9,0,18.5
				c0.4,18.4,0,18.5,0.7,20.1c0.4,1,1,2,1.6,2.4c1.2,1,4,2.3,7.4,3.4c4.4,1.4,4.5,2.5,4.9,3.7c0.6,1.7,0.4,8.1,0.3,10.8
				c-0.4,23.4-0.5,57.9-0.3,68.2c0.1,3.9,0.4,10.1,1,12.1c2,6,7.5,6.1,11.9,6.4c2.9,0.2,8,0.3,11.3,0.2c1.5,0,4,0,6-0.1
				c2.3-0.1,2.2-1.2,0-1.5c-2.8-0.3-7.7-0.1-10.2-0.2C396.6,180.4,389.8,181,386.4,177.9"/>
		</g>
	</g>
	<path class="st1" d="M10.5,254.4l9.3-0.2l13.2,0.2c8.5,0,14.6-4.2,14.6-12.3c0-7.5-5.3-11.9-11.8-12.7c-0.3,0-0.4-0.1-0.4-0.4
		c0-0.2,0.1-0.3,0.4-0.3c5.7-0.9,10.7-5.5,10.7-12.2c0-6.7-5.7-11.9-13.7-11.9l-13,0.3l-9.3-0.3c-0.5,0.3-0.7,0.7-0.7,1.3
		c0,0.5,0.1,1,0.7,1.3h4.9c0.3,0,0.5,0.2,0.5,0.5v43.7c0,0.3-0.2,0.5-0.5,0.5h-4.9c-0.5,0.3-0.7,0.8-0.7,1.3
		C9.8,253.6,10,254,10.5,254.4L10.5,254.4z M29.8,228h-6v-20.3c0-0.3,0.2-0.5,0.5-0.5H30c5.2,0,7.9,3,7.9,10.2
		C37.9,224.5,34.6,228,29.8,228z M23.8,251.9v-21.6h6.1c5.1,0,9.2,3.4,9.2,10.9s-2.9,10.7-8.7,10.7H23.8z"/>
	<path class="st1" d="M54.3,254.4l9.4-0.2l24.2,0.3c0.3,0,0.5-0.2,0.5-0.5l0.7-16.6c-0.3-0.5-0.7-0.7-1.2-0.7c-0.5,0-1,0.1-1.3,0.7
		l-0.3,5c-0.4,6.3-2.6,9.3-9.2,9.5l-8.3,0.1c-0.7,0-1.2-0.5-1.2-1.2v-43c0-0.3,0.2-0.5,0.5-0.5h5.6c0.5-0.3,0.7-0.7,0.7-1.3
		c0-0.5-0.1-0.9-0.7-1.3l-10,0.3l-9.4-0.3c-0.5,0.3-0.7,0.7-0.7,1.3c0,0.5,0.1,1,0.7,1.3h4.9c0.3,0,0.5,0.2,0.5,0.5v43.7
		c0,0.3-0.2,0.5-0.5,0.5h-4.9c-0.5,0.3-0.7,0.8-0.7,1.3C53.6,253.6,53.8,254,54.3,254.4L54.3,254.4z"/>
	<path class="st1" d="M91,254.4l6-0.2l7.6,0.2c0.5-0.3,0.7-0.7,0.7-1.3c0-0.5-0.2-0.9-0.7-1.3h-4.8c-0.5,0-0.9-0.3-0.9-0.9
		c0-0.2,0.1-0.6,0.3-1.1l4.3-13.1h13.3l4,13c0.2,0.5,0.5,1.4,0.5,1.6s-0.2,0.4-0.5,0.4h-5.4c-0.5,0.3-0.7,0.8-0.7,1.3
		c0,0.5,0.2,0.9,0.7,1.3l9.8-0.2l8.5,0.2c0.5-0.3,0.6-0.7,0.6-1.3c0-0.5-0.1-0.9-0.6-1.3h-3.9c-0.3,0-0.5-0.2-0.6-0.6l-15-45.8
		c-0.3-0.8-0.8-1.2-1.7-1.2c-0.9,0-1.3,0.4-1.7,1.2l-15,45.4c-0.1,0.7-0.7,1.1-1.3,1.1H91c-0.5,0.3-0.7,0.8-0.7,1.3
		C90.3,253.7,90.4,254,91,254.4L91,254.4z M115.8,234.2h-11.6l6-18.1L115.8,234.2L115.8,234.2z"/>
	<path class="st1" d="M137.1,229.6c0,16.1,9.5,25.7,20.3,25.7c4,0,6.9-1.1,9.6-2.6c0.9-0.6,1.6-1.2,2.5-1.2c0.9,0,1.1,0.5,1.1,1.3
		v1.2c0,0.5,0.3,0.8,0.9,0.8c0.6,0,0.9-0.4,1-0.7l0.5-17.9c-0.3-0.5-0.7-0.7-1.2-0.7s-0.9,0.2-1.2,0.7l-0.2,3.4
		c-0.6,7.6-5.3,13.2-11.9,13.2c-8.4,0-12.6-6.3-12.6-23.2s4-23.5,12.2-23.5c6.3,0,11.7,5.4,12.2,12.4l0.3,3.2
		c0.2,0.5,0.7,0.6,1.1,0.6c0.5,0,0.9-0.1,1.2-0.6l-0.7-16.8c-0.1-0.4-0.5-0.7-1-0.7c-0.7,0-0.9,0.3-1,0.8v1.2c0,0.8-0.2,1.3-1,1.3
		c-0.7,0-1.5-0.5-2.3-0.9c-2.4-1.5-5.3-2.8-9.5-2.8C146.8,203.7,137.1,213.8,137.1,229.6L137.1,229.6z"/>
	<path class="st1" d="M180.1,254.4l9.4-0.2l9.1,0.2c0.5-0.3,0.6-0.7,0.6-1.3c0-0.5-0.1-0.9-0.6-1.3h-4.7c-0.3,0-0.5-0.2-0.5-0.5
		v-43.7c0-0.3,0.2-0.5,0.5-0.5h4.9c0.5-0.3,0.7-0.7,0.7-1.3c0-0.5-0.1-0.9-0.7-1.3l-9.3,0.3l-9.4-0.3c-0.5,0.3-0.7,0.7-0.7,1.3
		c0,0.5,0.1,1,0.7,1.3h4.9c0.3,0,0.5,0.2,0.5,0.5v43.7c0,0.3-0.2,0.5-0.5,0.5h-4.9c-0.5,0.3-0.7,0.8-0.7,1.3
		C179.4,253.6,179.6,254,180.1,254.4z M205.9,254.4l8.1-0.3l9.2,0.3c0.5-0.3,0.6-0.7,0.6-1.3c0-0.5-0.2-0.9-0.6-1.3h-3.7
		c-0.5,0-0.8-0.3-1-0.5l-18.5-26.6l15.2-16.5c0.5-0.5,1.2-0.9,2-0.9h3.3c0.5-0.3,0.6-0.7,0.6-1.3c0-0.5-0.1-0.9-0.6-1.3l-6.2,0.3
		l-8.4-0.3c-0.5,0.3-0.7,0.7-0.7,1.3c0,0.5,0.1,1,0.7,1.3h4.8c0.3,0,0.7,0.3,0.7,0.7c0,0.3-0.4,0.7-0.9,1.3l-16.8,18.9v0.9
		l14.5,20.6c0.5,0.7,1.2,1.5,1.2,1.8c0,0.3-0.2,0.5-0.5,0.5h-2.8c-0.6,0.3-0.7,0.8-0.7,1.3C205.1,253.5,205.2,254.1,205.9,254.4
		L205.9,254.4z"/>
	<path class="st1" d="M259,204.6l-10,0.3l-8.6-0.3c-0.5,0.3-0.7,0.7-0.7,1.3c0,0.5,0.2,1,0.7,1.3h4c0.3,0,0.5,0.2,0.6,0.6l14.7,45.9
		c0.3,0.8,0.7,1.2,1.6,1.2c0.9,0,1.4-0.4,1.7-1.2l14.6-45.5c0.3-0.7,0.7-1.1,1.4-1.1h3.6c0.5-0.3,0.7-0.7,0.7-1.3
		c0-0.5-0.2-0.9-0.7-1.3l-6.1,0.3l-8-0.3c-0.4,0.3-0.6,0.7-0.6,1.3c0,0.5,0.1,1,0.6,1.3h5.2c0.5,0,0.9,0.3,0.9,0.8
		c0,0.3-0.1,0.7-0.3,1.3l-10.5,33.3l-10.3-33.3c-0.2-0.7-0.5-1.4-0.5-1.7c0-0.2,0.2-0.4,0.5-0.4h5.5c0.5-0.3,0.7-0.7,0.7-1.3
		S259.4,205,259,204.6L259,204.6z"/>
	<path class="st1" d="M285.8,254.4l9.4-0.2l25.5,0.3c0.3,0,0.5-0.2,0.5-0.5l0.4-15.5c-0.3-0.5-0.7-0.7-1.1-0.7c-0.6,0-1,0.3-1.3,0.7
		l-0.2,4.1c-0.3,6.5-2.3,9.1-8.9,9.2l-9.8,0.1c-0.7,0-1.2-0.5-1.2-1.2v-20.4l4.8,0.2c3.6,0.2,5.1,1.6,5.1,4.8v2.2
		c0.3,0.5,0.7,0.7,1.2,0.7s0.9-0.2,1.2-0.7l-0.3-8.2l0.3-8c-0.3-0.5-0.7-0.7-1.2-0.7s-0.9,0.2-1.2,0.7v1.5c0,3.4-1.3,4.9-5.1,5.1
		l-4.8,0.2v-20.4c0-0.3,0.2-0.5,0.5-0.5l8.9,0.2c6.3,0.1,8.2,2.6,8.8,8.9l0.3,3.2c0.3,0.4,0.7,0.7,1.2,0.7c0.5,0,0.9-0.3,1.2-0.7
		l-0.6-14.3c0-0.3-0.2-0.5-0.5-0.5l-23.6,0.3l-9.4-0.3c-0.5,0.3-0.7,0.7-0.7,1.3s0.1,1,0.7,1.3h4.9c0.3,0,0.5,0.2,0.5,0.5v43.7
		c0,0.3-0.2,0.5-0.5,0.5h-4.9c-0.5,0.3-0.7,0.8-0.7,1.3C285.2,253.7,285.3,254,285.8,254.4L285.8,254.4z"/>
	<path class="st1" d="M328.4,254.4l9.4-0.2l24.2,0.3c0.3,0,0.5-0.2,0.5-0.5l0.7-16.6c-0.3-0.5-0.7-0.7-1.2-0.7c-0.5,0-1,0.1-1.3,0.7
		l-0.3,5c-0.4,6.3-2.6,9.3-9.2,9.5l-8.3,0.1c-0.7,0-1.2-0.5-1.2-1.2v-43c0-0.3,0.2-0.5,0.5-0.5h5.6c0.5-0.3,0.7-0.7,0.7-1.3
		c0-0.5-0.1-0.9-0.7-1.3l-10,0.3l-9.4-0.3c-0.5,0.3-0.7,0.7-0.7,1.3c0,0.5,0.1,1,0.7,1.3h4.9c0.3,0,0.5,0.2,0.5,0.5v43.7
		c0,0.3-0.2,0.5-0.5,0.5h-4.9c-0.5,0.3-0.7,0.8-0.7,1.3C327.8,253.6,327.9,254,328.4,254.4L328.4,254.4z"/>
	<path class="st1" d="M384.2,204.6l-10,0.3l-8.6-0.3c-0.5,0.3-0.7,0.7-0.7,1.3c0,0.5,0.2,1,0.7,1.3h4c0.3,0,0.5,0.2,0.6,0.6
		l14.7,45.9c0.3,0.8,0.7,1.2,1.6,1.2c0.9,0,1.4-0.4,1.7-1.2l14.6-45.5c0.3-0.7,0.7-1.1,1.4-1.1h3.6c0.5-0.3,0.7-0.7,0.7-1.3
		c0-0.5-0.2-0.9-0.7-1.3l-6.1,0.3l-8-0.3c-0.4,0.3-0.6,0.7-0.6,1.3c0,0.5,0.1,1,0.6,1.3h5.2c0.5,0,0.9,0.3,0.9,0.8
		c0,0.3-0.1,0.7-0.3,1.3l-10.5,33.3l-10.3-33.3c-0.2-0.7-0.5-1.4-0.5-1.7c0-0.2,0.2-0.4,0.5-0.4h5.5c0.5-0.3,0.7-0.7,0.7-1.3
		S384.6,205,384.2,204.6L384.2,204.6z"/>
	<path class="st1" d="M411.1,254.4l9.4-0.2l25.5,0.3c0.3,0,0.5-0.2,0.5-0.5l0.4-15.5c-0.3-0.5-0.7-0.7-1.1-0.7c-0.6,0-1,0.3-1.3,0.7
		l-0.2,4.1c-0.3,6.5-2.3,9.1-8.9,9.2l-9.8,0.1c-0.7,0-1.2-0.5-1.2-1.2v-20.4l4.8,0.2c3.6,0.2,5.1,1.6,5.1,4.8v2.2
		c0.3,0.5,0.7,0.7,1.2,0.7c0.5,0,0.9-0.2,1.2-0.7l-0.3-8.2l0.3-8c-0.3-0.5-0.7-0.7-1.2-0.7c-0.5,0-0.9,0.2-1.2,0.7v1.5
		c0,3.4-1.3,4.9-5.1,5.1l-4.8,0.2v-20.4c0-0.3,0.2-0.5,0.5-0.5l8.9,0.2c6.3,0.1,8.2,2.6,8.8,8.9l0.3,3.2c0.3,0.4,0.7,0.7,1.2,0.7
		c0.5,0,0.9-0.3,1.2-0.7l-0.6-14.3c0-0.3-0.2-0.5-0.5-0.5l-23.6,0.3l-9.4-0.3c-0.5,0.3-0.7,0.7-0.7,1.3s0.1,1,0.7,1.3h4.9
		c0.3,0,0.5,0.2,0.5,0.5v43.7c0,0.3-0.2,0.5-0.5,0.5h-4.9c-0.5,0.3-0.7,0.8-0.7,1.3C410.4,253.7,410.5,254,411.1,254.4L411.1,254.4z
		"/>
	<path class="st1" d="M461.5,254.4l10.1-0.2l10,0.2c0.5-0.3,0.7-0.7,0.7-1.2c0-0.5-0.2-1-0.7-1.3h-5.6c-0.3,0-0.5-0.2-0.5-0.5v-43.8
		c0-0.3,0.1-0.5,0.5-0.5l4.5,0.2c5.1,0.2,6.5,3.4,7,8.1l0.3,4.5c0.3,0.5,0.7,0.7,1.2,0.7c0.5,0,1-0.2,1.3-0.7l-0.3-14.8
		c0-0.3-0.2-0.5-0.5-0.5l-17.9,0.3l-17.8-0.3c-0.3,0-0.5,0.2-0.5,0.5l-0.3,14.8c0.2,0.5,0.7,0.7,1.2,0.7c0.5,0,0.9-0.2,1.2-0.7
		l0.3-4.5c0.4-4.7,1.9-7.9,6.9-8.1l4.5-0.2c0.3,0,0.5,0.2,0.5,0.5v43.8c0,0.3-0.2,0.5-0.5,0.5h-5.6c-0.5,0.3-0.7,0.7-0.7,1.3
		C460.8,253.6,460.9,254.1,461.5,254.4L461.5,254.4z"/>
	<path class="st1" d="M171.6,298.9c-1,0-2-0.2-2.8-0.7c-0.8-0.5-1.4-1.1-1.9-1.9c-0.5-0.8-0.8-1.6-1.1-2.6c-0.2-0.9-0.4-1.9-0.4-3
		c0-1.1,0.1-2.1,0.4-3c0.3-1,0.6-1.8,1.1-2.6c0.5-0.8,1.1-1.4,1.9-1.8c0.8-0.4,1.7-0.7,2.7-0.7c1.2,0,2.1,0.2,2.8,0.7
		c0.7,0.4,1.2,1.1,1.7,1.8l-0.7,0.4c-0.4-0.7-0.9-1.2-1.4-1.5c-0.5-0.4-1.3-0.6-2.3-0.6c-1.7,0-3,0.7-3.9,2.1
		c-0.9,1.4-1.3,3.1-1.3,5.2c0,1.3,0.2,2.5,0.5,3.6c0.3,1.1,0.9,2,1.7,2.7c0.8,0.7,1.8,1.1,3,1.1c1,0,1.8-0.2,2.5-0.7
		c0.7-0.5,1.2-1,1.5-1.7l0.7,0.3c-0.4,0.8-1,1.5-1.8,2C173.7,298.6,172.7,298.9,171.6,298.9L171.6,298.9z"/>
	<path class="st1" d="M188.8,298.2c-0.8,0.5-1.8,0.7-2.8,0.7c-1.1,0-2-0.2-2.8-0.7s-1.5-1.1-1.9-1.9c-0.5-0.8-0.8-1.7-1.1-2.6
		c-0.2-0.9-0.3-1.9-0.3-2.9s0.1-2,0.3-2.9c0.2-0.9,0.6-1.8,1.1-2.6c0.5-0.8,1.1-1.4,1.9-1.9c0.8-0.5,1.8-0.7,2.8-0.7
		c1.1,0,2,0.3,2.8,0.7c0.8,0.5,1.5,1.1,1.9,1.9c0.5,0.8,0.8,1.7,1,2.6c0.2,0.9,0.4,1.9,0.4,2.9s-0.1,2-0.4,2.9
		c-0.2,0.9-0.6,1.8-1,2.6C190.3,297.1,189.7,297.7,188.8,298.2z M186,298.1c0.9,0,1.8-0.2,2.5-0.6c0.7-0.4,1.3-1,1.6-1.8
		c0.4-0.7,0.7-1.5,0.9-2.3c0.2-0.8,0.3-1.7,0.3-2.6c0-1-0.1-1.9-0.3-2.7c-0.2-0.9-0.5-1.6-0.9-2.3s-0.9-1.2-1.6-1.6
		c-0.7-0.4-1.5-0.6-2.5-0.6s-1.8,0.2-2.5,0.6c-0.7,0.4-1.2,1-1.6,1.8c-0.4,0.7-0.7,1.5-0.9,2.3c-0.2,0.8-0.3,1.7-0.3,2.6
		c0,1,0.1,1.9,0.3,2.8c0.2,0.8,0.5,1.6,0.9,2.3c0.4,0.7,1,1.3,1.7,1.7S185.1,298.1,186,298.1L186,298.1z"/>
	<path class="st1" d="M196.5,298.6v-15.7h4.9c1.7,0,3,0.4,3.8,1.3c0.8,0.9,1.2,2,1.2,3.3c0,0.5-0.1,1.1-0.3,1.6
		c-0.2,0.5-0.4,1-0.8,1.5c-0.4,0.4-0.9,0.8-1.5,1.1c-0.7,0.3-1.4,0.4-2.3,0.4h-4.1v6.5H196.5L196.5,298.6z M201.4,291.3
		c1.4,0,2.5-0.4,3.1-1.1c0.7-0.8,1-1.6,1-2.7c0-1.1-0.3-2-1-2.7c-0.6-0.7-1.7-1.1-3.2-1.1h-4.1v7.6H201.4z"/>
	<path class="st1" d="M209.9,298.6v-15.7h8.2v0.8h-7.4v6.5h5v0.7h-5v7h7.9v0.7L209.9,298.6L209.9,298.6z"/>
	<path class="st1" d="M233.4,298.6h-0.8l-8.1-13l-0.7-1.1v14.2H223v-15.7h0.8l8.1,13.1l0.7,1.1v-14.2h0.8V298.6L233.4,298.6z"/>
	<path class="st1" d="M247.6,298.6v-7.8h-8.5v7.8h-0.8v-15.7h0.8v7.2h8.5v-7.2h0.8v15.7H247.6z"/>
	<path class="st1" d="M262.8,298.6l-1.5-4.4h-6.6l-1.5,4.4h-0.9l5.4-15.7h0.6l5.4,15.7H262.8L262.8,298.6z M261,293.5l-2.3-6.7
		c0,0-0.1-0.3-0.2-0.6c-0.1-0.4-0.2-0.7-0.4-1.1c-0.1-0.4-0.2-0.6-0.2-0.8c0,0.2-0.1,0.5-0.2,0.8c-0.1,0.4-0.3,0.7-0.4,1.1
		c-0.1,0.4-0.2,0.6-0.2,0.6l-2.3,6.7L261,293.5L261,293.5z"/>
	<path class="st1" d="M273.2,298.9c-1.1,0-2-0.2-2.8-0.7c-0.8-0.5-1.4-1.1-1.9-1.9c-0.5-0.8-0.8-1.6-1.1-2.6s-0.4-1.9-0.4-3
		s0.1-2.1,0.4-3.1c0.3-1,0.6-1.8,1.1-2.6c0.5-0.8,1.1-1.4,1.9-1.8c0.8-0.4,1.7-0.7,2.8-0.7c1.8,0,3.2,0.7,4.3,2.2l-0.7,0.5
		c-0.9-1.2-2-1.8-3.6-1.8c-0.9,0-1.8,0.2-2.5,0.6c-0.7,0.4-1.3,1-1.7,1.8c-0.4,0.7-0.7,1.5-0.9,2.3c-0.2,0.8-0.3,1.7-0.3,2.6
		c0,1.3,0.2,2.6,0.5,3.6c0.4,1.1,0.9,2,1.7,2.7c0.8,0.7,1.8,1.1,3,1.1c1.3,0,2.3-0.5,3-1.4c0.7-0.9,1.1-2.3,1.1-4.1v-0.3H274v-0.8
		h4.2v0.8c0,2.2-0.4,3.9-1.3,5C275.9,298.3,274.7,298.9,273.2,298.9L273.2,298.9z"/>
	<path class="st1" d="M282.9,298.6v-15.7h8.2v0.8h-7.4v6.5h5v0.7h-5v7h7.9v0.7L282.9,298.6L282.9,298.6z"/>
	<path class="st1" d="M306.3,298.6h-0.8l-8.1-13l-0.7-1.1v14.2H296v-15.7h0.8l8.1,13.1l0.7,1.1v-14.2h0.8V298.6L306.3,298.6z"/>
</g>
</svg>
