<?xml version="1.0" encoding="UTF-8"?><svg id="Layer_2" xmlns="http://www.w3.org/2000/svg" viewBox="0 0 309 304.88"><defs><style>.cls-1{fill:none;stroke:#34326a;stroke-miterlimit:10;}</style></defs><path class="cls-1" d="m30,283.01s80.11,2.44,95.16-3.25c15.05-5.69,26.2-11.26,39.45-8.95,12.81,2.24,29.08,3.75,29.08,6.71,0,2.44-2.03,3.25-11.59,4.81-7.49,1.22-15.12,1.3-22.7,1.73-9.38.54-13.7,1.69-23.05.37-.39-.05-4.07-.41-5.69-1.22s-1.59-2.79-1.63-3.25c-1.52-19.36-2.43-36.28-1.22-55.71.81-13.01,1.22-42.7,1.22-42.7,0,0,.41-17.49.81-21.55s.81-21.55,4.88-21.55c3.43,0,6.9-1.12,10.31-1.43,4.62-.42,9.28-.31,13.88.33,2.2.3,4.4.73,6.61.64,1.68-.07,3.33-.44,5-.7,5.11-.8,10.01-.34,15.07.45,1.64.26,8.48,1.15,5.25,3.97s-10.98,8.95-24.4,8.13-32.94-7.73-32.53-12.2c.27-2.95,1.84-5.98,2.99-8.66,1.59-3.71,3.48-7.27,5.07-10.96,3.31-7.74,4.74-16.13,5.79-24.43.99-7.81,1.67-15.66,2.35-23.51.55-6.4.86-12.82,1.75-19.18s-.03-13.33-.85-19.86c-.12-.92-.24-1.88-.73-2.67-.39-.65-1.01-1.17-1.27-1.88-.4-1.09.12-2.3.8-3.24,5.37-7.43,17.58-5.47,25.31-4.43,2.38.32,5.11,1,6.12,3.18.55,1.2.43,2.59.3,3.9-.07.67-.16,1.4-.62,1.89-.36.38-.89.55-1.41.67-1.91.46-3.89.52-5.85.57-6.21.13-12.39.65-18.6.43-1.31-.05-3.25,0-4.07-1.22.13-1.37,2.28-1.64,3.43-2.04,5.79-1.99,12.07-2.55,18.12-1.61,5.46.85,10.71,5,7.73,10.97-.56,1.13-2.6,1.48-3.67,1.75-2.27.56-4.61.89-6.94,1.05-8.68.57-17.19.38-17.05-1.17.45-1.02,1.32-1.73,2.35-2.15,3.09-1.27,6.51-1.42,9.85-1.56,4.4-.18,13.03-1.14,15.05,4.11s1.63,34.5,2.24,41.04c.61,6.54,2.64,31.75,3.46,34.6s6.51,24.81,6.91,26.03,2.44,36.19,2.44,36.19c0,0,2.03,47.58,1.63,58.56,0,0,.81,13.01.41,18.3s0,23.59-3.25,25.62-6.51,2.44-5.69.81c.81-1.63,3.25-1.22,3.25-1.22,1.45.24,2.72,1.01,4,1.69,1.3.68,2.53,1.04,3.98,1.24,2.57.36,5.19.48,7.78.59,2.34.09,4.67.15,7.01.15,0,0,23.18,0,34.16-.81s32.94-.41,37.82-.41"/></svg>