<?xml version="1.0" encoding="UTF-8"?><svg id="Layer_2" xmlns="http://www.w3.org/2000/svg" viewBox="0 0 395 306.97"><defs><style>.cls-1{fill:none;stroke:#be402d;stroke-miterlimit:10;stroke-width:.75px;}</style></defs><path class="cls-1" d="m81.76,244.5c4.13,0,5.85,1.96,5.2,6.05-.71,4.48-1.61,8.94-2.29,13.43-.52,3.45-.19,4.34,3.16,5.37,5.32,1.64,10.7,3.26,16.18,4.15,21.53,3.51,43.19,3.85,64.87,1.74,11.93-1.16,23.77-3.03,35.29-6.51.29-.09.57-.17.86-.26,3.61-1.2,3.83-1.45,3.23-5.29-.61-3.89-1.39-7.76-2.09-11.64-.71-3.91-.3-4.48,3.75-4.37,5.89.17,11.77.58,17.65.72,6.03.14,5.99.05,6.48-5.94.39-4.82.91-9.62,1.37-14.42-.25-.06-.45-.16-.51-.1-5.15,4.4-11.31,6.76-17.62,8.9-1.98.67-3.83,1.91-5.52,3.19-2.13,1.62-3.95,1.54-4.67-1.04-1.16-4.2-2.1-8.53-2.5-12.86-.31-3.42,2.53-4.9,5.35-6.07,3.5-1.45,7.14-2.67,10.4-4.55,7.7-4.44,11.93-11.17,12.4-20.19.77-14.73-.22-29.34-2.57-43.88-1.19-7.35-2.43-14.69-3.76-22.01-.16-.88-.87-1.9-1.63-2.38-5.24-3.3-15.31-2.52-20.15,1.4-2,1.61-3,3.66-2.99,6.21.13,29.3.16,58.61.47,87.91.07,6.38,1.04,12.76,1.78,19.12.29,2.46-.58,3.94-2.82,4.58-2.07.59-4.18,1.09-6.31,1.34-2.47.29-4.35-1.07-5-3.3-1.25-4.26-2.56-8.59-3.08-12.97-3.22-27.02-2.88-54.16-2.56-81.3.01-.89,0-1.79-.02-2.68,0-.14-.1-.27-.25-.66-6.55.58-13.18,1.16-19.81,1.74,0,4.21-.05,8.3,0,12.38.32,21.92.77,43.84.95,65.76.05,5.49-.72,10.99-1.08,16.49-.21,3.17-1.89,4.88-4.94,5.73-9.19,2.55-18.6,3.9-28.06,3.64-10.93-.29-21.83-1.46-32.73-2.39-2.12-.18-4.2-.98-6.26-1.62-2.8-.86-4.3-2.73-4.28-5.78.04-6.71-.15-13.42.04-20.13.67-23.42.21-46.82-1-70.21-.12-2.36.01-4.78.39-7.12.38-2.36,1.99-3.1,3.9-1.74,3.59,2.56,7.75,3.03,11.86,3.47,15.08,1.6,30.22,1.39,45.36,1.07,4.75-.1,9.5-.38,14.36-.59v-3.78c-3.4,0-6.71,0-10.02,0-14.98-.03-29.97.05-44.95-.16-3.99-.06-8.02-.72-11.93-1.58-6.29-1.39-8.12-3.77-8.67-10.17-.04-.52-.14-1.05-.08-1.56.29-2.42-.27-3.92-2.86-5.11-3.96-1.83-5.49-5.85-6.08-9.9-1.75-12.05.82-23.4,6.24-34.16,1.59-3.14,4.69-4.49,7.9-5.42,6.95-2.02,14.12-2.32,21.27-2.14,16.33.41,32.6,1.68,48.73,4.3,11.92,1.94,23.56,5.09,34.67,9.94,1.09.48,2.09,1.18,3.12,1.78-.06.25-.12.5-.19.75-.89.08-1.78.22-2.68.23-24.9.3-49.81.52-74.71.92-10.81.17-21.61.73-32.41,1.02-2.34.06-3.23,1.13-3.13,3.3.21,4.69.44,9.38.65,14.07.23,5.2.43,10.4.65,15.66,4.14.82,7.9-.25,11.67-1.47,8.06-2.61,16.1-5.34,24.23-7.72,5.79-1.7,11.83-2.04,17.73-.87,9.52,1.88,17.01-1.54,23.78-7.83,2.44-2.27,5.18-4.26,7.96-6.11,3.06-2.04,6.46-2.44,10.05-1.3,5.3,1.68,8.19.63,11.65-3.86,1.16-1.51,1.78-3.74,4.58-3.74.11,1.04.32,2.06.31,3.06-.03,4.17-.22,8.35-.16,12.52.05,2.95.38,3.21,3.32,3.08,4.31-.2,8.62-.64,12.93-.77,2.28-.07,4.57.29,7.07.47-.48-2.86-.81-5.38-2.42-7.94-1.84-2.93-2.85-6.54-3.55-9.99-.81-3.99-.68-8.17-1.34-12.21-.85-5.19-2.17-10.3-3.12-15.48-.91-4.96-2.31-9.96-2.26-14.93.1-8.8,3.34-16.48,11.08-21.52,5.95-3.88,12.61-4.15,19.4-3.24,2.95.39,5.87,1.14,8.82,1.33,2.49.16,5.07-.01,7.53-.45,5.2-.93,10.25-1.88,15.67-.75,6.02,1.26,12.27,1.41,18.39,2.26,4.69.65,8.92,2.54,13.03,4.98,5.11,3.03,10.55,5.52,15.83,8.27.87.45,1.65,1.07,2.47,1.61-.05.23-.11.45-.16.68-.88.1-1.76.29-2.64.3-23.86.4-47.72.72-71.58,1.19-8.12.16-16.23.74-24.35,1.02-1.63.06-2.28.66-2.33,2.21-.26,8.56-.95,17.14-.72,25.69.25,9.52,1.32,19.02,2.09,28.53.06.7.53,1.77,1.05,1.94.58.18,1.67-.27,2.1-.8.97-1.19,2.03-2.51,2.42-3.95,1.21-4.51,2.45-9.05,3.04-13.67.47-3.69,1.75-6.19,5.43-7.24,2.07-.59,4.07-1.42,6.15-1.96,3.43-.88,5.78-3.13,8.13-5.87-5.65-.51-11.05-.86-16.4-1.52-3.01-.38-5.99-1.15-8.9-2.02-.9-.27-1.53-1.42-2.29-2.16.93-.45,1.85-1.28,2.78-1.29,4.54-.05,9.09.09,13.64.23,4.77.15,9.54.45,14.31.53.95.01,2.23-.46,2.81-1.16,2.44-2.93,5.29-4.4,9.25-4.46,9.22-.12,17.64-2.8,25.3-8.2,5.56-3.92,12.26-4.85,18.91-5.26,3.17-.19,6.39.22,9.58.41,1.56.09,2.51.94,2.39,2.58-.27,3.86-.46,7.74-1.05,11.56-.12.79-1.75,1.75-2.81,1.93-5.79.98-11.6,2.19-17.44,2.48-13.69.7-27.4,1.09-41.11,1.23-3.13.03-4.77,1.1-6.09,3.85,2.64.12,5.14.31,7.64.34,16.04.22,32.06-.02,47.94-2.65,2.93-.48,5.8-1.3,8.69-2,2.48-.6,3.28-.2,3.21,2.37-.15,5.66-.4,11.32-.91,16.96-.88,9.87-1.54,19.79-3.1,29.55-2.18,13.66-4.96,27.23-7.75,40.79-3.5,17.03-6.24,34.18-6.55,51.57-.17,9.2,1.03,18.42,1.61,27.62.27,4.31.62,8.61.72,12.92.04,1.95-.45,3.98-2.87,4.46-2.4.48-4.1-.97-4.73-2.89-1.46-4.42-3.01-8.92-3.59-13.5-2.24-17.69-1.93-35.47.39-53.09,2.4-18.29,5.69-36.47,8.66-54.68,2.48-15.2,6.05-30.25,6.25-45.77.08-6.53-.47-7.08-6.99-6.25-2.81.36-5.62.62-8.44.93-3.15.34-4.84,2.25-5.2,5.24-.56,4.58-.97,9.18-1.37,13.78-1,11.66-1.94,23.32-2.95,34.98-1.25,14.55-2.58,29.09-3.82,43.65-1.25,14.66-1.35,29.36-.39,44.02.63,9.64,2.01,19.25,3.4,28.83.88,6.11-.09,7.92-6.26,9.06-7.34,1.36-14.72,1.11-22.05.2-7.08-.88-14.12-2.18-21.17-3.28-.21-.03-.44.04-.87.08-.16,1.6-.37,3.21-.49,4.83-.21,2.83-.04,5.73-.64,8.46-.58,2.64.52,4.24,2.53,5.01,4.7,1.8,9.43,3.9,14.34,4.7,16.78,2.76,33.56,2.4,50.12-1.78,2.5-.63,4.86-1.82,7.25-2.85,1.63-.7,2.21-1.95,1.93-3.8-.7-4.78-1.29-9.59-1.82-14.39-.35-3.16.46-3.95,3.73-3.96,4.1,0,8.2,0,12.3,0,88.22,0,59.79,1.06-11.28,1.07-3.92,0-4.17.39-3.58,4.28.68,4.49,1.33,8.99,1.69,13.52.09,1.16-.67,3.08-1.58,3.51-3.73,1.76-7.56,3.54-11.55,4.48-10.87,2.56-21.98,3-33.12,2.56-7.61-.3-15.19-.99-22.45-3.46-2.71-.92-5.29-2.34-7.79-3.78-1.57-.91-2.04-2.44-1.78-4.43.51-3.91.63-7.87.94-11.8.1-1.22.32-2.43.44-3.28,8.07,1.17,15.76,2.46,23.5,3.35,7.48.86,15.02,1.26,22.44-.61,4.35-1.09,5.11-2.29,4.26-6.69-4.26-22.11-4.76-44.44-3.48-66.81.91-15.91,2.61-31.78,3.93-47.67,1.26-15.22,2.44-30.46,3.73-45.68.23-2.66.72-5.31,1.3-7.91.54-2.42,2.25-3.93,4.67-4.23,4.5-.56,9.02-1.02,13.55-1.29,2.66-.16,4.08,1.06,3.95,3.71-.41,8.02-.57,16.12-1.82,24.03-3.61,22.79-7.87,45.48-11.56,68.26-3.04,18.74-3.85,37.66-2.67,56.61.35,5.69,1.49,11.34,2.58,16.95.38,1.97,1.54,3.86,2.65,5.58.44.69,1.9,1.32,2.6,1.09.84-.28,1.87-1.48,1.92-2.34.18-3.11.15-6.25-.09-9.36-.68-9.13-2.08-18.25-2.15-27.38-.12-17.55,2.35-34.89,5.8-52.1,2.88-14.38,5.95-28.73,8.33-43.19,1.58-9.61,2.17-19.39,3.08-29.11.56-6.01.94-12.03,1.25-18.05.15-2.89-.11-3-2.88-2.22-9.69,2.7-19.65,3.61-29.62,3.93-11.25.35-22.51.13-33.76.24-.82,0-1.89.5-2.42,1.12-2.75,3.23-6.12,5.22-10.23,6.4-8.35,2.39-8.15,2.55-9.49,11.06-.62,3.94-1.85,7.8-3.11,11.6-.84,2.52-2.42,4.65-5.53,4.78,0,.35,0,.56,0,.77,0,3.29,1.21,5.16,4.78,6.09,7.75,2.04,11.43,8.33,14.25,15.21,4.71,11.48,7.11,23.52,7.96,35.82.62,8.9.75,17.87.41,26.79-.49,12.94-3.73,25.03-13.2,34.68-.83.85-1.24,2.34-1.39,3.59-.7,6.07-1.29,12.15-1.8,18.23-.12,1.42-.77,2.08-2,2.21-2,.2-4.01.41-6.01.35-5.59-.17-11.17-.54-16.76-.7-3.15-.1-3.21.04-2.69,3.07.65,3.74,1.44,7.45,2.03,11.2.81,5.16.52,5.88-4.49,7.12-7.5,1.85-15.05,3.6-22.67,4.9-21.75,3.72-43.63,3.72-65.54,1.75-8.97-.81-17.95-1.92-26.52-4.89-7.68-2.66-7.09-3.13-6.07-10.18.54-3.75,1.41-7.46,1.98-11.21.44-2.93-.87-4.36-3.8-4.43-.67-.02-1.34,0-2.01,0-89.56,0-88.68-1.08,1.63-1.07Zm81.07-96.47c-1.12,0-1.92,0-2.72,0-16.1.07-32.2.41-48.28.1-7.34-.14-14.96-.11-21.62-4.33-.37-.23-1.67.31-1.95.81-.43.8-.5,1.87-.48,2.82.08,4.84.09,9.69.38,14.52,1.35,22.13.84,44.27.5,66.41-.07,4.77.11,9.54.13,14.31,0,1.99,1.01,3.31,2.77,3.91,2.32.79,4.68,1.69,7.08,1.93,9.25.94,18.52,1.96,27.81,2.34,10.9.45,21.71-.72,32.29-3.64,2.72-.75,3.98-2.32,4.16-5.02.36-5.5,1.11-11,1.06-16.49-.25-24.67-.72-49.34-1.11-74.02-.02-1.17,0-2.34,0-3.66Zm22.51-7.27c.85,0,1.37.02,1.89,0,2.9-.15,5.8-.38,8.71-.43.61-.01,1.23.6,1.84.92-.36.66-.59,1.48-1.13,1.92-.6.5-1.45.76-2.24.94-2.32.53-4.65,1.09-7.01,1.38-1.79.22-2.24.96-2.26,2.71-.24,26.24-.52,52.49,2.09,78.65.51,5.08,1.59,10.14,2.9,15.09.99,3.76,2.5,4.44,6.34,3.9,1.46-.21,2.87-.75,4.29-1.15,1.72-.49,2.23-1.59,2.06-3.38-.71-7.63-1.76-15.27-1.85-22.92-.31-28.11-.27-56.22-.38-84.33-.01-3.48,1.5-6.29,4.47-7.69,2.96-1.39,6.28-2.54,9.5-2.72,3.66-.21,7.39.76,11.12,1.23-.63-3.81-1.28-8.06-2.11-12.29-.1-.51-1.15-1.13-1.81-1.18-3.04-.26-6.09-.49-9.14-.43-3.05.06-6.08.57-9.13.71-3.92.18-4.73-.6-4.76-4.59-.03-3.73.16-7.45.24-11.18.02-.83,0-1.66,0-2.49-.21-.04-.42-.09-.63-.13-.7.93-1.41,1.86-2.11,2.79-3.94,5.26-7.11,6.35-13.37,4.41-2.99-.93-5.83-.59-8.37,1.04-2.62,1.68-5.24,3.47-7.5,5.6-7.27,6.86-15.35,10.83-25.71,8.72-3.09-.63-6.45-.74-9.56-.26-5.5.84-10.91,2.23-16.33,3.53-9.12,2.18-17.34,7.78-27.36,7.07,0,1.7-.08,3.25.01,4.8.33,5.71,2.01,8.06,7.57,9.21,4.64.96,9.42,1.69,14.14,1.75,16.62.21,33.25.08,49.87.07,3.05,0,2.92-.05,2.98-3.11.13-6.62.42-13.24.63-19.86.04-1.4.77-2.16,2.09-2.48,5.61-1.37,11.23-1.43,16.81.03,1.66.43,2.86,1.44,2.88,3.46.04,3.8.24,7.6.31,11.4.05,3.04.01,6.07.01,9.3Zm36.26-38.86c-.6-9.12-1.53-18.02-1.69-26.94-.17-9.15.4-18.31.67-27.46.05-1.81.59-3.05,2.86-3.09,3.87-.06,7.73-.56,11.6-.64,27.72-.55,55.44-1.04,83.15-1.55.54-.01,1.08-.1,1.86-.18-5.47-2.89-10.83-5.35-15.79-8.45-5.13-3.2-10.6-4.99-16.51-5.7-5.1-.61-10.26-.89-15.3-1.79-4.28-.77-8.35-.55-12.58.31-3.46.7-7.06,1.02-10.58.96-3.02-.05-6.01-.99-9.03-1.35-6.49-.77-12.91-.51-18.45,3.45-8.42,6.01-11.01,14.69-10.23,24.53.28,3.45,1.18,6.91,2.18,10.24,2.07,6.89,3.37,13.86,3.56,21.06.06,2.3.42,4.6.83,6.87.6,3.41,1.44,6.77,3.44,9.74Zm-134.58,22.77c-.31-7-.62-13.62-.9-20.24-.14-3.35-.34-6.69-.35-10.04,0-2.28,1.18-3.5,3.62-3.57,9.68-.29,19.36-.82,29.04-.98,25.56-.41,51.12-.67,76.68-1,.59,0,1.18-.09,1.77-.14-10.47-4.97-21.42-8.06-32.64-10.03-16.6-2.91-33.38-4.21-50.22-4.65-7.15-.19-14.31-.02-21.27,1.97-3.21.92-6.26,2.24-7.83,5.46-5.01,10.32-7.62,21.15-5.94,32.65.67,4.6,2.54,8.72,8.05,10.57Zm137.57-12.66c.88,5.01,1.7,9.75,2.56,14.48.06.33.41.61.6.93,1.23,2.11,2.7,4.12,3.64,6.35,3.04,7.19,4.31,14.85,5.35,22.51,2.85,20.92,2.8,41.89.61,62.87-.14,1.35-.22,2.72-.38,4.66,4.93-5.48,8.8-10.86,10.31-17.45,1.25-5.5,2.31-11.1,2.79-16.71,1.26-14.94-.05-29.76-3.1-44.42-1.67-8.02-3.93-15.87-8-23.1-3.13-5.58-7.93-8.63-14.38-10.12Zm3.91,17.76c-.2.07-.39.13-.59.2,0,.34-.05.7,0,1.03.94,5.58,1.93,11.15,2.85,16.73,2.5,15.18,3.72,30.43,3.15,45.84-.45,12.16-6.62,19.99-17.39,24.7-2.11.92-4.33,1.57-6.46,2.45-1.94.8-4.16,1.7-4.31,4.08-.31,4.73.65,9.32,2.48,13.7.45,1.07,1.41,1.5,2.3.49,2.42-2.73,5.77-3.57,9.02-4.63,5.43-1.77,10.54-4.15,14.78-8.05.73-.67,1.32-1.8,1.43-2.78,1.94-17.14,2.74-34.31,1.47-51.55-.85-11.53-2.09-22.99-5.5-34.09-.85-2.78-2.15-5.42-3.25-8.13Zm29.52-65.61c.66.06,1.02.11,1.37.12,15.13.42,30.23,0,45.29-1.59,4.65-.49,9.26-1.34,13.86-2.18.83-.15,2.1-1.01,2.19-1.67.48-3.46.74-6.95.84-10.44.02-.63-.96-1.78-1.58-1.86-9.83-1.29-19.55-.57-27.94,5.01-8.01,5.33-16.62,7.88-26.01,8.08-3.57.08-5.88,1.57-8.02,4.55Zm-73.79,66.04s-.06,0-.09,0c0-3.05-.04-6.11.01-9.16.03-1.93-.83-3.02-2.68-3.54-4.47-1.26-8.98-1.13-13.5-.42-3.44.54-3.88.88-4.02,4.37-.24,6.17-.28,12.35-.42,18.53-.03,1.33.3,2.01,1.92,1.92,5.65-.34,11.3-.56,16.95-.72,1.52-.04,1.88-.66,1.85-2.04-.07-2.98-.02-5.96-.02-8.94Zm41.05-66.02c-.05.38-.09.77-.14,1.15,1.51.51,2.98,1.3,4.53,1.49,6.79.84,13.6,1.57,20.42,2.22,2.62.25,3.9-.86,4.81-3.82-9.91-.35-19.76-.7-29.62-1.04Zm-61.37,78.85v3.57c.81,0,1.47.05,2.12,0,5.32-.45,10.64-.93,15.96-1.39,2.36-.2,2.56-.51,1.8-3.08-6.61.3-13.26.6-19.88.9Zm32.66-.58c-.09-.38-.17-.76-.26-1.15-3.01.16-6.02.31-9.03.49-2.22.14-2.39.45-1.58,3.09,3.61-.81,7.24-1.62,10.87-2.44Z"/></svg>