<?xml version="1.0" encoding="UTF-8"?><svg id="Layer_2" xmlns="http://www.w3.org/2000/svg" viewBox="0 0 278 300"><defs><style>.cls-1{fill:none;stroke:#be402d;stroke-miterlimit:10;stroke-width:.75px;}</style></defs><path class="cls-1" d="m123.41,72.72c-.46-.77-54.62-7.43-59.68-8.16-4.69-.68-9.42-1.36-14.14-.93-8.88.82-16.91,5.52-24.14,10.73-1.42,1.02-3.17,2.12-4.79,1.45-1.22-.5-1.84-1.84-2.32-3.07-7.33-18.71-7.52-40.12-.53-58.96.44-1.18,1.01-2.46,2.17-2.96,1.45-.62,3.07.28,4.38,1.16,5.91,3.95,11.88,8.17,18.81,9.77,9.68,2.24,19.67-.93,29.3-3.4,44.36-11.37,91.17-8.01,136.42-.92,9.13,1.43,19.27,2.81,26.95-2.34,2.36-1.58,4.48-3.77,7.27-4.26,3.34-.59,6.7,1.58,8.49,4.47s2.32,6.36,2.68,9.73c1.45,13.56.78,27.35-1.99,40.71-.2.95-.41,1.93-.92,2.76-1.41,2.34-4.7,2.87-7.32,2.11s-4.83-2.5-7.2-3.87c-13.68-7.95-30.82-3.34-46.3-.07-20.06,4.24-40.68,5.86-61.15,4.78-2.1-.11-4.42-.36-5.81-1.93-4.74-5.37,8.71-8.72,11.57-8.79,0,0,5.41-.64,6.31,7.47s0,56.8-2.7,61.31-7.21,21.64-.9,29.75,12.62,11.72,5.41,18.03-18.55,9.45-9.27,13.29,17.39,8.35,10.18,13.76-15.84,7.19-10.18,11.26,14.68,9.48,10.18,13.98-13.14,4.82-10.18,10.07,11.08,9.76,4.77,15.17c-6.31,5.41-6.83,7.91-4.77,9.37s-5.15.55-6.05-3.96,3.61-8.11,3.61-8.11c0,0-9.92-4.51-8.11-9.92s10.56-15.54,10.56-15.54c0,0-21.38-6.1-10.56-16.01l10.82-9.92s-17.13-9.92-12.62-16.23,13.52-14.58,13.52-14.58c0,0-11.72-6.15-8.11-39.06,0,0-2.71-16.68-2.71-32.01,0,0-.88-25.45-.9-26.14Z"/></svg>