<?xml version="1.0" encoding="UTF-8"?><svg id="Layer_2" xmlns="http://www.w3.org/2000/svg" viewBox="0 0 522 298.5"><defs><style>.cls-1{fill:none;stroke:#be402d;stroke-miterlimit:10;stroke-width:.75px;}</style></defs><path class="cls-1" d="m113.25,258.82c-6.43-1.67-12.09-4.63-16.54-9.66-5.48-6.2-7.96-13.66-9.28-21.64-1.73-10.43-.52-20.83.17-31.24,1.03-15.67,2.13-31.33,3.06-47,.54-9.03.5-18.11,1.28-27.11.99-11.33-2.24-21.15-9.7-29.49-3.23-3.6-4.22-7.34-4.14-12.08.37-20.42.36-40.84.5-61.26,0-.22.09-.44.18-.83.63-.12,1.29-.28,1.97-.36,3.45-.38,3.82.02,3.93,3.5.45,14.61.94,29.22,1.45,43.83.05,1.31.1,2.68.51,3.89.29.85,1.21,1.49,1.85,2.23.39-.75,1.09-1.49,1.11-2.24.11-3.4-.07-6.81.02-10.21.33-12.68.73-25.36,1.11-38.04.06-1.94,1.21-2.9,3.33-2.88,1.99.02,2.11,1.41,2.13,2.89.19,12.84.37,25.68.6,38.52.05,3.09.2,6.19.4,9.27.05.73.48,1.44.74,2.15.26-.03.52-.05.79-.08.13-1,.34-2,.36-3.01.33-15.31.66-30.63.93-45.94.04-2.05.57-3.45,2.79-3.81,2.04-.33,3.12.42,3.21,2.53.1,2.39.07,4.79.07,7.19.02,13.31,0,26.61.1,39.92,0,1.3-.81,3.64,1.68,3.53,2.26-.09,1.36-2.24,1.39-3.52.38-15.16.66-30.32,1.02-45.47.08-3.29.67-3.81,3.95-4.05,1.84-.13,2.9.51,3,2.57,1.03,20.48,1.94,40.95.83,61.46-.2,3.74-1.17,7.23-3.58,10.32-10.38,13.27-8.41,8.77-10.54,25.36-2,15.58-1.19,31.17.92,46.72,2.71,19.98,8.64,39.2,13.38,58.71,1.47,6.05,2.38,12.29,3,18.49.6,6.03-.82,11.69-5.71,16.51,1.93.24,3.47.53,5.02.62,14.15.84,27.42-2.85,40.38-7.96,9.8-3.87,19.09-8.77,27.99-14.42.71-.45,1.39-.94,2.21-1.49-4.84-2.61-9.58-5.02-14.18-7.68-16.57-9.58-31.32-21.31-42.65-36.92-17.39-23.95-21.74-50.43-14.6-78.87,4.16-16.54,10.45-32.41,21.1-45.81,26.95-33.92,62.36-49.87,105.73-47.5,26.22,1.43,49.6,10.65,69.08,28.19,17.21,15.5,28.41,35.14,34.46,57.5,6.59,24.36,4.39,48.19-6.12,71.07-10.49,22.85-25.43,42.38-45.43,57.79-9.64,7.43-20.09,13.41-32.29,15.51-16.97,2.92-29.75-3.96-36.67-19.79-1.84-4.21-3.04-8.7-4.67-13.45,1.34.08,2.09.12,2.84.18,15.32,1.07,30.27-.55,44.61-6.3,20.06-8.04,33.6-22.47,40.73-42.76,6.7-19.05,8.42-38.64,4.62-58.5-4.66-24.39-19.26-40.42-42.41-48.79-14.8-5.35-30.14-6.49-45.72-5.27-8.5.66-16.93,1.84-24.91,4.98-12.59,4.95-22.45,13.53-30.67,24.04-12.76,16.32-19.13,34.8-18.21,55.62.78,17.55,8.14,32.5,18.58,46.14,8.28,10.83,18.47,19.3,31.36,24.18,1.44.55,2.93.97,4.39,1.46,3.14,1.05,4.15,2.94,2.58,5.86-1.3,2.41-2.92,4.81-4.91,6.67-4.56,4.26-9.44,8.19-14.34,12.38,1.66.76,3.49,1.67,5.36,2.46,26.89,11.36,54.92,17.77,84.07,19.3,19.9,1.05,39.57-.16,58.81-5.72,10.4-3.01,20.19-7.31,28.67-14.23.41-.34.79-.72,1.31-1.18-3.79-6.44-4.07-13.63-3.8-20.69.57-15.29,1.64-30.57,2.55-45.85.43-7.18.83-14.36,1.56-21.51.53-5.21-1.45-10.05-1.72-15.07-.73-13.58-1.45-27.19-1.43-40.79.02-15.23.69-30.47,1.4-45.69.33-7.18,2.62-13.89,7.92-19.05,2.43-2.36,5.45-4.12,8.2-6.15.22.18.45.37.67.55,0,.66.01,1.31,0,1.97-.31,17.63-.88,35.27-.86,52.9.01,14.3.71,28.6,1.12,42.91.09,3.25.25,6.49.37,9.74.11,2.76-.2,5.34-1.01,8.1-1.31,4.46-2.02,9.28-1.93,13.93.27,13.52,1.1,27.04,1.63,40.56.24,6.09.82,12.24.33,18.28-.73,9-4.88,16.67-11.07,23.21-.85.9-1.74,1.75-2.73,2.75,1.97,2.87,4.7,4.66,7.81,5.91,5.27,2.12,10.82,2.46,16.42,2.23,11.27-.48,22.22-2.9,32.98-6.06,11.85-3.48,23.45-7.97,35.44-10.83,15.61-3.73,31.42-6.77,47.28-9.22,19.85-3.07,5.59.2-16.97,3.45-18.27,2.63-35.88,7.8-53.34,13.69-13.48,4.55-27.23,8.24-41.5,9.41-4.14.34-8.35.27-12.5-.07-6.35-.51-12.04-2.73-16.2-7.85-17.92,14.25-39.01,18.9-61.03,20.78-18.28,1.57-36.48.51-54.56-2.42-21.52-3.49-42.38-9.31-62.25-18.43-1.66-.76-2.83-.68-4.39.32-15.65,10.09-32.31,17.86-50.65,21.64-7.77,1.6-15.6,2.21-23.5.91-.56-.09-1.29-.09-1.72.2-6.6,4.36-14.1,5.33-21.72,5.64-15.21.61-30.25-1.21-45.26-3.47-40.21-6.05-63.91-12.41-34.12-6.6,22.54,4.4,45.15,8.34,68.16,9.36,8.44.38,16.87.26,25.07-2.16,2.41-.71,4.68-1.88,7.01-2.84-.02-.23-.04-.45-.06-.68Zm112.39-42.75c2.1,5.38,3.61,10.43,5.97,15.07,6.76,13.3,18.4,19.08,33.19,16.88,11.05-1.64,20.71-6.59,29.67-12.96,20.63-14.66,35.89-33.91,47.03-56.45,13.46-27.22,15.04-55.28,4.87-83.91-3.54-9.96-8.87-18.96-14.6-27.84-7.13-11.05-15.84-20.36-26.69-27.66-25.37-17.07-53.41-23.53-83.48-19.05-42.16,6.28-73.68,27.97-92.27,67.02-7.05,14.8-11.57,30.33-12.07,46.81-.66,21.44,5.8,40.68,18.75,57.72,14.49,19.07,33.71,32.05,54.97,42.32.62.3,1.84.09,2.42-.35,4.23-3.24,8.54-6.41,12.49-9.98,2.31-2.09,4.27-4.7,5.89-7.38,1.77-2.92.83-4.27-2.34-5.53-4.73-1.87-9.57-3.63-13.95-6.16-12.43-7.17-21.37-17.82-28.85-29.9-9.3-15.02-13.05-31.29-11.26-48.78,1.97-19.23,10.16-35.69,23.29-49.7,8.92-9.51,19.18-17.22,32.16-20.12,7.28-1.63,14.76-2.7,22.21-3.24,14.24-1.03,28.28.5,41.82,5.27,23.53,8.29,38.44,24.39,43.51,49.03,3.25,15.78,2.34,31.55-1.01,47.21-2.78,12.96-7.86,24.89-16.42,35.15-11.67,13.98-26.98,21.57-44.55,25.09-9.84,1.97-19.78,2.28-30.75,1.43ZM79.25,53.5h-.26c0,10.29.07,20.58-.05,30.86-.02,2.17.55,3.8,1.99,5.39,8.45,9.35,12.95,19.95,11.77,32.97-1.16,12.85-1.22,25.8-1.99,38.69-.89,14.98-2.06,29.93-3.05,44.9-.63,9.53-.61,19.03,2.13,28.31,3.49,11.84,10.72,19.99,22.95,23.27,1.43.38,2.53.23,3.2-.94,1.44-2.51,3.54-5.04,3.85-7.73.56-5,.8-10.28-.2-15.17-2.47-12.02-5.63-23.9-8.69-35.79-6.9-26.76-10.74-53.78-7.68-81.5.9-8.15,2.37-15.9,8.55-21.88,4.63-4.49,5.89-10.18,5.83-16.31-.15-16.01-.34-32.02-.57-48.02-.05-3.17-.33-6.33-.51-9.5-.08-1.42-.78-2.19-2.24-1.89-1.32.27-3.12-.15-3.17,2.14-.06,2.71-.28,5.41-.33,8.11-.24,13.15-.44,26.3-.66,39.44-.03,1.59,0,3.25-2.24,3.34-2.24.09-2.37-1.44-2.39-3.12-.07-7.04-.21-14.08-.23-21.11-.03-8.82.08-17.64.05-26.45,0-2.52-1.67-3.48-3.53-2.06-.57.44-.84,1.57-.86,2.4-.35,14.69-.64,29.39-.96,44.08-.03,1.39-.04,2.8-.31,4.15-.12.6-.88,1.07-1.34,1.6-.57-.53-1.47-.98-1.64-1.62-.34-1.33-.36-2.75-.39-4.14-.31-14.85-.59-29.7-.91-44.54-.02-.97.45-2.41-1.35-2.34-1.39.05-2.45.38-2.5,2.25-.17,6.57-.59,13.13-.74,19.71-.22,9.51-.24,19.02-.49,28.53-.03.98-.94,2.6-1.69,2.75-1.49.31-2.53-.83-2.68-2.48-.28-3-.72-6-.81-9.01-.38-13.14-.69-26.29-.92-39.43-.04-2.06-.79-2.68-2.73-2.72-2-.04-2.22.99-2.21,2.61.04,10.75.02,21.5.02,32.25Zm293.08,181.7c.68-.63,1.2-1.07,1.69-1.55,8.7-8.66,12.85-19.15,12.27-31.4-.36-7.57-1.25-15.11-1.52-22.67-.4-11.12-.65-22.25-.58-33.37.02-3.47,1.28-6.94,1.97-10.41.24-1.18.74-2.37.71-3.54-.45-15.38-1.33-30.75-1.39-46.13-.07-20.41.49-40.82.78-61.23.01-.72,0-1.45,0-2.17-.2-.13-.4-.27-.6-.4-2.21,1.62-4.62,3.03-6.58,4.9-6.12,5.81-8.08,13.45-8.37,21.48-.6,16.38-1.21,32.77-1.2,49.15,0,12.04.92,24.08,1.6,36.11.22,3.8,2.04,7.31,1.69,11.33-1.13,12.7-1.91,25.43-2.88,38.15-.98,12.88-2.03,25.75-1.1,38.68.32,4.47.73,8.96,3.51,13.08Z"/><path class="cls-1" d="m225.64,216.07c10.97.85,20.91.54,30.75-1.43,17.57-3.52,32.88-11.11,44.55-25.09,8.56-10.26,13.64-22.19,16.42-35.15,3.36-15.66,4.26-31.44,1.01-47.21-5.08-24.63-19.98-40.74-43.51-49.03-13.54-4.77-27.58-6.3-41.82-5.27-7.45.54-14.92,1.61-22.21,3.24-12.98,2.9-23.25,10.61-32.16,20.12-13.13,14.01-21.32,30.47-23.29,49.7-1.79,17.49,1.96,33.76,11.26,48.78,7.47,12.08,16.41,22.72,28.85,29.9,4.38,2.53,9.22,4.29,13.95,6.16,3.18,1.25,4.12,2.61,2.34,5.53-1.63,2.68-3.58,5.29-5.89,7.38-3.95,3.57-8.25,6.74-12.49,9.98-.58.44-1.8.65-2.42.35-21.27-10.27-40.49-23.26-54.97-42.32-12.95-17.04-19.41-36.27-18.75-57.72.5-16.48,5.03-32.01,12.07-46.81,18.59-39.05,50.11-60.73,92.27-67.02,30.07-4.48,58.11,1.98,83.48,19.05,10.86,7.31,19.56,16.62,26.69,27.66,5.73,8.88,11.06,17.88,14.6,27.84,10.17,28.64,8.59,56.7-4.87,83.91-11.14,22.53-26.4,41.79-47.03,56.45-8.96,6.37-18.62,11.32-29.67,12.96-14.79,2.19-26.43-3.59-33.19-16.88-2.36-4.63-3.87-9.69-5.97-15.07Z"/><path class="cls-1" d="m79.25,53.5c0-10.75.02-21.5-.02-32.25,0-1.62.21-2.65,2.21-2.61,1.94.04,2.7.66,2.73,2.72.23,13.15.54,26.29.92,39.43.09,3.01.53,6,.81,9.01.15,1.65,1.19,2.79,2.68,2.48.74-.15,1.66-1.77,1.69-2.75.25-9.51.27-19.02.49-28.53.15-6.57.58-13.14.74-19.71.05-1.87,1.11-2.2,2.5-2.25,1.8-.07,1.33,1.37,1.35,2.34.32,14.85.59,29.7.91,44.54.03,1.39.05,2.81.39,4.14.16.64,1.07,1.08,1.64,1.62.47-.53,1.22-1,1.34-1.6.27-1.35.28-2.76.31-4.15.32-14.69.61-29.39.96-44.08.02-.82.28-1.96.86-2.4,1.86-1.42,3.52-.46,3.53,2.06.03,8.82-.07,17.64-.05,26.45.02,7.04.17,14.08.23,21.11.02,1.67.15,3.2,2.39,3.12,2.23-.09,2.21-1.75,2.24-3.34.22-13.15.42-26.3.66-39.44.05-2.71.28-5.41.33-8.11.05-2.29,1.85-1.87,3.17-2.14,1.46-.3,2.16.47,2.24,1.89.18,3.17.46,6.33.51,9.5.23,16.01.42,32.02.57,48.02.06,6.13-1.2,11.82-5.83,16.31-6.18,5.99-7.64,13.73-8.55,21.88-3.06,27.72.77,54.73,7.68,81.5,3.07,11.89,6.22,23.77,8.69,35.79,1,4.88.76,10.16.2,15.17-.3,2.69-2.41,5.22-3.85,7.73-.67,1.17-1.77,1.33-3.2.94-12.23-3.27-19.46-11.43-22.95-23.27-2.73-9.28-2.75-18.78-2.13-28.31.99-14.97,2.16-29.93,3.05-44.9.77-12.89.83-25.84,1.99-38.69,1.18-13.02-3.32-23.61-11.77-32.97-1.44-1.59-2.02-3.22-1.99-5.39.12-10.29.05-20.58.05-30.86h.26Z"/><path class="cls-1" d="m372.32,235.2c-2.79-4.12-3.19-8.61-3.51-13.08-.94-12.93.12-25.8,1.1-38.68.97-12.72,1.75-25.45,2.88-38.15.36-4.02-1.47-7.54-1.69-11.33-.68-12.03-1.6-24.07-1.6-36.11-.01-16.38.59-32.78,1.2-49.15.3-8.03,2.26-15.67,8.37-21.48,1.97-1.87,4.38-3.28,6.58-4.9.2.13.4.27.6.4,0,.72,0,1.45,0,2.17-.29,20.41-.85,40.82-.78,61.23.05,15.38.94,30.75,1.39,46.13.03,1.17-.47,2.36-.71,3.54-.7,3.47-1.95,6.94-1.97,10.41-.07,11.12.18,22.25.58,33.37.28,7.57,1.17,15.11,1.52,22.67.58,12.25-3.57,22.74-12.27,31.4-.48.48-1,.93-1.69,1.55Z"/></svg>