<?xml version="1.0" encoding="UTF-8"?><svg id="Layer_2" xmlns="http://www.w3.org/2000/svg" viewBox="0 0 604 540"><defs><style>.cls-1{fill:#1b1464;}</style></defs><path class="cls-1" d="m886.33,492.21c1.41,0,2.82.16,4.23.25-.02.33-.05.65-.07.98M245.51,97.73c-.24.39-.68.78-.68,1.17-.06,9.54,2.93,18.3,7.25,26.79.1-5.11-.32-10.16-.79-15.21-.04-.41-.36-.93-.71-1.16-4.27-2.77-5.16-7.02-5.18-11.69.95-.81,1.9-1.62,2.91-2.48.35-3.59.4-7.5,1.18-11.26,1.1-5.3,3.66-9.66,9.58-10.9,6.67-2.69,12.87-1.39,17.32,3.89,3.07,3.64,4.64,8.55,6.86,12.9.41.81.61,2.33,1.09,2.4,3.14.49,3.79,2.68,3.51,5.16-.26,2.28-.96,4.55-1.75,6.72-.61,1.67-1.66,3.18-2.49,4.77-.75,1.45-1.32,3.03-2.22,4.38-2.63,3.94-6.14,6.76-10.81,8.08,2.35-.44,4.46-1.33,6.6-2.18,1.32-.52,2.67-.96,4-1.44.5,1.49,1.24,2.95,1.45,4.48.45,3.37.22,6.87,1.01,10.14,1.78,7.35,10.67,13.21,17.03,11.41-6.02-4.41-8-10.6-8.44-17.6-.46-7.28-.91-14.58-1.78-21.83-1.07-8.83-3.26-17.45-8.52-24.8-2.14-2.99-4.95-5.75-8.01-7.78-4.64-3.08-11.98-2.08-14.84,1.29-5.21-1.56-7.1-.94-9.4,4.14-1.63,3.6-2.91,7.44-3.73,11.31-.64,2.99-.32,6.19-.42,9.29Zm33.08,370.08c.43-4.05,2.07-5.47,6.6-4.78,5.57.86,9.73-2.56,10.74-7.49.21-1-.25-2.14-.4-3.21-1.19.24-2.6.15-3.51.79-2.2,1.54-4.06,3.58-6.26,5.13-2.2,1.56-4.65,2.77-7.15.58v8.98c.47,5.61,1.24,11.21,1.34,16.83.12,6.95-1.67,8.66-8.54,9.3-.29,1.36-.6,2.78-.91,4.22h92.14c0-4.99-.54-9.76.1-14.37,2.15-15.45-.74-30.5-2.75-45.67-1.54-11.65-2.69-23.37-3.68-35.08-.24-2.82.29-6.02,1.46-8.59,2.25-4.92,2.59-9.91,2.44-15.16-.11-3.66.45-7.33.74-11.4-3.9-1.33-5.97-5.36-7.5-9.55-2.42-6.62-4.62-13.34-6.51-20.13-3.32-11.91-6.33-23.91-9.47-35.87.35,4.78,1.36,9.42,2.32,14.08.32,1.59,1.26,4.07.6,4.65-2.16,1.91-2.25,4.24-2.75,6.67-.45,2.17-1.97,2.86-3.97,1.49-3.2-2.19-6.29-4.56-9.59-6.59-2.31-1.42-4.32-3.19-3.29-5.84.52-1.34,2.97-1.92,4.54-2.85.19-.11.35-.28-.06.06.13-2.75.23-4.99.33-7.23-2.89,3.92-5.51,7.96-7.38,12.33-1.55,3.62-4.39.9-6.33,1.98-.55-1.4-1.35-2.75-1.56-4.2-.2-1.35.34-2.79.37-4.2.07-3.13.02-6.26.02-9.39-1.24,1.51-1.36,3.13-2.09,4.4-.62,1.08-1.93,1.76-2.94,2.62-.58-1.15-1.65-2.3-1.64-3.45.02-4.23.4-8.46.64-12.7.75-1.96,1.38-3.99,2.28-5.88,5.34-11.37,6.6-23.22,4.22-35.48-1.57-8.08-3.62-16.09-4.75-24.22-.79-5.71-1.98-11.75,1.56-16.89-1.85-.54-3.8-1.1-5.83-1.69,0,.57-.1,1.38.02,2.16,1.39,9.17,2.33,18.45,4.34,27.48,3.75,16.88,6.18,33.57-1.13,50.16-.58,1.32-.43,2.96-.62,4.46-.29.44-.73.84-.85,1.32-1.76,7.32-1.53,14.64-.5,22.09.78,5.67,1.07,11.49.77,17.2-.31,5.85-1.49,11.67-2.48,17.47-1.11,6.5-.84,12.86.88,19.24.57,2.1,1.03,4.61.41,6.58-2.04,6.53-1.43,13.05-.8,19.62.83,8.66.19,17.13-2.82,25.4-1.23,3.37-2.44,7-2.45,10.52-.02,6.55.55,13.15,1.42,19.65,1.41,10.49-.31,20.09-6.6,28.77-1.62,2.24-3.27,1.99-5.08.63-3.44-2.6-5.28-6.18-6.25-10.33-.37-1.57-1.2-3.04-1.79-4.58Zm3.64-332.42c-.49-5.41-.98-10.82-1.46-16.18-.53-.05-.82-.17-.98-.07-.7.42-1.35.92-2.05,1.35-5.36,3.24-10.82,2.85-16.14.08-1-.52-1.34-2.3-1.98-3.51,1.13.19,2.41.1,3.37.62,3.32,1.8,6.77,2.33,10.18.77,4.73-2.16,7.79-5.93,9.3-10.95.36-1.21.51-2.85,1.37-3.49,2.89-2.17,2.38-5.17,2.4-8.04,0-.64-.79-1.88-1.14-1.85-2.91.25-2.76-2.03-3.2-3.72-1.45-5.58-3.7-10.59-8.38-14.35-6.5-5.23-21.08-3.62-22.78,8.7-.38,2.79-.53,5.62-.69,8.44-.14,2.31.23,4.87-3.19,4.76-.05,4.3,1.02,7.69,4.48,10.16.88.63,1.49,2.2,1.53,3.37.2,5.61.16,11.23.22,16.85,0,.69-.1,1.49.2,2.06,1.95,3.75,3.69,7.66,6.1,11.11,3.07,4.39,5.06,4.19,8.59.24,2.58-2.89,5.16-5.83,8.11-8.32,3.08-2.6,4.67-1.91,6.14,1.96.49,1.55,1.35,3.1,1.37,4.66.04,2.23-.54,4.47-.85,6.71-1.98-.79-4.16-1.27-5.9-2.42-4.39-2.9-5.49-2.81-8.45,1.62-2.81,4.21-5.27,4.66-8.86,1.21-2.37-2.28-4.3-1.92-6.36.16-.5.5-.95,1.04-1.43,1.56-2.92,3.19-4.58,2.93-6.44-1.03-.35-.74-.63-1.52-.92-2.29-1.9-4.99-4.79-6.68-9.87-5.03-2.59.84-5.25,2.31-7.18,4.21-7.86,7.74-13.13,16.99-13.96,28.19-.77,10.45-1.16,20.94-1.56,31.41-.06,1.67.52,3.47,1.21,5.03.31.69,1.64,1.32,2.49,1.29,3.23-.09,6.46-.67,9.69-.66,7.1.03,7.22.14,7.72-7.21.44-6.46.52-12.95.89-19.42.07-1.2.71-2.36,1.21-3.96.76.88,1.1,1.11,1.19,1.41.22.78.44,1.6.45,2.4.25,13.55.54,27.09-2.85,40.4-.48,1.9-.59,3.98-.42,5.94.23,2.48,1.02,4.65,4.46,3.6,1.18-.36,2.6-.17,3.86.04,15.43,2.63,30.86,5.29,46.28,8,1.36.24,2.65.85,3.97,1.29-.05.34-.11.69-.16,1.03-1.56.08-3.13.3-4.69.23-16.89-.73-33.51-3.3-49.84-7.58-2.33-.61-4.02-.27-5.25,1.51-1.59,2.3-3.1,4.71-4.24,7.25-5.36,11.96-9.37,24.23-7.2,37.61,1.81,11.15,3.2,22.41,5.8,33.38,4.65,19.66,8.18,39.46,9.02,59.64.51,12.23-.02,24.51.57,36.73.94,19.41,2.27,38.81,3.8,58.18.49,6.18,2.21,12.25,3.26,18.39.58,3.37,2.51,4.37,5.73,4.12,2.84-.22,5.2.55,5.11,4.22-.02.68.48,1.61,1.04,2.04,4.75,3.6,13.3.76,14.9-4.89.28-.98.67-1.94,1-2.88,5.2,1.35,7.21-.09,7.64-5.26.06-.7.13-1.42.08-2.12-.91-14.46-1.48-28.95-2.86-43.36-.95-9.94-3.58-19.72-4.51-29.67-2.13-22.75-3.78-45.55-5.41-68.35-.8-11.15-1.18-22.34-1.59-33.51-.07-1.78.69-3.59,1.07-5.38.52,0,1.03.01,1.55.02.53,2.79,1.35,5.56,1.55,8.37.75,10.69,1.23,21.4,1.94,32.1,1.25,18.92,2.58,37.82,3.88,56.74.32,4.7.56,9.4,1.02,14.09,1.33,13.43,5.97,26.5,4.48,40.25-.03.23.03.47.04.7.16,2.37,1.57,2.89,3.37,1.86,2.02-1.15,3.78-2.77,5.75-4.04,2.33-1.51,4.75-2.87,7.91-4.76-.25-1.97-1.02-5.11-.96-8.23.12-5.47-.39-11.35,1.42-16.3,3.35-9.14,4.33-18.22,3.41-27.74-.59-6.09-1.19-12.16.78-18.22.62-1.89.5-4.31-.08-6.25-2.26-7.55-2.11-15.03-.66-22.7,2.17-11.49,3.3-22.95,1.2-34.74-1.06-5.97-.24-12.42.55-18.55.66-5.09,2.36-10.08,3.89-15.02,2.3-7.4,3.75-14.84,2.27-22.6-1.01-5.32-1.81-10.69-3.12-15.94-4.33-17.29-5.75-34.84-5.19-52.59.12-3.85.7-7.61,3.37-10.82.45,1.63.52,3.22.44,4.79-.35,6.82-.97,13.63-1.04,20.46-.04,4.47,1.25,5.35,5.67,5.02,3.76-.28,7.5-.89,11.26-1,5.29-.15,5.63-.27,6.42-5.61,1.29-8.78,1.88-17.55,0-26.35-2.28-10.74-3.99-21.83-12-30.08-6.24-6.44-13.29-12.09-19.98-18.1-.31.19-.61.38-.92.57,1.25,2.98,2.24,6.11,3.83,8.9,1.65,2.89,3.88,5.44,5.36,7.46-6.16,1.34-14.04-1.75-18.37-8.03-.55-.81-1.4-1.41-2.09-2.14Zm-169.24,99.6c19.33,1.35,38.18-2.97,56.3-6.77-1.52,1.7-3.19,2.88-5.04,3.59-12.69,4.87-25.92,6.91-39.44,7-12.23.08-24.23-1.1-35.13-10.02-.89,5.29-1.95,9.96-2.39,14.68-.57,6.09-.38,12.26-.99,18.34-.9,9-.2,17.83,3.77,25.9,5.33,10.86,6.57,22.2,6.11,34.02-.33,8.47.96,16.66,5.34,24.17,2.37,4.07,2.93,8.54,2.99,13.26.05,4.66.48,9.42,1.59,13.93,5.63,22.97,11.5,45.89,17.36,68.81.74,2.91,1.93,5.7,2.91,8.55,1.03-.86,1.32-1.52,1.34-2.19.38-11.16,1.08-22.32,1.03-33.48-.18-40.53-.62-81.06-.92-121.6-.01-1.95.36-3.89.55-5.84.49-.08.97-.15,1.46-.23.5,1.82,1.3,3.62,1.44,5.46.56,7.87,1.28,15.75,1.28,23.62,0,12.48-.79,24.97-.75,37.45.07,25.09.83,50.19.52,75.28-.11,8.87.54,17.88-4.24,26.6-3.37,6.15-3.81,14-4.98,21.19-.4,2.44.59,5.34,1.71,7.65.37.75,3.18.32,4.87.43.47.03.94.09,1.41.1,4.95.14,9.89.26,14.84.42,3.54.11,5.37-1.46,6.65-4.93,4.04-11.03,5.37-22.63,7.95-33.97,3.95-17.33,2.94-34.9,3.92-52.36.5-8.93-.04-17.92.62-26.82.65-8.77,2.61-17.44,3.27-26.22.72-9.54,2.78-18.57,7.01-27.17,1.44-2.93,2.76-6.08,3.29-9.28,2.09-12.65,4.36-25.31,5.59-38.07,1.15-11.97,1.14-24.04-6.2-34.71-1.74-2.54-1.88-5.68.11-8.34,2.76-3.69,2.35-7.39.71-11.33-.65-1.57-1.62-3.82-1-4.98,2.33-4.36.9-8.49.07-12.71-4.17-21.29.9-41.42,7.97-61.22,1.08-3.02,3.92-5.4,5.91-8.1.47-.63.96-1.29,1.2-2.02,1.72-5.16.18-8.15-5.8-11.09-10.14-4.98-20.33-9.85-30.46-14.85-4.11-2.03-4.84-1.7-5.11,2.84-.21,3.52-.1,7.1-.71,10.55-.73,4.15-3.42,4.86-6.52,2.06-1.6-1.45-3.19-2.92-4.81-4.4-.94,1.82-5.07-2.63-5.62-1.23-.46,1.18-6.99,3.75-7,5m221.58,135.76c-2.37,6.4-4.85,13.23-7.44,20.02-3.53,9.26-4.94,19.04-2.77,28.5,4.57,19.94,10.16,39.65,15.55,59.39.78,2.87,2.61,5.52,4.24,8.09,1.74,2.75,4.06,3.21,6.92,1.27,1.73-1.17,3.68-2.32,5.68-2.73,9.89-2.01,19.86-2.57,29.82-.54,4.94,1.01,5.81.87,7.5-3.99,1.98-5.66,3.26-11.56,5.31-17.19,11.33-31.12,7.88-61.81-2.31-92.37-.23-.7-.44-1.52-.31-2.21.35-1.75,1.14-3.43,1.32-5.19,1.67-15.69,3.24-31.39,4.91-47.08.13-1.24.85-2.42,1.3-3.62l1.1.14c.2,2.17.65,4.34.56,6.5-.3,7.3-.77,14.59-1.21,21.88-.6,9.86-1.9,19.71.52,29.55,2.31,9.38,4.57,18.77,6.47,28.24.86,4.31.84,8.81,1.15,13.23.16,2.23-.08,4.5.3,6.68.3,1.69,1.64,3.48,3.48,1.95,4.32-3.62,9.04-5.29,15.19-3.88-1.25-3.18-2.79-5.68-3.18-8.35-1.48-10.24-3.15-20.51-3.72-30.82-1.13-20.59-1.22-41.23-2.51-61.81-.49-7.76-2.41-15.62-4.93-23-3.13-9.17-11.55-13.02-20.4-17.27.26,2.21.63,3.59.53,4.93-.19,2.66-.26,5.44-1.09,7.93-1.12,3.34-2.89,3.44-4.83.49-3.16-4.8-7.29-9.25-6-15.89-1.02,1.56-1.48,3.15-2.34,4.5-2.06,3.25-3.87,6.82-6.56,9.47-5.17,5.09-13.92,1.9-15.59-5.22-.64-2.73-1.9-5.31-2.88-7.96-.03,6.36-4,10.23-7.75,14.15-.67.7-2.03.73-3.07,1.07-.33-1.07-1.1-2.22-.91-3.18.5-2.52,1.45-4.95,2.16-7.43.51-1.79.93-3.61,1.26-4.94-4.85,1.96-9.41,3.97-14.09,5.68-10.73,3.93-16.8,11.28-17.26,22.9-.32,8.12-.64,16.24-.93,24.36-.58,16.48-1.13,32.97-1.72,49.45-.49,13.53-.92,27.07-1.6,40.59-.3,5.95-1.15,11.87-1.77,18.1h10.42c-.15-1.13-.27-2.25-.46-3.36-1.6-9.41-3.53-18.82-1.56-28.41,1.21-5.88,2.44-11.76,3.97-17.56,7.47-28.28,10.18-56.71,3.2-85.53-.32-1.32-.04-2.78-.04-4.17.32-.09.65-.18.97-.27.79,1.22,1.85,2.34,2.33,3.67,1.11,3.09,2.44,6.23,2.8,9.45.81,7.23,1.44,14.52,1.49,21.78.07,11.19-.44,22.38-.61,33.57-.02,1.55-.8,3.61,2.13,3.93,9,.96,17.97,2.29,26.99,3.1,3.31.3,6.72-.53,10.08-.77,6.06-.42,12.13-.81,18.2-1.12.66-.03,1.35.51,2.02.79-1.36,1.05-2.66,1.39-3.99,1.59-6.15.94-12.34,1.63-18.44,2.81-4.49.87-8.75.95-13.24-.16-4.66-1.15-9.5-1.54-14.26-2.25-3.21-.48-6.42-.96-10.08-1.5Zm-143.92,22.6c-.24-.04-.48-.08-.72-.12-.22.7-.54,1.38-.63,2.1-1.3,10.61-2.55,21.22-3.85,31.83-.13,1.04-.23,2.22-.79,3.03-.67.97-1.81,1.6-2.75,2.38-.63-.91-1.76-1.79-1.83-2.75-.85-11.19-3.19-22.63,4.74-32.57.62-.77.98-1.74,1.48-2.66-5.88-1.86-6.7-2.67-6.83-8.82-.27-12.69-2.03-25.08-6.09-37.15-1.53-4.56-2.66-9.28-3.59-14.01-1.51-7.67-2.69-15.41-4.01-23.12-.44.08-.89.15-1.33.23.62,3.33,1.38,6.65,1.82,10.01.25,1.92.48,4.12-.2,5.82-1.07,2.67-.89,4.94.24,7.44,1.72,3.84,2.26,7.81-.42,11.42-2.28,3.08-1.93,6.06.07,8.81,4.22,5.81,5.08,12.53,5.87,19.34,1.4,12.01-1.34,23.7-2.58,35.5-1.19,11.3-3.93,22.1-8.61,32.61-2.76,6.19-3.46,13.36-4.63,20.16-.86,4.97-.88,10.08-1.44,15.11-.81,7.24-2.2,14.44-2.55,21.69-.46,9.52.4,19.11-.29,28.61-1.1,15.1-.66,30.28-4.39,45.27-2.43,9.78-3.85,19.83-7.16,29.43-2.15,6.22-3.45,7.12-9.96,6.85-4.96-.2-9.93-.04-14.89-.04,1.66.43,3.36.77,5.08.87,4.7.27,9.43.23,14.11.69,3.87.38,5.05,2.03,5.04,5.9,0,.92-.11,1.83-.18,2.87h98.86c.12-.41.23-.83.35-1.24-1.4-.46-2.81-1.35-4.18-1.3-3.83.16-6.01-1.39-6.72-5.15-.98-5.2-2.48-10.35-2.94-15.59-.91-10.32-1.23-20.69-1.83-31.03-.89-15.28-2.56-30.56-2.52-45.84.06-17.98-.77-35.83-3.89-53.5-2.6-14.72-6.04-29.28-9.06-43.93-4-19.38-4.14-38.41,5.57-56.42,1.69-3.14,3.83-6.05,6.03-9.49-.41-1.68-1.02-4.15-1.61-6.59-.09.07-.34.18-.4.36-4.22,11.11-8.73,22.12-12.55,33.37-3.81,11.22-4.77,22.48-.64,34.22,1.86,5.29.82,11.62.94,17.48.01.72-.96,2.08-1.42,2.06-.86-.04-2.04-.68-2.45-1.43-.81-1.46-1.19-3.15-1.78-4.85-2.88,6.74,3.42,10.48,5.18,15.8-6.87-.18-12.53-2.22-14.01-9.33-.85-4.11-1.21-8.42-1.1-12.62.28-10.58.95-21.14,1.46-31.72Zm194.8,205.61c.43,1.32,1.35,2.87,1.37,4.45.1,5.69-4.78,10.29-10.71,10.39-5.58.09-10.37-4.2-9.84-10.12.7-7.8,2.45-15.51,3.83-23.25,1.26-7.05,3.75-14.08,3.73-21.11-.05-15.13-1.37-30.25-2.17-45.38,0,1.87-.2,3.82-.41,5.77-1.83,17.09-3.6,34.19-5.51,51.27-1.77,15.81-1.92,31.49,2.84,46.9.8,2.58,1.99,3.62,4.95,3.6,25.45-.15,50.91-.09,76.36-.08,1.34,0,2.68,0,3.48,0,0-2.88-.2-5.3.04-7.69.57-5.74,1.64-11.44,1.99-17.19,1.17-19.03-1.15-37.87-3.29-56.73-1.57-13.81-2.76-27.63-1.03-41.58.91-7.34.98-14.79,1.3-22.19.04-1.02-.59-2.09-.99-3.1-.75-1.91-1.98-3.74-2.27-5.71-1.01-6.87-1.67-13.79-2.55-20.69-.24-1.85-.66-3.7-1.22-5.49-1.61-5.13-3.74-10.14-4.92-15.36-2.2-9.72-3.86-19.55-5.82-29.71-5.96,1.88-6.33-2.31-7.43-5.84.64,5.59,1.99,11.01,2.29,16.5.25,4.55,5.95,8.14,2.17,13.24-.03.03.16.19.17.29.43,3.94,1.18,7.88,1.2,11.83.03,4.93-3.28,8.17-8.21,8.09-1.61-.02-3.2-1.53-4.79-2.35.93-1.19,1.68-2.6,2.83-3.53,1.65-1.34,3.58-2.33,5.53-3.55-3.62-1.91-6.51-3.73-9.62-5.01-6.84-2.83-8.34-7.92-7.25-14.7.43-2.7.01-5.64-.51-8.37-.96-5.09-2.1-10.16-3.49-15.15-4.27-15.36-6.32-30.86-4.1-46.82.81-5.82.8-11.75,1.13-17.63.07-1.18,0-2.37,0-3.56-.37,0-.74-.02-1.1-.03-1.29,15.23-2.56,30.47-3.89,45.7-.18,2.02-1.24,4.15-.83,6,1.62,7.32,3.87,14.5,5.5,21.81,3.27,14.67,5.91,29.6,2.83,44.48-3.04,14.71-7.6,29.11-11.56,43.63-.33,1.22-1.07,2.36-1.76,3.45-1.41,2.23-3.13,2.97-5.96,2.15-8.15-2.36-16.47-1.81-24.98-.9,7.87.89,15.48,1.64,23.06,2.66,5.42.73,5.77,1.33,6.04,6.63.09,1.76.23,3.55.65,5.26,3.23,13.26,2.31,26.4-.81,39.53-4.01,16.88-7.67,33.79-4.82,51.36.4,2.46-.9,5.19-1.43,7.83Zm97.02-329.1c-.34.75-.6,1.53-.9,2.3-.87,2.22-2.29,2.53-4.12,1.12-1.68-1.29-3.28-2.69-4.96-3.98-4.25-3.24-9.93-13.18-9.72-14.26-5.12,2.87-9.74,5.81-14.66,8.12-5.62,2.64-9.1,6.89-11.24,12.5-3.44,8.99-5.24,18.3-5.66,27.91-.55,12.47-1.12,24.95-1.83,37.41-.92,16.33-2.93,32.65-.35,49.01.9,5.69,1.39,5.98,6.63,3.64,1.03-.46,2.28-.56,3.43-.61,2.2-.09,4.4-.03,6.98-.03-.18-2.41-.13-4.29-.49-6.09-1.42-6.96-2.32-13.91-1.12-21.03,1.15-6.82,3.92-13.6.79-20.61-.18-.4-.08-.93-.08-1.4.06-6.91,0-13.83.23-20.74.24-7.18.74-14.34,1.18-21.51.06-.93.48-1.83.74-2.74.39,0,.79,0,1.18,0,.25,1.64.72,3.29.7,4.93-.06,5.3-.2,10.6-.48,15.89-.4,7.5.34,14.83,3.04,21.87.45,1.16,1.45,2.69,2.48,2.96,18.87,4.84,37.85,6.23,56.89,1.05,1.5-.41,3.5-2.21,3.69-3.58.67-4.95,1.16-10.02.81-14.99-.7-10.09-2.04-20.13-2.99-30.2-.14-1.47.38-3,.59-4.5.5-.04.99-.09,1.49-.13.45,1.54,1.17,3.06,1.29,4.62.49,6.1.16,12.33,1.29,18.3,2.6,13.76,2.73,27.65,2.93,41.53.07,4.55-.6,9.15-1.34,13.66-1.16,7.08-2.7,14.1-4.03,21.16-.71,3.76.31,4.99,4.21,5.8,1.68.35,3.54.79,4.86,1.79,2.7,2.05,3.9.64,4.65-1.68.83-2.57,1.36-5.24,1.96-7.88,4.93-21.86,9.14-43.65,6.8-66.41-1.66-16.12-4.17-31.92-8.54-47.49-1.99-7.1-5.66-12.72-12.43-15.8-5.61-2.55-11.42-4.66-17.15-6.97m-4.72,17.4,3.53.68M125.29,110.84s-.67.42-1.34.79c-3.4,1.85-4.51,1.46-5.73-2.17-1.27-3.79-2.69-7.56-3.54-11.46-.5-2.3-.54-4.97.13-7.2.9-2.98,2.81-3.24,5.01-1.02,1.74,1.75,2.98,4.03,4.84,5.6,2.55,2.15,5.24,4.51,8.29,5.57,4.12,1.43,15.34-7.22,16.26-12.65-2.11,1.59-3.7,2.82-5.31,4.02-6,4.47-14.46,4.45-18.76-.32-1.01-1.12-1.09-3.08-1.59-4.65,1.41.36,3.04.38,4.18,1.14,5.37,3.57,9.45,3.72,14.64-.06,6.19-4.51,10.04-10.48,10.82-18.25.08-.77.24-1.9.75-2.19,4.31-2.49,3.02-6.5,2.78-9.81-1.52-.88-3.13-1.87-3.42-3.15-1.03-4.65-1.49-9.42-2.45-14.09-.21-1.03-1.42-2.22-2.44-2.61-1.11-.43-2.55.04-3.84.02-6.72-.06-13.5.08-19.63-3.29-3.92-2.16-6.83-1.01-7.64,3.47-.37,2.06-.13,4.22-.17,6.34-.05,2.76-.82,5.16-3.43,7.08-.65-1.45-1.14-2.56-1.64-3.67-.23.07-.45.14-.68.21.48,2.07.97,4.15,1.47,6.33-1.13-.68-2.17-1.3-3.26-1.96-1.63,5.68.91,11.95,4.47,12.37.67,3.21,1.52,6.27,1.91,9.38.4,3.23,1.66,7.49.16,9.56-2.16,2.98-2.56,6.18-3.89,9.2-.67,1.52-1.86,3.13-3.26,3.97-5.32,3.22-10.89,6.03-16.24,9.22-5.34,3.19-10.56,6.58-15.73,10.03-1.04.7-1.61,2.09-2.6,3.42,6.09,1.07,8.65,5.21,10.01,9.93,1.26,4.37,1.59,9.01,2.34,13.54.83,4.98,1.44,10.01,2.58,14.91,1.86,7.96,3.56,15.85,2.02,24.1-.28,1.52.4,3.21.55,4.82.36,3.93,1.15,7.91.89,11.8-.35,5.29-3.12,9.75-6.3,13.97-2.52,3.33-2.14,4.6,1.01,7.02,1.09.84,2.75,1.88,2.84,2.94.34,3.85,3.46,4.61,5.95,6.12,4.75,2.88,8.18,1.09,14.71,1.82m258.41,134.71c-5.4.46-7.97,4.25-8.08,9.78-.03,1.64.42,3.31.26,4.93-.39,4.06-.92,8.12-1.53,12.16-.72,4.71-2.47,9.44-2.23,14.08.47,9.51,1.79,18.98,3.09,28.43,2.09,15.15,5.37,30.16,3.57,45.63-.57,4.9-.61,9.88-.62,14.82-.02,5.77,4.05,10.06,9.72,10.61,6.67.64,10.06-3.41,7.95-9.8-4.71-14.29-5.12-28.95-3.68-43.69,1.3-13.36,3.17-26.66,4.67-39.99,1.52-13.45,2.89-26.93,4.35-40.39.1-.94.39-1.85.59-2.78.3.05.6.09.9.14-.12,2.5-.33,5-.36,7.5-.19,17.3-1.14,34.62,1.29,51.86,1.66,11.81-2.51,22.78-5.06,34-1.32,5.81-2.09,11.8-2.5,17.75-.28,4.05,2.57,7.43,5.85,8.39,3.39.99,8.02-.34,9.97-3.63,1.14-1.92,1.07-4.56,1.55-6.88-1.83-.14-3.65-.3-5.48-.4-2.81-.15-5.63-.14-8.43-.41-.87-.08-1.68-.85-2.52-1.31.08-.29.16-.58.24-.88,3.66,0,7.35-.22,10.99.07,3.17.25,4.79-1.26,5.22-3.98.38-2.4.21-4.92.11-7.37-.16-3.88-.54-7.75-.69-11.63-.48-11.84,3.12-23.04,5.39-34.46,2.18-10.98,4.57-21.94,2.42-33.26-.83-4.39-1.68-8.85-1.77-13.29-.07-3.31-1.53-4.44-4.29-4.84M73.88,123.14c-.68,2.85-1.6,5.65-1.98,8.52-.98,7.51-2.59,14.79-5.72,21.76-1.72,3.83-3.21,7.9-3.95,12.02-2.64,14.54-4.39,29.26-7.49,43.7-2.22,10.33-1.5,20.15.2,30.39,1.45,8.74.99,17.8,1.21,26.72.1,4.15.72,4.85,4.42,3.52,4.85-1.74,9.51-2.46,13.67,2.31.21-1.1.35-1.65.42-2.2,1.42-11.79,2.57-23.61,4.32-35.35,2.65-17.8,5.38-35.61,8.74-53.29,1.64-8.65.49-16.52-2.79-24.41-.8-1.93-1.22-4.06-1.53-6.14-.97-6.52-2.04-13.03-2.6-19.59-.36-4.2-1.95-6.89-6.92-7.97Zm120.28,2.44c-9.86,20.07-14.62,40.33-13.6,61.82.1,2.19,1.02,4.33,1.53,6.5.91,3.88,1.87,7.75,2.67,11.65,1.25,6.09,1.87,12.36,3.68,18.27,3.76,12.23,6.41,24.57,6.36,37.42,0,1.41.12,2.83.34,4.22.48,3.03,2.64,4.56,5.83,4.31,2.98-.24,3-2.39,3.12-4.59.36-6.93.17-13.96,1.3-20.76,4-24.06,3.81-48.15.13-72.11-2.23-14.49-6.14-28.72-9.36-43.06-.24-1.05-1.05-1.97-2-3.67Zm292.66,362.13c-1.72-9.17-4.23-17.4-4.59-25.72-.51-11.71.4-23.51,1.06-35.24.43-7.63,1.8-15.21,2.2-22.84.92-17.36,1.5-34.73,2.22-52.12,1.25-.28,2.11-.47,2.97-.65-5.39-1.05-10.77-1.83-16.15-1.75-4.84.07-8.3-1.05-9.47-6.18-.02-.1-.32-.13-.49-.2l-.9.58c1.23,1.87,2.49,3.71,3.67,5.61.33.53.58,1.22.56,1.83-.1,5.53.26,11.14-.52,16.58-2.52,17.54-1.78,34.98.44,52.46,2.34,18.47,4.31,36.98,2.92,55.64-.34,4.63-1.07,9.24-1.68,14.3,6.34-.82,12.17-1.57,17.75-2.29Zm13.43-134.66c.11,1.22.19,2.47.35,3.71,1.39,10.27,2,20.49,1.39,30.93-.9,15.37-.83,30.82-.72,46.23.08,10.65-1.2,20.81-6.01,30.48-1.77,3.55-2.39,7.68-3.42,11.15h16.34c.2-.82.57-1.83.68-2.86.86-7.94,1.09-16.01,2.62-23.82,4.15-21.28,7.77-42.59,8.51-64.31.35-10.43.96-20.85,1.46-31.53h-21.21ZM110.53,230.87m402.37-132.65c-.55.1-1.11.21-1.66.31-.56-2.14-1.3-4.25-1.64-6.43-1.64-10.28-9.2-16.19-19.43-14.98-.7.08-1.36.78-1.96,1.29-4.55,3.9-5.41,9.77-7.87,14.79-.78,1.59-2.04,2.95-3.09,4.42-.29-.13-.58-.26-.88-.38-1.12,6.43,2.82,11.64,5.64,16.35,2.77,4.63,3.03,8.1.76,12.25-2.3,4.2-1.5,8,1.06,11.56,1.71,2.37,3.82,4.46,5.8,6.64,2.05,2.26,4.3,2.53,6.18-.05,3.59-4.92,6.99-9.98,10.47-14.97.83-1.2,1.7-2.37,2.5-3.47-.39-.46-1.35-1.18-1.73-2.13-.49-1.23-.53-2.64-.77-4.04-11.73,4.13-14.34,4.12-16.77-.38,1.6,0,2.96.03,4.32,0,5.86-.16,10.92-1.65,13.45-7.72.34-.82,1.41-1.55,2.31-1.87,3.4-1.23,5.4-4.03,5.33-8.17-1.15.12-2.28.24-3.6.39,4.67-5.68,4.88-13.18.28-21.04,1.73,6.4,3.68,11.97,1.29,17.63Zm-22.95,254.96c-.86,7.4-2.05,14.59-2.47,21.82-.87,15.16-1.2,30.35-2.01,45.51-.49,9.04-1.41,18.07-2.26,27.09-1.07,11.33,2.44,22.16,3.47,33.26.15,1.62,1.18,3.16,1.8,4.74.31,0,.62.02.93.03.49-1.34,1.55-2.77,1.37-4.01-1-6.73.76-12.97,3.58-18.83,4.26-8.85,5.53-18.07,5.47-27.77-.1-15.55-.21-31.13.66-46.65.51-9,.66-17.85-.61-26.75-1.18-8.29-1.14-8.29-9.52-8.61-.1,0-.21.09-.4.18Zm-167.33-141.34c-3.73.35-6.98.83-10.24.9-3.42.07-5.15,1.61-4.91,4.95.44,6.09.83,12.19,1.73,18.22,1.03,6.98,2.78,13.85,3.87,20.82,1.63,10.36.46,20.45-3.98,30.03-3.23,6.97-4.35,14.19-3.46,21.72l1.11.28c1.04-3.81,2.08-7.62,3.12-11.43.34.08.68.16,1.03.24,2.22,7.11,1.27,14.45,1.17,21.81,5.22-3.9,2.78-10.44,5.4-16.04,2.4,4.88.93,8.78-.03,12.27,5.86-3.49,1.93-10.35,5.39-15.7l.87,2.37c.5-.18,1.01-.36,1.51-.53-.86-29.95-1.72-59.89-2.58-89.93Zm-106.23,101.18c.59-.12,1.18-.24,1.76-.35-.7-6.31-1.28-12.64-2.14-18.94-.52-3.8-1.91-7.52-2.13-11.32-.57-9.42,1.58-18.33,5.05-27.16,4.55-11.57,8.43-23.42,12.17-35.29,1.46-4.63-.51-6.55-5.36-6.62-.82-.01-1.65.02-2.47.05-8.78.3-8.89.28-10.72,9.08-4.92,23.7-6.2,47.81-7.58,71.89-.36,6.3.15,12.68.57,19,.12,1.84,1.29,3.61,1.97,5.41.21-.09.43-.19.64-.28-.56-2.16-1.13-4.31-1.69-6.47.34-.1.68-.19,1.01-.29,3.58,2.85,3.14,8.9,8.41,10.61-4.81-5.21-6.27-10.88-3.49-17.2.41-.1.81-.21,1.22-.31.93,2.73,1.86,5.47,2.79,8.2Zm154.86-177.4c.43-.33.85-.66,1.28-.98-.14-4.38-1.74-8.33-4.25-11.87-1.8-2.55-2.52-10.03-.14-11.51,2.73-1.71,2.82-4.31,3.83-6.64,1.23-2.8,2.2-5.71,3.45-8.5,3.31-7.34,11.77-9.34,18.18-4.31,6.07,4.76,8.35,11.29,9.24,18.73.48,3.96,1.93,7.85,3.3,11.65.88,2.46.28,5.59-1.83,6.84-2.17,1.28-4.27,2.66-6.4,3.99.17.28.33.57.5.85.86-.42,1.71-.84,2.97-1.46-.2,4.26-.37,8.08-.58,12.57,10.54-9.41,13.27-20.82,11.79-33.27-1.36-11.44-6.51-20.87-17.66-25.85-3.13-1.4-6.4-2.81-9.38.48-.22.24-.87.35-1.19.22-4.42-1.81-7.34.77-9.72,3.71-10.16,12.57-11.14,26.76-6.69,41.68.42,1.42,2.17,2.46,3.3,3.67ZM81.14,319.32c.18-.29.37-.58.55-.87-1.33-1.12-2.71-2.2-3.99-3.37-4.59-4.19-6.34-9.56-5.83-15.58.11-1.25,1.61-2.84,2.84-3.35.63-.26,2.42,1.36,3.12,2.49,1.23,1.97,1.83,4.34,3.09,6.3.57.89,2.07,1.19,3.14,1.76.1-1.15.54-2.39.26-3.45-2.25-8.46-4.16-16.94-9.33-24.42-3.02-4.37-6.01-6.9-11.39-6.38-2.98.29-4.75,1.71-4.52,4.69.67,8.78,1.12,17.61,2.47,26.29.88,5.64,4.18,10.31,9.99,13.19-6.78-8.53-7.14-9.25-6.13-12.65,5.41,5.14,6.66,14.6,15.73,15.37Zm46.36,193.75c6.7-.5,13.15-2.5,17.78-8.48,2.05-2.65,4.31-5.15,6.33-7.83,1.91-2.54-.11-6.67-3.66-7.03-6.3-.65-12.66-.76-18.95-1.46-1.9-.21-2.92.04-3.59,1.69-1.91,4.66-4.16,9.22-5.59,14.02-1.7,5.74,1.18,9.03,7.68,9.09Zm346.3-219.24c.39-.4.77-.8,1.16-1.2-3.96-6.96-7.63-14.31-14.9-18.51-2.64-1.53-6.37-1.17-9.6-1.67-.26.4-.52.8-.78,1.2,5,14.11,4.09,29.64,11.04,44.36.43-1.45.6-1.84.66-2.25.76-4.79.09-9.3-2.15-13.68-1.08-2.1-2.9-4.33-1.07-7.59,4.65,5.28,2.75,13.55,9.42,17.35-.18-2.48-.97-4.79-1.41-7.17-.79-4.24-1.5-8.5-1.95-12.78-.11-1.05.92-2.21,1.42-3.33.99.5,2.04.92,2.96,1.53,1.78,1.19,3.48,2.5,5.21,3.76Zm45.76,22.79c2.83-1.68,5.47-5,6.82-11,1.03-4.56,4.14-5.23,7.17-6.05,1.49-7.06,2.92-13.89,4.47-21.21-3.7-.6-7.13-1.4-10.6-1.59-1.52-.08-3.7.66-4.56,1.8-2.96,3.93-5.65,8.09-8.06,12.39-1.03,1.85-1.11,4.24-1.75,6.93,4.89-1.68,3.42-8.09,8.87-8.63.47,8.7-.19,16.74-7.56,23.65,7.72-1.81,7.26-8.54,10.14-13.14.63.73,1.23,1.18,1.15,1.37-1.94,5.04-3.94,10.05-6.1,15.47ZM236.25,135.86c1.7.37,3.14.82,4.62.98,6.97.76,11.41-4.87,8.82-11.28-4.14-10.25-7.71-20.72-5.89-31.9,1.04-6.4,3.31-12.64,5.54-18.77.95-2.62,3.3-4.51,6.64-4.41,1.57.05,3.23-.18,4.71-.68,7.15-2.4,13.83-1.66,18.65,4.32,3.55,4.41,6.66,9.45,8.75,14.7,4.15,10.39,4.9,21.51,5.29,32.61.05,1.35.28,2.69.43,4.03.74-4.1.98-8.11.69-12.09-.93-12.71-4-24.83-10.6-35.89-3.69-6.19-9.03-10.17-16.11-11.64-7.12-1.48-12.86,2.2-18.1,5.95-2.33,1.67-3.47,5.55-4.3,8.65-3.24,12.14-4.24,24.52-3.5,37.09.39,6.55.17,13.13-5.68,18.34Zm-83.34-86.07c.36-.04.71-.07,1.07-.11,0-1.61-.08-3.23.01-4.84.87-15.42-17.95-22.45-27.42-17.62-3.12,1.59-6.37,3.06-9.12,5.17-1.72,1.32-3.34,3.59-3.7,5.66-.61,3.43-.16,7.05-.16,10.59.36.05.73.1,1.09.15.33-1.27.84-2.52.95-3.81.16-1.87-.12-3.78.05-5.65.57-6.32,4.83-8.49,10.28-5.45,1.52.85,3.23,1.65,4.92,1.82,5.13.53,10.3,1.01,15.45,1.02,5.27.02,6.2.83,5.95,6.03-.11,2.33.4,4.68.63,7.02Zm209.85,452.1c.41,3,.54,6.08,1.3,8.98,1.63,6.21,9.86,10.56,15.73,8.57,5.41-1.84,7.55-8.13,5.07-14.91-.36-.97-.83-1.9-1.33-3.05-2.82,8.35-12.03,8.32-20.76.4Zm-111.03-3.22c-1.32,1.74-2.61,3.4-3.86,5.09-2.07,2.81-1.87,5.64-.11,8.52,1.79,2.92,4.46,3.55,7.61,3.09,7.03-1.03,11.2-6,12.19-14.64-5.43,1.66-10.72,2.29-15.82-2.06Zm29.05-34.46c.42,6.52,1.17,12.38,6.01,16.8,1.14,1.05,2.3,2.03,3.8.13,5.37-6.81,6.67-14.73,6.91-24.15-3.88,7.44-9.72,8.11-16.72,7.21Zm-151.81-171.11c.46,46.7.92,93.4,1.38,140.1,1.62-7.56.4-136.96-1.38-140.1Zm339.15,198.58c1.81,3.29,2.72,6.59,4.87,8.42,2.44,2.08,11.68.24,13.68-2.03,2.44-2.78,3.18-5.94,1.5-9.15-6.31.87-12.44,1.71-20.05,2.76Zm-201.43-183.79c-.53-.01-1.06-.02-1.58-.04,1.33,36.98,6.11,73.71,7.91,110.65.41-.03.81-.06,1.22-.09-2.51-36.84-5.03-73.69-7.54-110.53Zm-147.72,193.08c-.24-.07-.48-.15-.72-.23-1.04,3.2-2.3,6.35-3.06,9.61-.95,4.13.15,5.88,4.28,7.07,9.83,2.83,18.44.41,25.57-6.74,1.78-1.78,2.62-4.49,3.9-6.77-.28-.24-.55-.48-.83-.72-4.5,7.06-11.06,10.46-19.08,11.19-8.78.8-12.39-3.32-10.44-11.81.12-.54.26-1.07.39-1.61Zm-7.29-462.8c3.65-8.28,14.86-14.88,24-13.67,16.25,2.15,21.79,12.51,19.74,28.14,4.13-15.33-1.54-26.34-15.44-30.52-7.17-2.16-13.7-.87-19,4.89-.55.6-1.48.95-2.3,1.2-4.45,1.33-6.81,4.45-7.01,9.96Zm84.41,269.6c2.44-2.6,5.97-26.38,5.02-33.92-6.35,8.52-8.81,25.12-5.02,33.92Zm304.61,179.14c4.32-.02,8.44-4.77,6.7-8.27-1.84-3.72-5.81-2.02-8.89-2.18-2.22-.11-4.87-.29-5.6,2.92-1.09,4.79,1.75,7.55,7.79,7.53Zm-160.35-221.58c1.86-8.4,7.66-15.52,7.53-24.8-.21-14.58.51-29.16.53-43.75.01-6.62-1.67-13.01-4.01-19.14,5.48,29.52,3.75,58.65-4.05,87.69Zm168.35-137.23c-2.57,4.32-5.14,8.62-7.45,12.48m-411.85,38.25c-1.63,10.9-3.35,22.44-5.16,34.52,5.83-6.69,8.54-13.87,7.31-22.3-.61-4.19-1.46-8.34-2.15-12.22Zm422.67-83.59c.91-7.74-.87-14.66-6.56-20.1-4.84-4.63-12.01-4.34-14.96-.19,4.94,1.74,10.36,2.91,15,5.48,5.46,3.02,4.85,9.6,6.53,14.81Zm-177.27,234.12c2.41-4.21,2.3-6.16-.19-13.69-10.28-.52-11.19-.39-12.14,1.24,1.15,1.03,2.2,1.97,3.06,2.74.33-.2,1.08-.67,1.84-1.13.32.94.72,1.86.94,2.82.29,1.25.44,2.53.65,3.8.38-.07.76-.14,1.14-.21,0-.32-.06-.65.01-.95.29-1.22.62-2.44.93-3.66.6,1.19,1.27,2.35,1.78,3.58.64,1.56,1.16,3.17,1.97,5.45Zm100.81-15.31c9.23-2.62,10.63-4.61,9.77-13.21-.01-.12-.01-.24-.03-.35-.45-3.36-2.54-4.8-5.71-3.6-2.44.92-4.73,2.25-7.58,3.63,3.33,1.81,6.12,3.33,9.8,5.32-1.1-3.11-1.84-5.2-2.58-7.3.31-.16.61-.32.92-.47,1.34,2.23,3.63,4.39,3.82,6.72.44,5.53-5.25,6.43-8.41,9.26Zm-153.42-168.33c.86-4.24-.02-7.8-1.74-11.16-.27-.53-2.06-.95-2.5-.6-2.49,1.94-4.78,4.13-6.72,5.87,3.84,2.07,7.22,3.88,10.97,5.89Zm-91.78-17.38c-8.38,17.86-13.39,36.53-11.99,56.57.52-19.59,4.08-38.51,11.99-56.57Zm87.11,113.89c0-.24.02-.47.03-.71-12.82-2.37-25.64-4.73-38.46-7.1-.07.41-.14.83-.21,1.24,12.88,2.19,25.76,4.38,38.63,6.57Zm-119.06-9.84c-13.38,1.76-26.93,3.54-37.61,4.94,10.92.57,24.5-1.03,37.61-4.94Zm77.15-43.54c-.15,0-.3-.02-.45-.02-.41,5.84-.6,11.7-1.36,17.5-.29,2.2-1.91,4.23-2.72,5.92.72,2.52,1.51,5.25,2.29,7.98.17.07.34.14.5.2.58-10.52,1.16-21.05,1.74-31.57Zm-149.39-31.27c.44-.08.89-.15,1.33-.23-3.22-9.18-1.08-19.31-5.6-28.25,1.42,9.49,2.84,18.98,4.26,28.48Zm403.15-84.28c4.4-3.44,9.18-3.37,14.17-1.7-5.8-4.05-12.03-3.31-14.17,1.7ZM207.84,240.88c-.3-.02-.59-.05-.89-.07-.5,5.85-1.01,11.7-1.51,17.55.27.02.53.04.8.07.54-5.85,1.07-11.69,1.61-17.54Zm318.04,91.38c-.25-.03-.49-.06-.74-.08-.48,4.25-.96,8.51-1.44,12.76.25.03.51.06.76.09.47-4.25.94-8.51,1.41-12.76Zm-155.13-83.59c-.02.34-.05.69-.07,1.03l11.6,1.57c.03-.27.07-.54.1-.81-3.88-.6-7.76-1.19-11.64-1.79Zm209.93,228.47h-71.44c-.46,4.33-.4,9.13-5.58,10.68-4.26,1.28-8.37.51-11.84-2.77-1.93,1.13-2.43,2.51-1.76,4.87,1.58,5.59-1.52,11-7.21,11.55-4.67.45-9.49-.55-14.24-.97-1.15-.1-2.27-.61-3.41-.61-26.16-.03-52.32-.02-78.49,0-.46,0-.93.04-1.98.09.53,1.47,1.21,2.69,1.39,3.97.42,3.09,1.2,6.32.73,9.31-.73,4.57-4.63,7.63-8.77,7.97-6.13.5-12.63-2.76-14.61-7.89-1.12-2.9-1.38-6.16-1.89-9.27-.2-1.23-.03-2.52-.03-4.15-1.81,0-3.19,0-4.57,0-27.58,0-55.15.06-82.73-.09-3.39-.02-4.9.89-5.83,4.25-2.38,8.55-6.85,12.36-13.9,12.84-3.51.24-6.26-.9-8.06-3.96-1.88-3.19-2.18-6.43-.01-9.65.84-1.25,1.69-2.5,2.8-4.13-1.31-.1-2.29-.24-3.27-.24-30.05-.01-60.1.02-90.15-.07-2.52,0-3.92.78-4.82,3.05-1.17,2.94-2.04,6.15-3.87,8.63-6.18,8.4-19.69,11.82-29.43,7.91-3.29-1.32-5.12-3.49-4.14-7.1,1.22-4.5,2.71-8.93,4.22-13.86-81.24,0-127.21-1.37-70.29-1.36,23.57,0,47.13,0,70.7-.13,1.16,0,2.69-1.06,3.4-2.07,1.4-2,2.34-4.32,3.54-6.65-4.06-3.68-4.28-8.39-3.2-13.32,1.31-5.98,2.78-11.92,4.12-17.89.25-1.12.51-2.39.22-3.44-2.37-8.46-5-16.85-7.3-25.33-5.04-18.64-10.01-37.3-14.79-56.01-.92-3.59-1.25-7.44-1.15-11.16.13-4.84-.45-9.41-2.84-13.63-4.46-7.85-5.61-16.35-5.55-25.22.04-6.11-.13-12.27-.94-18.31-.52-3.89-2.08-7.73-3.71-11.35-4.46-9.91-6.28-20.1-4.96-30.97.74-6.06.24-12.28.97-18.34.57-4.71,2.49-9.25,3.21-13.96.3-1.96-.52-4.39-1.57-6.18-.88-1.5-2.82-2.38-4.7-3.86-.59,3.12-1.31,6.04-1.67,9.01-1.77,14.36-2.82,28.85-5.45,43.05-1.15,6.2,1.48,9.85,4.15,14.26,1.37,2.27,2.3,4.86,3.09,7.41,1.13,3.7,2.15,7.46,2.81,11.27.26,1.49-.56,3.18-.89,4.77-1.65-.59-3.83-.73-4.83-1.88-1.55-1.81-2.23-4.35-3.41-6.5-.46-.83-1.28-1.46-1.94-2.18-.58.93-1.64,1.86-1.65,2.79-.04,5.25,1.44,10,5.46,13.67.87.79,1.99,1.36,2.7,2.26.8,1.01,1.26,2.28,1.87,3.43-1.39.31-2.89,1.12-4.15.84-3.02-.67-6.14-1.47-8.85-2.91-6.69-3.55-9.84-9.77-10.77-16.94-.98-7.58-1.37-15.23-1.81-22.87-.1-1.78.61-3.61.99-5.63-3,.06-4.01-2.02-3.85-5.05.66-12.28-.18-24.39-2.57-36.53-1.12-5.68.14-11.86.6-17.8.35-4.45,1.06-8.88,1.77-13.29.58-3.59,1.46-7.13,2.14-10.71,1.26-6.69,2.29-13.43,3.76-20.07,1.18-5.36,2.86-10.62,4.33-15.92,1.67-5.98,3.46-11.93,5.02-17.93,1.38-5.31,2.42-10.71,3.84-16.01.34-1.26,1.39-2.59,2.49-3.33,5.25-3.54,10.56-7.03,16-10.27,4.84-2.89,9.88-5.43,14.84-8.12,2.94-1.59,4.2-4.15,4.89-7.35.41-1.94,1.8-3.66,2.68-5.51.41-.87,1.05-1.87.92-2.71-.68-4.41-1.56-8.79-2.41-13.17-.1-.53-.29-1.25-.68-1.49-4.36-2.68-4.28-7.25-4.89-11.48-.14-.97.05-2.61.65-2.96,2.93-1.7,2.1-4.36,2.11-6.81,0-2.83-.28-5.67-.12-8.48.29-4.93,2.78-8.38,7.49-10.14.95-.36,1.95-.79,2.67-1.47,6.33-6.01,14.93-7.49,22.87-3.86,12.33,5.64,16.86,14.42,14.72,28.38-.38,2.51-.46,4.78.28,7.55.88,3.26-1.02,7.31-1.9,10.97-.29,1.2-1.42,2.21-1.67,3.41-1.82,8.56-6.39,15.12-14.08,19.33-3.78,2.07-7.7,1.94-11.45-.29-1.31-.78-2.53-1.68-3.8-2.53-.23.21-.46.42-.69.63,1.12,1.11,2.06,2.51,3.38,3.27,5.16,2.97,10.16,2.23,14.88-1.17,1.43-1.03,2.69-2.33,4.21-3.19.77-.43,2.27-.55,2.85-.08.59.48.96,2.12.59,2.79-3.26,5.83-8.73,9.29-14.62,11.57-4.4,1.7-8.13-1.35-11.11-4.56-2.39-2.56-4.57-5.31-6.85-7.99-3.42,3.22-1.58,14.76,3.31,21.65,2.04-1.23,4.14-2.44,6.2-3.72,6.05-3.77,10.28-3.28,15.57,1.58,1.55,1.42,3.48,2.42,5.23,3.62.65-2.18,1.58-4.33,1.89-6.56.41-2.9.15-5.9.53-8.81.39-3.02,1.99-3.79,4.75-2.47,11.25,5.39,22.52,10.75,33.71,16.27,5.71,2.82,6.65,5.04,5.69,11.37-.11.73-.1,1.59.18,2.25,1.07,2.51,2.69,4.87,3.35,7.47,2.82,11.18,6.14,22.32,7.86,33.69,3.2,21.21,5.27,42.58,2.36,64.07-.11.8-.01,1.63-.01,3.13,1.83-7.32,3.49-13.97,4.96-19.89-1.13-2.79-3-5.21-2.92-7.57.4-12.47.7-25,2.2-37.36,1.27-10.51,7.15-19.13,15.1-26.05,2.02-1.76,4.88-2.89,7.54-3.49,5.29-1.2,8.43.88,10.34,5.99.6,1.61,1.43,3.14,2.45,5.33,1.67-1.62,2.87-2.79,4.09-3.95,3.06-2.91,5.06-2.95,8.22-.17,2.86,2.52,3.79,2.45,6.59-.99-4.29,2.35-6.84.16-8.8-2.65-2.27-3.25-4.11-6.81-5.75-9.59-2.93,1.8-5.67,4.39-8.87,5.24-4.17,1.1-8.26-.77-12.67-3.39,3.73-.55,7.09-.81,7.94-4.6.67-2.97,1.49-5.98,1.61-8.99.32-8-.15-16.04.54-23.99.57-6.52,2-13.04,3.72-19.37,1.53-5.65,4.54-10.28,11.39-10.97,2.17-.22,4.33-2.81,6.28-2.58,4.68.56,9.54,1.5,13.77,3.49,6.13,2.88,9.35,8.8,12.06,14.76,6.1,13.45,8.8,27.57,7.59,42.32-.2,2.43.41,4.09,2.18,5.52,1.74,1.4,3.38,2.96,5.23,4.2,12.01,8.07,19.44,19.1,22.77,33.23,2.93,12.46,4.09,24.86,1.29,37.43-.41,1.83-1.74,3.44-2.6,5.18-.34.67-.83,1.4-.82,2.09.1,7.53.16,15.07.47,22.6.32,7.64,1.21,15.27,1.32,22.91.22,14.83.06,29.66.9,44.54.73-12.17,1.73-24.33,2.15-36.5.71-20.96,1.03-41.93,1.59-62.89.21-8,.6-16,.97-24,.57-12.19,7.26-19.64,18.34-23.82,4.66-1.76,9.88-2.32,13.43-6.62,1.2-1.46,2.56-.16,2.35,1.43-.35,2.65-1.07,5.26-1.75,7.85-.61,2.33-1.38,4.63-2.23,7.42,5.71-2.52,9.47-9.31,8.6-14.6-.31-1.86-1.02-3.71-.96-5.55.06-1.82.86-3.62,1.33-5.43.38.07.76.15,1.13.22.22.53.65,1.08.61,1.59-.58,6.79,3.27,12.42,4.92,18.61,1.38,5.18,8.57,7.17,12.59,3.61,5.74-5.08,8.27-11.93,9.62-19.2.5-2.72.08-5.62.08-8.71-5.72,3.6-11.73,4.81-18,2.33-.07-.46-.13-.92-.2-1.38,1.36-.24,2.72-.72,4.06-.68,6.03.19,11.17-1.29,14.59-6.76.48-.77,1.71-1.15,2.67-1.52,2.76-1.05,3.14-2.67,2.08-5.44-1.36-3.56-2.71-7.27-3.12-11.02-.78-7.05-2.63-13.39-8.3-18.1-5.94-4.93-13.51-3.26-16.48,3.75-1.7,4.01-3.12,8.13-4.73,12.18-.37.94-.8,2.02-1.53,2.64-2.69,2.25-2.83,6.79-1.05,9.89,1.95,3.4,3.26,7.22,4.48,10.98.32.99-.58,3.37-1.19,3.47-1.41.23-3.16-.26-4.45-1.01-.87-.5-1.42-1.88-1.74-2.98-4.13-14.27-3.47-27.97,5.22-40.57,2.95-4.28,6.39-7.96,12.44-7.05.77.12,1.7-1.05,2.51-.98,3.3.27,6.94.02,9.8,1.36,11.08,5.15,16.19,14.86,17.61,26.41,1.5,12.15-.92,23.42-10.03,32.5-2.82,2.81-3.71,10.91-1.63,14.7,1.57,2.86,3.56,5.49,5.65,8.66,2.41-3,2.51-6,2.3-9.16-.12-1.79.13-3.61.21-5.42,1.86.38,3.86.45,5.57,1.19,14.95,6.52,20.4,19.24,21.35,34.31,1.07,17.04,1.49,34.13,2.17,51.2.07,1.64,0,3.29.64,4.95.9-14.06,1.74-28.12,2.72-42.17.89-12.67,1.87-25.34,2.99-37.99.23-2.54,1.27-5,1.95-7.5,2.36-8.77,7.15-15.35,15.83-19.08,3.88-1.67,7.2-4.64,10.83-6.94.61-.38,1.85-.71,2.16-.41.76.74,1.62,1.89,1.56,2.82-.11,1.59,3.99,7.23,7.7,9.93.85.62,1,1.81,2.25,2.09-1.37-1.58-2.78-3.13-4.09-4.75-3.82-4.7-5.76-9.63-2.5-15.57,1.83-3.33,1.55-6.17-.71-9.95-2.99-4.99-6.4-10.35-6.15-16.74.08-2.1.47-3.98,3.12-3.06.97-5.15,1.92-10.08,2.82-15.03.57-3.13,2.01-5.48,5.2-6.53.62-.2,1.28-.59,1.69-1.09,3.98-4.85,9.18-6.02,14.97-3.31,9.47,4.43,15.77,17.9,13.16,28.05-.22.86-.59,1.91-.3,2.63,1.38,3.46.01,9.06-3.31,10.31-2.56.96-3.94,2.45-5.12,4.69-.68,1.3-1.99,2.28-2.64,2.99.88.47,2.46.81,3.16,1.79,1.65,2.26,2.62,5.04,4.37,7.2,1.16,1.44,3.08,2.45,4.85,3.16,3.15,1.27,6.51,2.03,9.69,3.24,10.41,3.98,15.73,11.61,18.8,22.43,4.94,17.4,6.71,35.12,8.11,52.95,1.19,15.17-1.23,30.08-4.46,44.86-1.51,6.9-2.98,13.82-4.81,20.64-.45,1.66-2.23,2.97-3.41,4.43-.4.5-1.13.89-1.24,1.43-1.31,6.08-3.04,12.13-3.64,18.29-.76,7.73-5.9,12.62-10.38,17.93-1.11,1.31-3.76,1.76-5.68,1.72-.74-.01-1.42-2.5-2.24-4.08.15-.07-.42.35-1.04.45-.74.12-2.02.22-2.2-.13-.37-.7-.23-1.71-.14-2.58.04-.43.36-.89.69-1.21,5.31-5.18,5.9-11.78,5.62-19.8-.94,1.78-1.4,2.71-1.91,3.61-.75,1.32-1.35,2.81-2.39,3.85-.7.7-2.13,1.11-3.09.92-.53-.1-1.13-1.76-1.04-2.65.19-1.85.42-3.88,1.32-5.44,2.63-4.58,5.27-9.23,8.59-13.29,1.43-1.75,4.57-2.11,6.88-3.08-2.16-1.76-1.78-4.66-1.08-7.68,3.92-16.82,6.44-33.78,4.72-51.12-.15-1.52-.2-3.05-.32-4.88-.22.32-.32.39-.33.48-1.12,11.82-1.66,12.09-13.15,14.39-17.18,3.44-34.01,1.44-50.73-2.65-1.27-.31-2.47-1.84-3.23-3.08-.78-1.26-.99-2.87-1.43-4.34-.39-1.32-.75-2.65-1.34-3.93-1.01,5.42-2.05,10.73,0,16.2.68,1.81.51,4.23-.03,6.17-2.41,8.64-3.42,17.27-1.41,26.16.62,2.73.76,5.6.85,8.41.03,1.1-.68,2.23-1.16,3.64,6.72,4.01,11.11,10.81,14.99,17.99.63,1.16.36,2.8.5,4.21-1.55-.17-3.27.04-4.61-.59-1.73-.81-3.16-2.29-4.72-3.48-.38.09-.75.17-1.13.26.57,4.06,1.01,8.15,1.75,12.18.4,2.18,1.59,4.23,1.87,6.42.18,1.4-.65,2.92-1.03,4.39-1.16-.59-2.32-1.17-3.47-1.78-.29-.15-.54-.38-1.09-.78-1.37,11.65.91,22.62,4.01,33.44.38,1.32,2.23,2.98,3.56,3.16,12.02,1.54,24.06,2.92,36.12,4.03,4.76.44,9.58.07,14.52.07,1.31-11.28,2.57-22.05,3.82-32.82.37.01.73.02,1.1.03.21.95.59,1.9.61,2.85.18,10.36.44,20.65-3.51,30.64-1.37,3.45-.79,7.67-1.08,11.54-1.44,19.14-2.78,38.3-4.4,57.43-.41,4.78-1.91,9.46-2.61,14.23-1.35,9.31-2.48,18.65-3.7,27.98-.5,3.83-1,7.67-1.58,12.04,1.22,0,2.33,0,3.45,0,21.09,0,42.19-.04,63.28.05"/></svg>