<?xml version="1.0" encoding="UTF-8"?>
<svg id="Layer_1" data-name="Layer 1" xmlns="http://www.w3.org/2000/svg" viewBox="0 0 419.65 332.23">
  <defs>
    <style>
      .cls-1 {
        fill: #fff;
      }
    </style>
  </defs>
  <path class="cls-1" d="m50.03,165.77l6.62-.14,9.41.14c6.05,0,10.42-3.02,10.42-8.73,0-5.37-3.79-8.45-8.4-9.02-.19,0-.29-.1-.29-.29,0-.14.09-.19.29-.19,4.03-.67,7.63-3.89,7.63-8.69s-4.08-8.49-9.79-8.49l-9.27.19-6.62-.19c-.39.24-.48.53-.48.91s.1.72.48.91h3.5c.19,0,.34.15.34.34v31.1c0,.19-.15.33-.34.33h-3.5c-.39.24-.48.58-.48.91,0,.39.1.67.48.91Zm13.72-18.77h-4.27v-14.49c0-.24.15-.39.34-.39h4.08c3.7,0,5.66,2.11,5.66,7.25s-2.4,7.63-5.81,7.63Zm-4.27,16.99v-15.36h4.32c3.65,0,6.53,2.45,6.53,7.73s-2.06,7.63-6.19,7.63h-4.66Z"/>
  <path class="cls-1" d="m81.23,165.77l6.67-.14,17.23.19c.24,0,.39-.15.39-.39l.48-11.85c-.19-.39-.53-.48-.82-.48-.38,0-.72.1-.91.48l-.24,3.55c-.29,4.51-1.87,6.62-6.57,6.77l-5.91.09c-.48,0-.86-.38-.86-.86v-30.63c0-.19.15-.34.34-.34h3.98c.38-.19.48-.53.48-.91s-.1-.67-.48-.91l-7.1.19-6.67-.19c-.39.24-.48.53-.48.91s.1.72.48.91h3.5c.19,0,.34.15.34.34v31.1c0,.19-.15.33-.34.33h-3.5c-.39.24-.48.58-.48.91,0,.39.1.67.48.91Z"/>
  <path class="cls-1" d="m107.34,165.77l4.27-.14,5.42.14c.39-.24.53-.53.53-.91,0-.33-.15-.67-.53-.91h-3.45c-.34,0-.63-.24-.63-.63,0-.14.09-.43.19-.77l3.07-9.31h9.45l2.88,9.27c.15.38.39,1.01.39,1.15s-.15.29-.34.29h-3.84c-.39.24-.53.58-.53.91,0,.39.14.67.53.91l7.01-.14,6.05.14c.33-.24.43-.53.43-.91,0-.33-.1-.67-.43-.91h-2.79c-.24,0-.39-.14-.43-.43l-10.7-32.64c-.19-.57-.58-.86-1.2-.86-.67,0-.96.29-1.2.86l-10.66,32.31c-.09.53-.53.77-.96.77h-2.54c-.39.24-.48.58-.48.91,0,.39.1.67.48.91Zm17.71-14.35h-8.26l4.27-12.91,3.98,12.91Z"/>
  <path class="cls-1" d="m140.17,148.1c0,11.47,6.77,18.33,14.49,18.33,2.83,0,4.94-.81,6.82-1.87.67-.43,1.15-.82,1.78-.82s.77.39.77.96v.86c0,.33.24.57.67.57s.63-.29.72-.53l.38-12.72c-.19-.34-.53-.48-.86-.48s-.67.15-.86.48l-.15,2.4c-.43,5.38-3.79,9.41-8.49,9.41-6,0-8.98-4.46-8.98-16.56s2.88-16.75,8.69-16.75c4.52,0,8.31,3.84,8.69,8.83l.24,2.26c.14.33.48.43.81.43.39,0,.67-.1.86-.43l-.48-11.95c-.1-.29-.34-.53-.72-.53-.48,0-.67.24-.72.57v.82c0,.57-.14.91-.72.91-.53,0-1.1-.34-1.63-.63-1.73-1.06-3.79-1.97-6.77-1.97-7.63,0-14.54,7.15-14.54,18.39Z"/>
  <path class="cls-1" d="m170.85,165.77l6.67-.14,6.48.14c.33-.24.43-.53.43-.91,0-.33-.1-.67-.43-.91h-3.36c-.19,0-.34-.14-.34-.33v-31.1c0-.19.15-.34.34-.34h3.5c.39-.19.48-.53.48-.91s-.1-.67-.48-.91l-6.62.19-6.67-.19c-.39.24-.48.53-.48.91s.1.72.48.91h3.5c.19,0,.34.15.34.34v31.1c0,.19-.15.33-.34.33h-3.5c-.39.24-.48.58-.48.91,0,.39.1.67.48.91Zm18.33,0l5.76-.19,6.53.19c.34-.19.43-.53.43-.91s-.14-.67-.43-.91h-2.64c-.34,0-.58-.19-.72-.39l-13.2-18.96,10.8-11.76c.34-.38.82-.67,1.4-.67h2.35c.39-.19.43-.53.43-.91s-.05-.67-.43-.91l-4.42.19-5.95-.19c-.39.24-.48.53-.48.91s.09.72.48.91h3.41c.24,0,.48.19.48.48,0,.24-.29.53-.63.96l-11.95,13.48v.63l10.36,14.64c.39.48.82,1.06.82,1.25s-.15.33-.39.33h-2.02c-.43.24-.53.58-.53.91s.09.72.53.91Z"/>
  <path class="cls-1" d="m227.01,130.34l-7.15.19-6.1-.19c-.33.24-.48.53-.48.91s.15.72.48.91h2.83c.24,0,.33.15.43.43l10.46,32.73c.19.58.53.86,1.15.86.67,0,1.01-.29,1.2-.86l10.37-32.4c.19-.53.53-.77,1.01-.77h2.59c.34-.19.48-.53.48-.91s-.14-.67-.48-.91l-4.32.19-5.71-.19c-.29.24-.43.53-.43.91s.1.72.43.91h3.7c.39,0,.63.24.63.58,0,.24-.1.53-.19.91l-7.49,23.71-7.34-23.71c-.15-.53-.39-1.01-.39-1.2,0-.15.15-.29.39-.29h3.94c.33-.19.48-.53.48-.91s-.15-.67-.48-.91Z"/>
  <path class="cls-1" d="m246.16,165.77l6.67-.14,18.19.19c.24,0,.39-.15.39-.39l.29-11.04c-.19-.33-.53-.53-.81-.53-.43,0-.72.19-.91.53l-.15,2.93c-.24,4.61-1.63,6.48-6.33,6.58l-7.01.09c-.48,0-.86-.38-.86-.86v-14.5l3.41.15c2.59.15,3.6,1.15,3.65,3.41v1.54c.19.34.53.48.86.48s.67-.14.86-.48l-.19-5.85.19-5.71c-.19-.33-.53-.48-.86-.48s-.67.15-.86.48v1.1c0,2.45-.96,3.46-3.65,3.6l-3.41.15v-14.54c0-.19.15-.34.34-.34l6.33.15c4.51.05,5.81,1.82,6.24,6.33l.19,2.26c.24.29.53.48.86.48.39,0,.67-.19.86-.48l-.43-10.17c0-.24-.15-.39-.34-.39l-16.84.24-6.67-.19c-.39.24-.48.53-.48.91s.1.72.48.91h3.5c.19,0,.34.15.34.34v31.1c0,.19-.15.33-.34.33h-3.5c-.39.24-.48.58-.48.91,0,.39.1.67.48.91Z"/>
  <path class="cls-1" d="m276.49,165.77l6.67-.14,17.23.19c.24,0,.39-.15.39-.39l.48-11.85c-.19-.39-.53-.48-.82-.48-.38,0-.72.1-.91.48l-.24,3.55c-.29,4.51-1.87,6.62-6.57,6.77l-5.91.09c-.48,0-.86-.38-.86-.86v-30.63c0-.19.15-.34.34-.34h3.98c.38-.19.48-.53.48-.91s-.1-.67-.48-.91l-7.1.19-6.67-.19c-.39.24-.48.53-.48.91s.1.72.48.91h3.5c.19,0,.34.15.34.34v31.1c0,.19-.15.33-.34.33h-3.5c-.39.24-.48.58-.48.91,0,.39.1.67.48.91Z"/>
  <path class="cls-1" d="m316.19,130.34l-7.15.19-6.1-.19c-.33.24-.48.53-.48.91s.15.72.48.91h2.83c.24,0,.33.15.43.43l10.46,32.73c.19.58.53.86,1.15.86.67,0,1.01-.29,1.2-.86l10.37-32.4c.19-.53.53-.77,1.01-.77h2.59c.34-.19.48-.53.48-.91s-.14-.67-.48-.91l-4.32.19-5.71-.19c-.29.24-.43.53-.43.91s.1.72.43.91h3.7c.39,0,.63.24.63.58,0,.24-.1.53-.19.91l-7.49,23.71-7.34-23.71c-.15-.53-.39-1.01-.39-1.2,0-.15.15-.29.39-.29h3.94c.33-.19.48-.53.48-.91s-.15-.67-.48-.91Z"/>
  <path class="cls-1" d="m335.34,165.77l6.67-.14,18.19.19c.24,0,.39-.15.39-.39l.29-11.04c-.19-.33-.53-.53-.81-.53-.43,0-.72.19-.91.53l-.15,2.93c-.24,4.61-1.63,6.48-6.33,6.58l-7.01.09c-.48,0-.86-.38-.86-.86v-14.5l3.41.15c2.59.15,3.6,1.15,3.65,3.41v1.54c.19.34.53.48.86.48s.67-.14.86-.48l-.19-5.85.19-5.71c-.19-.33-.53-.48-.86-.48s-.67.15-.86.48v1.1c0,2.45-.96,3.46-3.65,3.6l-3.41.15v-14.54c0-.19.15-.34.34-.34l6.33.15c4.51.05,5.81,1.82,6.24,6.33l.19,2.26c.24.29.53.48.86.48.39,0,.67-.19.86-.48l-.43-10.17c0-.24-.15-.39-.34-.39l-16.84.24-6.67-.19c-.39.24-.48.53-.48.91s.1.72.48.91h3.5c.19,0,.34.15.34.34v31.1c0,.19-.15.33-.34.33h-3.5c-.39.24-.48.58-.48.91,0,.39.1.67.48.91Z"/>
  <path class="cls-1" d="m371.25,165.77l7.2-.14,7.1.14c.34-.19.48-.53.48-.86,0-.39-.14-.72-.48-.92h-3.98c-.19,0-.33-.14-.33-.33v-31.2c0-.19.09-.34.33-.34l3.17.15c3.6.14,4.66,2.4,4.99,5.76l.24,3.21c.19.34.53.48.82.48.38,0,.72-.14.91-.48l-.24-10.56c0-.24-.15-.39-.34-.39l-12.72.24-12.67-.24c-.19,0-.34.14-.34.39l-.24,10.56c.15.34.48.48.86.48.34,0,.63-.14.86-.48l.24-3.21c.29-3.36,1.34-5.62,4.94-5.76l3.17-.15c.24,0,.33.15.33.34v31.2c0,.19-.15.33-.33.33h-3.98c-.39.19-.48.53-.48.92,0,.33.1.67.48.86Z"/>
  <path class="cls-1" d="m164.76,197.46c-.74,0-1.4-.16-1.98-.48-.57-.33-1.02-.78-1.35-1.33-.33-.55-.58-1.17-.75-1.83s-.25-1.38-.25-2.13.09-1.48.27-2.17c.18-.69.44-1.31.79-1.85.34-.55.8-.99,1.35-1.31.55-.32,1.19-.48,1.92-.48.84,0,1.51.17,1.98.5.48.32.89.76,1.21,1.31l-.5.29c-.28-.47-.62-.84-1.02-1.1-.39-.28-.95-.42-1.67-.42-1.2,0-2.11.51-2.75,1.52-.64,1.02-.96,2.24-.96,3.69,0,.95.11,1.8.35,2.56.23.75.64,1.39,1.21,1.9.58.52,1.3.77,2.15.77.69,0,1.28-.16,1.75-.48.48-.33.84-.73,1.08-1.21l.52.21c-.28.58-.7,1.07-1.27,1.46-.56.39-1.25.58-2.08.58Z"/>
  <path class="cls-1" d="m177.06,196.96c-.58.33-1.26.5-2.02.5s-1.44-.17-2.02-.5-1.04-.78-1.38-1.35c-.33-.57-.58-1.19-.75-1.85-.16-.67-.23-1.36-.23-2.08s.07-1.41.23-2.06c.17-.67.42-1.28.75-1.85.33-.57.79-1.02,1.38-1.35.58-.34,1.26-.52,2.02-.52s1.44.18,2.02.52c.58.33,1.04.79,1.38,1.35.33.57.57,1.19.73,1.85.17.66.25,1.34.25,2.06s-.08,1.42-.25,2.08c-.16.67-.4,1.29-.73,1.85-.33.57-.79,1.02-1.38,1.35Zm-2.02-.06c.67,0,1.25-.15,1.75-.46.51-.32.9-.73,1.17-1.25.28-.51.48-1.07.63-1.67.14-.59.21-1.21.21-1.85,0-.69-.07-1.34-.21-1.94-.14-.61-.35-1.17-.63-1.67-.28-.5-.67-.89-1.17-1.17-.5-.29-1.08-.44-1.75-.44s-1.26.16-1.77.46c-.5.31-.89.72-1.17,1.25-.28.52-.49,1.07-.63,1.67-.13.58-.19,1.2-.19,1.83,0,.7.06,1.35.19,1.96.14.6.34,1.15.63,1.65.29.5.69.9,1.19,1.19s1.08.44,1.75.44Z"/>
  <path class="cls-1" d="m182.51,197.27v-11.21h3.52c1.23,0,2.13.32,2.69.96.55.64.83,1.43.83,2.35,0,.39-.07.77-.21,1.15-.13.38-.32.73-.58,1.06-.27.32-.64.58-1.1.77-.47.2-1.02.29-1.63.29h-2.94v4.63h-.58Zm3.52-5.21c1.01,0,1.76-.26,2.23-.79.47-.54.71-1.17.71-1.9,0-.78-.23-1.42-.69-1.94-.45-.53-1.2-.79-2.25-.79h-2.94v5.42h2.94Z"/>
  <path class="cls-1" d="m192.07,197.27v-11.21h5.85v.54h-5.27v4.6h3.56v.52h-3.56v5.02h5.63v.52h-6.21Z"/>
  <path class="cls-1" d="m208.77,197.27h-.56l-5.75-9.29-.5-.81v10.1h-.58v-11.21h.56l5.75,9.31.5.81v-10.13h.58v11.21Z"/>
  <path class="cls-1" d="m218.88,197.27v-5.54h-6.02v5.54h-.58v-11.21h.58v5.1h6.02v-5.1h.58v11.21h-.58Z"/>
  <path class="cls-1" d="m229.73,197.27l-1.1-3.15h-4.67l-1.08,3.15h-.63l3.83-11.21h.42l3.85,11.21h-.63Zm-1.25-3.63l-1.63-4.77s-.06-.19-.15-.44c-.08-.26-.17-.52-.25-.77-.07-.25-.13-.44-.17-.58-.03.14-.08.34-.17.6-.08.25-.18.5-.27.75-.08.25-.13.4-.13.44l-1.63,4.77h4.38Z"/>
  <path class="cls-1" d="m237.12,197.46c-.77,0-1.44-.16-2.02-.48-.57-.33-1.02-.78-1.35-1.33-.33-.55-.58-1.17-.75-1.83s-.25-1.38-.25-2.15.09-1.52.27-2.19c.18-.68.44-1.29.77-1.83.34-.55.8-.98,1.38-1.29.57-.32,1.22-.48,1.96-.48,1.28,0,2.3.52,3.06,1.54l-.52.33c-.61-.86-1.46-1.29-2.54-1.29-.67,0-1.25.16-1.75.46-.5.31-.9.72-1.19,1.25-.28.52-.49,1.07-.63,1.67-.13.58-.19,1.2-.19,1.83,0,.96.13,1.82.38,2.58.25.75.66,1.39,1.23,1.9.58.5,1.3.75,2.15.75.92,0,1.63-.33,2.15-1,.53-.67.79-1.65.79-2.94v-.19h-2.35v-.54h2.96v.54c0,1.6-.32,2.78-.96,3.54-.64.77-1.5,1.15-2.58,1.15Z"/>
  <path class="cls-1" d="m244.03,197.27v-11.21h5.85v.54h-5.27v4.6h3.56v.52h-3.56v5.02h5.63v.52h-6.21Z"/>
  <path class="cls-1" d="m260.74,197.27h-.56l-5.75-9.29-.5-.81v10.1h-.58v-11.21h.56l5.75,9.31.5.81v-10.13h.58v11.21Z"/>
</svg>