<?xml version="1.0" encoding="UTF-8"?>
<svg id="Layer_1" data-name="Layer 1" xmlns="http://www.w3.org/2000/svg" xmlns:xlink="http://www.w3.org/1999/xlink" viewBox="0 0 500 500">
  <defs>
    <style>
      .cls-1 {
        fill: none;
      }

      .cls-2 {
        clip-path: url(#clippath);
      }

      .cls-3 {
        fill: #fff;
      }
    </style>
    <clipPath id="clippath">
      <rect class="cls-1" x="122.83" y="106.11" width="254" height="114.96"/>
    </clipPath>
  </defs>
  <g class="cls-2">
    <path class="cls-3" d="m327.4,155.9c.17.35.52,1.43.81,2.39,1.32,4.38,1.76,7.88,1.39,11.03-.47,4.04-1.53,7.4-2.94,9.47l-.64.93.13-3.73c.06-2.05.31-6.91.54-10.79.23-3.88.42-7.69.42-8.5.04-1.41.04-1.43.31-.81Zm-1.49-.02c-.04,1.95-.25,6.74-.46,10.68-.2,3.94-.45,8.81-.54,10.84l-.15,3.69-.81.65c-2.09,1.66-7.09,3.71-10.78,4.44-.95.18-1.91.45-2.09.6-.56.4-.83,7.2-.68,17.11.13,9.45.31,11.21,1.28,12.26,1.06,1.12,3.23,2.18,5.79,2.8.89.21-.07.25-6.43.27l-7.46.02,1.22-.67c1.52-.81,3.34-2.38,3.69-3.23.19-.47.27-1.72.15-4.81-.1-2.22-.19-8.36-.19-13.65,0-5.81.02-9.46-.21-9.97-.1-.25-.56-.44-1.2-.52-1.53-.22-5.45-1.28-7.44-2.01-2.53-.91-6.16-3.38-8.23-5.58-1.76-1.86-3.19-4.44-3.79-6.84-.42-1.64-.48-5.93-.1-7.88.99-5.12,3.4-10.97,6.55-15.86,1.64-2.55,4.44-6.24,5.54-7.3.23-.22.56-.68.87-.72,1.29-.17,3.35-.19,4.47-.21,8.97-.13,10.07-.13,11.77.02,1.49.13,1.78.21,2.14.67,1.18,1.49,4.58,6.86,5.76,9.12l1.37,2.59-.04,3.51Zm-1.7,63.14c-.42,0-2.28-.35-5.41-1.04-2.34-.52-4.87-1.49-5.8-2.28-1.2-.99-1.27-1.74-1.36-13.06-.04-5.41,0-11.01.08-12.42.04-.65.13-2.36.35-2.47.23-.13,1.2-.38,1.68-.47,2.88-.58,5.08-1.37,8.06-2.91,1.49-.77,2.71-1.41,2.71-1.41,0-.02.02,8.09.04,18.02.04,17.6.02,18.04-.35,18.04Zm-30.88.38l-1.97-.06-.02-13.38c-.02-11.86-.1-15.82-.62-24.04l-.13-1.95.68.56c.38.31,1.35,1.06,2.14,1.66,2.18,1.64,4.56,2.99,6.41,3.57,2.21.7,5.96,1.56,6.85,1.74.33.06.52.15.54.48.02.25.04,5.41.06,11.47.02,6.03.15,11.86.21,13.13.02.54.06,1.55-.13,2.05-.15.38-.56.91-.85,1.18-1.35,1.31-3.55,2.43-5.66,2.86-2.32.5-5.41.81-7.52.73Zm-3.15-11.74l-.06,11.76h-15.7l.74-.83c1.04-1.14,1.47-2.11,1.93-4.15.33-1.56.39-2.71.39-9.64,0-4.33-.14-9.83-.19-12.21-.02-1.08-.08-3.63-.43-4.07-.42-.52-6.84-.18-9.06-.12-2.32.06-9.32.14-9.32.14l.13-2.76c.31-6.53.66-9.21,1.34-10.49.38-.7,1.89-1.59,4.33-2.59,1.29-.52,2.73-1.18,3.23-1.47,1.31-.77,2.72-2.26,3.09-3.28,1.02-2.78.95-13.5-.08-15.18-.2-.33-.72-.81-1.16-1.06-.71-.4-.81-.54-.85-1.31-.06-.81-.02-.89.63-1.16.91-.4,7.27-.44,8.04-.04.41.21.54.43.56,1.08.04.72-.02.87-.62,1.24-.17.1-.69.29-.71.83-.08,2.34,0,5.18.04,7.05.19,8.15.04,8.46,1.2,10.18.93,1.37,2.32,2.36,4.79,3.4,2.84,1.18,3.79,1.77,4.91,2.91,1.62,1.66,1.84,2.09,2.05,3.98.54,4.69.87,16.26.79,27.79Zm-17.34,11.22c-.89.42-1.36.44-7.5.52-6.18.06-6.57.06-6.69-.31-.25-.65-.4-14.24-.23-22.1l.17-7.41,6.86-.06c3.77-.04,7.67-.08,8.66-.1,1.53-.04,1.8,0,1.93.31.08.19.18,5.17.25,11.05.1,9.38.08,10.93-.23,12.65-.56,3.13-1.45,4.65-3.21,5.45Zm-19.33.56c-3.98,0-4.02,0-4.83-.54-1.99-1.31-2.76-2.51-3.28-5.06-.66-3.26-.77-5.7-.62-14.97,0,0,.1-8.01.15-8.85.02-.33,4.79-.27,4.79-.27,2.63-.04,7.65-.1,7.65-.1,0,0-.19,26.51,0,28.31l.17,1.52h-4.02v-.02Zm-19.54.2c-7.07,0-8.83-.06-8.67-.27.1-.15.83-1.06,1.62-2.04,3.44-4.31,5.82-11.9,7.05-22.49.68-6.02.62-11.59-.23-16.4-.79-4.56-3.94-13.25-7.4-20.39l-1.24-2.57.24-2.59c.56-6.02,2.51-13.94,4.69-19.12,1.43-3.38.99-3.11,4.87-3.11,3.19,0,3.31.02,3.6.47,1.24,1.95,3.81,11.7,4.47,17.07.29,2.39.29,9,0,12.34-.56,6.22-1.39,9.97-3.88,17.52-2.15,6.55-2.71,9.06-3.01,13.69-.31,4.74-.12,13.54.33,15.84.81,4.09,2.88,8.34,5.37,10.97l1.02,1.1h-8.85v-.02Zm-7.36-58.16c3.58,8.29,5.64,14.47,6.3,19.08l.13.83-.54-.93c-3.4-5.91-6.3-14.33-7.21-20.94-.21-1.33.08-.94,1.32,1.97Zm-3.17,58.16h-16.66l-1.43-.6c-.79-.33-2.16-.77-3.05-.97-1.86-.44-1.7-.23-3.56-4.54-3.26-7.57-4.4-12.76-5.08-22.93l-.21-3.24,2.55-2.57c1.39-1.41,3.07-3.32,3.73-4.25,4.47-6.31,6.53-14.23,5.14-19.7-.49-1.93-1.7-4.56-3.03-6.53l-.93-1.41,2.01-4.52c1.1-2.49,2.41-5.68,2.9-7.11,1.2-3.48,2.43-9.13,3.13-14.41.54-4,.58-4.89.58-10.84,0-7.2.06-6.89-1.39-6.89-.54,0-.83-.13-.99-.4-.29-.54-.27-.77.1-1.14.4-.39,4.06-.43,7.85-.13,2.61.21,3.01.33,3.01.83s-.31.7-1.56,1.02c-.58.15-1.12.33-1.22.43-.1.1-.31,2.64-.48,5.64-.45,8.55.08,15.68,1.7,22.94.93,4.13,2.34,7.8,5.35,13.74l1.93,3.84.15,2.28c.27,4.15,1.41,8.75,3.69,14.82,1.04,2.8,1.45,3.67,3.42,7.57,1.36,2.69,1.7,3.73,1.97,6.11.56,5.06-1.14,16.3-3.48,23.04-1.31,3.73-2.32,5.45-5.14,8.75l-.99,1.16Zm-25.92-5.93c.72,1.7,1.26,3.15,1.2,3.21-.19.19-3.42-1.6-4.87-2.68-1.6-1.2-1.89-1.64-2.57-4.06-1.18-4.04-1.66-9.58-1.32-14.91.12-1.82.31-3.65.43-4.04s.6-1.22,1.08-1.84l.85-1.12.17,2.26c.08,1.24.29,3.71.47,5.47.6,6.28,2.01,11.71,4.56,17.71Zm2.46,5.99c-1.82.08-8.16.13-14.09.13-9.76-.02-10.67-.04-9.74-.31,4.1-1.18,4.85-1.47,6.21-2.36,2.07-1.37,3.11-2.57,3.42-3.94.77-3.59.83-4.89.85-17.19,0-10.22-.06-12.96-.42-17.42-.24-3.13-.41-7.19-.41-9.95,0-4.33-.27-11.71-.52-14.58l-.1-1.22,6.16.14c3.4.08,6.59.21,7.13.29l.95.15-.91,2.39c-3.96,10.33-6.3,21.03-6.3,28.84v2.03l-1.14,1.27c-1.68,1.86-1.91,2.47-2.19,5.93-.5,5.89.08,13.1,1.39,17.13.89,2.76,1.2,3.15,4.06,5,2.24,1.45,4.15,2.3,6.69,2.96l2.28.6-3.32.13Zm-15.04-31.37c-.25-.4-.83-1.16-1.29-1.68-7.88-8.85-8.99-10.43-10.26-14.29-.91-2.8-1.14-6.84-.56-9.89.44-2.22,1.59-5.62,2.65-7.73.23-.44.63-1.2,1.02-1.47.42-.27,1.33-.37,1.82-.41,3.44-.21,5.35-.21,5.47,0,.29.47.54,5.06.72,13.58.1,5.02.35,10.7.52,12.65.16,1.95.31,4.97.31,6.74v3.21l-.41-.7Zm15.42-34.05l.38.48c.2.27.83,1.37,1.41,2.45.56,1.08,1.24,2.71,1.49,3.63,1.18,4.17.16,9.88-2.78,15.53-1.49,2.89-4.62,6.86-6.63,8.46l-.85.68.13-3.21c.15-3.36.27-4.48,1.08-8.71,1.14-5.95,2.84-11.74,5.3-18.1l.48-1.2Zm156.63,63.47c-1.59-1.52-1.49-2.39-1.7-7.13-.25-6.22-.23-34.11.04-47.18.13-6.32.29-10.84-.02-12.36-.19-.93-1.08-2.39-2.48-2.96-.42-.17-1.43-.58-2.28-.83-2.49-.75-4.46-1.77-4.97-2.57-.72-1.18-.87-3.65-.87-15.66,0-9.97-.19-11.3.1-11.43.81-.35,1.18-.87,1.18-1.86,0-1.95-.77-2.28-5.39-2.3-3.13-.02-4.93.23-5.39.93-.65.97-.33,2.49-.02,2.89.14.16.52.37.85.43.6.13.6.17.52,1.2-.23,2.49-.35,6.14-.52,14.45-.19,9.89-.25,10.27-1.64,11.84-.83.93-1.66,1.39-4.37,2.36-1.24.46-2.11.79-2.92,1.7-.25.29-.69,1.2-.69,1.2l-1.02-1.83c-1.3-2.42-3.35-5.7-4.91-7.78-1.2-1.59-1.43-1.8-2.17-1.95-.46-.08-4.77-.15-9.58-.17-2.17,0-6.36,0-8.58.19-.42.04-1.04.7-1.32.99-4.02,4.08-8.73,11.96-10.84,17.9-3.19,8.96-1.7,14.08-1.47,14.87q.31,1.08-.13.79c-.22-.15-1.53-.74-2.86-1.33-3.73-1.59-4.52-2.2-5.36-4.06-.46-1.02-.48-1.22-.54-8.34-.04-5.22-.13-6.76.08-7.21.06-.1.54-.33.81-.6.4-.39.52-.72.52-1.45,0-2.36-.69-2.76-5.91-2.7-6.24.06-5.72,1.14-5.76,2.8q-.04,1.12,1.82,2.59c.45.35.56.67.74,2.28.31,2.51.1,9.99-.29,11.47-.54,1.99-2.05,3.17-5.93,4.69-3.42,1.34-4.79,2.43-5.28,4.15-.46,1.55-.75,4.5-.89,8.88l-.13,3.9h-6.34c-7.23,0-7.35.02-7.4,1.35-.02.46-.04,5.13-.08,10.37-.06,8.03,0,9.89.27,11.82.54,3.55,1.03,4.92,2.38,6.34l1.12,1.22h-1.2c-1.49,0-2.28-.49-4.04-2.55-1.59-1.85-3.5-5.68-4.22-8.51-.77-2.96-1.06-8.5-.75-14.24.38-7.03.75-8.92,3.34-16.57,2.71-8.07,3.65-13.29,3.85-21.98.08-3.59.04-5.33-.21-7.53-.62-5.25-3.69-17.58-5.2-18.58-.4-.24-2.98-.2-4.58-.2-2.67-.02-2.96.02-3.48.41-2.11,1.66-5.76,13.9-6.65,22.35l-.15,1.33-1.04-1.95c-1.99-3.69-4.31-9.56-5.22-13.17-.87-3.46-1.7-9.73-1.89-14.49-.15-3.59.23-12.9.54-13.27.13-.15.56-.27.99-.38,1.37-.33,1.95-.83,1.91-1.95-.04-.95-.27-1.14-.69-1.41-.74-.48-2.3-.66-6.86-.81-3.38-.1-4.27-.08-4.81.17-.81.37-1.1.89-1.1,1.95s.63,1.86,1.66,2.03l.79.13.15,4.06c.08,2.51.06,4.98-.08,6.45-1.04,10.95-2.74,18.38-5.68,24.86-.6,1.33-1.45,3.28-1.91,4.33l-.81,1.95-2.07-.13c-1.14-.06-4.56-.18-7.6-.27l-5.53-.13-.54-.81c-1.08-1.61-2.86-2.38-7.44-3.19-1.02-.18-3.6-1.93-4.23-2.84-.87-1.29-1.06-3.8-1.2-16.34-.12-10.49-.06-11.16.06-11.82.15-.68,1.14-1.27,1.52-1.57.62-.52,1.08-1.52.15-3.23-.6-1.12-1.52-1.2-7.07-1.2-6.67,0-8.62-.27-9.29,1.89-.58,1.86.29,3.15,1.91,3.38.48.06.93.21,1.04.29.48.47,1.12,14.74.95,21.17-.16,6.51-.72,7.59-4.49,8.94-2.01.7-5.1,2.46-6.39,3.65-.79.71-1.39,1.43-1.76,2.39-1.04,2.55-.68,6.45-.81,8.6-.6,10.16-.04,33.36.35,39.81.17,2.86.35,6.02.43,7.7.15,3.34.19,3.65-.6,5.14-1.06,2.01-2.65,3.57-4.74,4.46-1.33.56-2.09.7-5.56,1.06-2.21.23-6.07.52-8.58.64-2.51.13-4.56.27-4.6.27-.99.06-1.18.4-1.08.74.15.46,1.8.38,2.18.35.79-.04,3.48-.23,5.99-.35,2.51-.13,5.59-.31,6.84-.39,5.24-.44,8.83-2.45,10.63-6.2.64-1.34.93-1.91.74-4.66-.08-1.31-.17-4.21-.35-7.28-.6-9.79-.79-21.73-.56-35.04.21-13.1.23-13.21,1.35-15.12.29-.49.83-1.16,1.18-1.45,1.04-.88,3.28-2.09,5.37-2.93,3.05-1.2,3.98-1.89,4.74-3.46.58-1.18.66-1.61.87-4.42.29-3.98-.13-18.89-.64-22.7-.21-1.54-.83-2.28-1.86-2.28-.67,0-2.05-.65-1.2-2.18.56-.99,2.3-.83,8.27-.83,5.45,0,5.82.08,6.09,1.41.13.56.06.73-.43,1.08-1.02.75-1.52,1.39-1.76,2.26-.17.63-.17,4.07,0,12.88.24,13.54.37,14.86,1.47,16.28.93,1.18,3.46,2.8,4.81,3.11,4.99,1.1,6.07,1.52,6.59,2.51.23.42.17.42-2.63.44-1.57,0-3.75,0-4.66.6-.42.27-.89.99-1.12,1.43-1.2,2.32-2.07,4.65-2.73,7.28-.48,1.89-.69,2.59-.67,5.29.04,3.8.6,6.29,2.43,10.02.79,1.62,2.41,3.71,5.74,7.49,4.68,5.29,4.93,5.64,5.66,8.31.33,1.2.35,2.2.31,8.81-.06,10.27-.44,12.59-2.22,14.16-1.78,1.58-4.27,2.59-9.22,3.78-1.08.27-2.14.62-2.34.79-.41.38-.47.94-.1,1.24.17.15,20.95.13,62.55-.06,34.25-.15,68.86-.29,76.9-.29,3.67,0,11.01.04,14.63,0,0,0,.15-14.52.08-19.35-.08-4.83.08-19.35.08-19.35l.93-1.06c1.18-1.32,2.07-2.98,2.86-5.35,2.14-6.43,1.52-14.06-1.74-21.69-.79-1.83-.68-2.3.15-3.67.49-.81,1.55-1.04,3.27-1.59,3.42-1.1,5.04-2.72,5.6-5.6.15-.71.31-5.17.43-10.37.1-5.02.25-10.6.33-12.38.04-.81.21-2.03.15-3.26,0-.15-.46-.1-.6-.13-1.1-.25-1.14-.29-1.08-.87.04-.38.25-.67.63-.83,1.35-.65,7.29-.48,8,.22.41.42.16,1.1-.52,1.43-.15.06-.54.1-.56.27-.38,4.13-.06,9.87.02,13.17.29,13.08.02,13.17.47,14.35.27.68.74,1.41,1.12,1.74.85.73,2.86,1.64,5.29,2.39,3.13.99,3.17,1.79,3.48,2.66.42,1.2.25,5.77.23,7.71-.29,16.65-.33,41.27-.19,48.58.06,2.78.25,7.18.74,8.63,1.45,4.3,5.31,4.35,8.48,4.54,2.09.13,5.72.19,8.04.17,1.06-.02,2.84-.02,4.24-.06,1.66-.06,1.58-.85,0-1.04-1.99-.23-5.45-.08-7.25-.13-4.1-.15-8.97.33-11.4-1.95"/>
  </g>
  <path class="cls-3" d="m89.24,272.25l6.62-.14,9.41.14c6.05,0,10.42-3.02,10.42-8.73,0-5.37-3.79-8.45-8.4-9.02-.19,0-.29-.1-.29-.29,0-.14.09-.19.29-.19,4.03-.67,7.63-3.89,7.63-8.69s-4.08-8.49-9.79-8.49l-9.27.19-6.62-.19c-.39.24-.48.53-.48.91s.1.72.48.91h3.5c.19,0,.34.15.34.34v31.1c0,.19-.15.33-.34.33h-3.5c-.39.24-.48.58-.48.91,0,.39.1.67.48.91Zm13.72-18.77h-4.27v-14.49c0-.24.15-.39.34-.39h4.08c3.7,0,5.66,2.11,5.66,7.25s-2.4,7.63-5.81,7.63Zm-4.27,16.99v-15.36h4.32c3.65,0,6.53,2.45,6.53,7.73s-2.06,7.63-6.19,7.63h-4.66Z"/>
  <path class="cls-3" d="m120.44,272.25l6.67-.14,17.23.19c.24,0,.39-.15.39-.39l.48-11.85c-.19-.39-.53-.48-.82-.48-.38,0-.72.1-.91.48l-.24,3.55c-.29,4.51-1.87,6.62-6.57,6.77l-5.91.09c-.48,0-.86-.38-.86-.86v-30.63c0-.19.15-.34.34-.34h3.98c.38-.19.48-.53.48-.91s-.1-.67-.48-.91l-7.1.19-6.67-.19c-.39.24-.48.53-.48.91s.1.72.48.91h3.5c.19,0,.34.15.34.34v31.1c0,.19-.15.33-.34.33h-3.5c-.39.24-.48.58-.48.91,0,.39.1.67.48.91Z"/>
  <path class="cls-3" d="m146.56,272.25l4.27-.14,5.42.14c.39-.24.53-.53.53-.91,0-.33-.15-.67-.53-.91h-3.45c-.34,0-.63-.24-.63-.63,0-.14.09-.43.19-.77l3.07-9.31h9.45l2.88,9.27c.15.38.39,1.01.39,1.15s-.15.29-.34.29h-3.84c-.39.24-.53.58-.53.91,0,.39.14.67.53.91l7.01-.14,6.05.14c.33-.24.43-.53.43-.91,0-.33-.1-.67-.43-.91h-2.79c-.24,0-.39-.14-.43-.43l-10.7-32.64c-.19-.57-.58-.86-1.2-.86-.67,0-.96.29-1.2.86l-10.66,32.31c-.09.53-.53.77-.96.77h-2.54c-.39.24-.48.58-.48.91,0,.39.1.67.48.91Zm17.71-14.35h-8.26l4.27-12.91,3.98,12.91Z"/>
  <path class="cls-3" d="m179.39,254.59c0,11.47,6.77,18.33,14.49,18.33,2.83,0,4.94-.81,6.82-1.87.67-.43,1.15-.82,1.78-.82s.77.39.77.96v.86c0,.33.24.57.67.57s.63-.29.72-.53l.38-12.72c-.19-.34-.53-.48-.86-.48s-.67.15-.86.48l-.15,2.4c-.43,5.38-3.79,9.41-8.49,9.41-6,0-8.98-4.46-8.98-16.56s2.88-16.75,8.69-16.75c4.52,0,8.31,3.84,8.69,8.83l.24,2.26c.14.33.48.43.81.43.39,0,.67-.1.86-.43l-.48-11.95c-.1-.29-.34-.53-.72-.53-.48,0-.67.24-.72.57v.82c0,.57-.14.91-.72.91-.53,0-1.1-.34-1.63-.63-1.73-1.06-3.79-1.97-6.77-1.97-7.63,0-14.54,7.15-14.54,18.39Z"/>
  <path class="cls-3" d="m210.06,272.25l6.67-.14,6.48.14c.33-.24.43-.53.43-.91,0-.33-.1-.67-.43-.91h-3.36c-.19,0-.34-.14-.34-.33v-31.1c0-.19.15-.34.34-.34h3.5c.39-.19.48-.53.48-.91s-.1-.67-.48-.91l-6.62.19-6.67-.19c-.39.24-.48.53-.48.91s.1.72.48.91h3.5c.19,0,.34.15.34.34v31.1c0,.19-.15.33-.34.33h-3.5c-.39.24-.48.58-.48.91,0,.39.1.67.48.91Zm18.33,0l5.76-.19,6.53.19c.34-.19.43-.53.43-.91s-.14-.67-.43-.91h-2.64c-.34,0-.58-.19-.72-.39l-13.2-18.96,10.8-11.76c.34-.38.82-.67,1.4-.67h2.35c.39-.19.43-.53.43-.91s-.05-.67-.43-.91l-4.42.19-5.95-.19c-.39.24-.48.53-.48.91s.09.72.48.91h3.41c.24,0,.48.19.48.48,0,.24-.29.53-.63.96l-11.95,13.48v.63l10.36,14.64c.39.48.82,1.06.82,1.25s-.15.33-.39.33h-2.02c-.43.24-.53.58-.53.91s.09.72.53.91Z"/>
  <path class="cls-3" d="m266.22,236.83l-7.15.19-6.1-.19c-.33.24-.48.53-.48.91s.15.72.48.91h2.83c.24,0,.33.15.43.43l10.46,32.73c.19.58.53.86,1.15.86.67,0,1.01-.29,1.2-.86l10.37-32.4c.19-.53.53-.77,1.01-.77h2.59c.34-.19.48-.53.48-.91s-.14-.67-.48-.91l-4.32.19-5.71-.19c-.29.24-.43.53-.43.91s.1.72.43.91h3.7c.39,0,.63.24.63.58,0,.24-.1.53-.19.91l-7.49,23.71-7.34-23.71c-.15-.53-.39-1.01-.39-1.2,0-.15.15-.29.39-.29h3.94c.33-.19.48-.53.48-.91s-.15-.67-.48-.91Z"/>
  <path class="cls-3" d="m285.37,272.25l6.67-.14,18.19.19c.24,0,.39-.15.39-.39l.29-11.04c-.19-.33-.53-.53-.81-.53-.43,0-.72.19-.91.53l-.15,2.93c-.24,4.61-1.63,6.48-6.33,6.58l-7.01.09c-.48,0-.86-.38-.86-.86v-14.5l3.41.15c2.59.15,3.6,1.15,3.65,3.41v1.54c.19.34.53.48.86.48s.67-.14.86-.48l-.19-5.85.19-5.71c-.19-.33-.53-.48-.86-.48s-.67.15-.86.48v1.1c0,2.45-.96,3.46-3.65,3.6l-3.41.15v-14.54c0-.19.15-.34.34-.34l6.33.15c4.51.05,5.81,1.82,6.24,6.33l.19,2.26c.24.29.53.48.86.48.39,0,.67-.19.86-.48l-.43-10.17c0-.24-.15-.39-.34-.39l-16.84.24-6.67-.19c-.39.24-.48.53-.48.91s.1.72.48.91h3.5c.19,0,.34.15.34.34v31.1c0,.19-.15.33-.34.33h-3.5c-.39.24-.48.58-.48.91,0,.39.1.67.48.91Z"/>
  <path class="cls-3" d="m315.71,272.25l6.67-.14,17.23.19c.24,0,.39-.15.39-.39l.48-11.85c-.19-.39-.53-.48-.82-.48-.38,0-.72.1-.91.48l-.24,3.55c-.29,4.51-1.87,6.62-6.57,6.77l-5.91.09c-.48,0-.86-.38-.86-.86v-30.63c0-.19.15-.34.34-.34h3.98c.38-.19.48-.53.48-.91s-.1-.67-.48-.91l-7.1.19-6.67-.19c-.39.24-.48.53-.48.91s.1.72.48.91h3.5c.19,0,.34.15.34.34v31.1c0,.19-.15.33-.34.33h-3.5c-.39.24-.48.58-.48.91,0,.39.1.67.48.91Z"/>
  <path class="cls-3" d="m355.4,236.83l-7.15.19-6.1-.19c-.33.24-.48.53-.48.91s.15.72.48.91h2.83c.24,0,.33.15.43.43l10.46,32.73c.19.58.53.86,1.15.86.67,0,1.01-.29,1.2-.86l10.37-32.4c.19-.53.53-.77,1.01-.77h2.59c.34-.19.48-.53.48-.91s-.14-.67-.48-.91l-4.32.19-5.71-.19c-.29.24-.43.53-.43.91s.1.72.43.91h3.7c.39,0,.63.24.63.58,0,.24-.1.53-.19.91l-7.49,23.71-7.34-23.71c-.15-.53-.39-1.01-.39-1.2,0-.15.15-.29.39-.29h3.94c.33-.19.48-.53.48-.91s-.15-.67-.48-.91Z"/>
  <path class="cls-3" d="m374.56,272.25l6.67-.14,18.19.19c.24,0,.39-.15.39-.39l.29-11.04c-.19-.33-.53-.53-.81-.53-.43,0-.72.19-.91.53l-.15,2.93c-.24,4.61-1.63,6.48-6.33,6.58l-7.01.09c-.48,0-.86-.38-.86-.86v-14.5l3.41.15c2.59.15,3.6,1.15,3.65,3.41v1.54c.19.34.53.48.86.48s.67-.14.86-.48l-.19-5.85.19-5.71c-.19-.33-.53-.48-.86-.48s-.67.15-.86.48v1.1c0,2.45-.96,3.46-3.65,3.6l-3.41.15v-14.54c0-.19.15-.34.34-.34l6.33.15c4.51.05,5.81,1.82,6.24,6.33l.19,2.26c.24.29.53.48.86.48.39,0,.67-.19.86-.48l-.43-10.17c0-.24-.15-.39-.34-.39l-16.84.24-6.67-.19c-.39.24-.48.53-.48.91s.1.72.48.91h3.5c.19,0,.34.15.34.34v31.1c0,.19-.15.33-.34.33h-3.5c-.39.24-.48.58-.48.91,0,.39.1.67.48.91Z"/>
  <path class="cls-3" d="m410.46,272.25l7.2-.14,7.1.14c.34-.19.48-.53.48-.86,0-.39-.14-.72-.48-.92h-3.98c-.19,0-.33-.14-.33-.33v-31.2c0-.19.09-.34.33-.34l3.17.15c3.6.14,4.66,2.4,4.99,5.76l.24,3.21c.19.34.53.48.82.48.38,0,.72-.14.91-.48l-.24-10.56c0-.24-.15-.39-.34-.39l-12.72.24-12.67-.24c-.19,0-.34.14-.34.39l-.24,10.56c.15.34.48.48.86.48.34,0,.63-.14.86-.48l.24-3.21c.29-3.36,1.34-5.62,4.94-5.76l3.17-.15c.24,0,.33.15.33.34v31.2c0,.19-.15.33-.33.33h-3.98c-.39.19-.48.53-.48.92,0,.33.1.67.48.86Z"/>
  <path class="cls-3" d="m203.97,303.95c-.74,0-1.4-.16-1.98-.48-.57-.33-1.02-.78-1.35-1.33-.33-.55-.58-1.17-.75-1.83s-.25-1.38-.25-2.13.09-1.48.27-2.17c.18-.69.44-1.31.79-1.85.34-.55.8-.99,1.35-1.31.55-.32,1.19-.48,1.92-.48.84,0,1.51.17,1.98.5.48.32.89.76,1.21,1.31l-.5.29c-.28-.47-.62-.84-1.02-1.1-.39-.28-.95-.42-1.67-.42-1.2,0-2.11.51-2.75,1.52-.64,1.02-.96,2.24-.96,3.69,0,.95.11,1.8.35,2.56.23.75.64,1.39,1.21,1.9.58.52,1.3.77,2.15.77.69,0,1.28-.16,1.75-.48.48-.33.84-.73,1.08-1.21l.52.21c-.28.58-.7,1.07-1.27,1.46-.56.39-1.25.58-2.08.58Z"/>
  <path class="cls-3" d="m216.27,303.45c-.58.33-1.26.5-2.02.5s-1.44-.17-2.02-.5-1.04-.78-1.38-1.35c-.33-.57-.58-1.19-.75-1.85-.16-.67-.23-1.36-.23-2.08s.07-1.41.23-2.06c.17-.67.42-1.28.75-1.85.33-.57.79-1.02,1.38-1.35.58-.34,1.26-.52,2.02-.52s1.44.18,2.02.52c.58.33,1.04.79,1.38,1.35.33.57.57,1.19.73,1.85.17.66.25,1.34.25,2.06s-.08,1.42-.25,2.08c-.16.67-.4,1.29-.73,1.85-.33.57-.79,1.02-1.38,1.35Zm-2.02-.06c.67,0,1.25-.15,1.75-.46.51-.32.9-.73,1.17-1.25.28-.51.48-1.07.63-1.67.14-.59.21-1.21.21-1.85,0-.69-.07-1.34-.21-1.94-.14-.61-.35-1.17-.63-1.67-.28-.5-.67-.89-1.17-1.17-.5-.29-1.08-.44-1.75-.44s-1.26.16-1.77.46c-.5.31-.89.72-1.17,1.25-.28.52-.49,1.07-.63,1.67-.13.58-.19,1.2-.19,1.83,0,.7.06,1.35.19,1.96.14.6.34,1.15.63,1.65.29.5.69.9,1.19,1.19s1.08.44,1.75.44Z"/>
  <path class="cls-3" d="m221.73,303.76v-11.21h3.52c1.23,0,2.13.32,2.69.96.55.64.83,1.43.83,2.35,0,.39-.07.77-.21,1.15-.13.38-.32.73-.58,1.06-.27.32-.64.58-1.1.77-.47.2-1.02.29-1.63.29h-2.94v4.63h-.58Zm3.52-5.21c1.01,0,1.76-.26,2.23-.79.47-.54.71-1.17.71-1.9,0-.78-.23-1.42-.69-1.94-.45-.53-1.2-.79-2.25-.79h-2.94v5.42h2.94Z"/>
  <path class="cls-3" d="m231.28,303.76v-11.21h5.85v.54h-5.27v4.6h3.56v.52h-3.56v5.02h5.63v.52h-6.21Z"/>
  <path class="cls-3" d="m247.99,303.76h-.56l-5.75-9.29-.5-.81v10.1h-.58v-11.21h.56l5.75,9.31.5.81v-10.13h.58v11.21Z"/>
  <path class="cls-3" d="m258.09,303.76v-5.54h-6.02v5.54h-.58v-11.21h.58v5.1h6.02v-5.1h.58v11.21h-.58Z"/>
  <path class="cls-3" d="m268.95,303.76l-1.1-3.15h-4.67l-1.08,3.15h-.63l3.83-11.21h.42l3.85,11.21h-.63Zm-1.25-3.63l-1.63-4.77s-.06-.19-.15-.44c-.08-.26-.17-.52-.25-.77-.07-.25-.13-.44-.17-.58-.03.14-.08.34-.17.6-.08.25-.18.5-.27.75-.08.25-.13.4-.13.44l-1.63,4.77h4.38Z"/>
  <path class="cls-3" d="m276.33,303.95c-.77,0-1.44-.16-2.02-.48-.57-.33-1.02-.78-1.35-1.33-.33-.55-.58-1.17-.75-1.83s-.25-1.38-.25-2.15.09-1.52.27-2.19c.18-.68.44-1.29.77-1.83.34-.55.8-.98,1.38-1.29.57-.32,1.22-.48,1.96-.48,1.28,0,2.3.52,3.06,1.54l-.52.33c-.61-.86-1.46-1.29-2.54-1.29-.67,0-1.25.16-1.75.46-.5.31-.9.72-1.19,1.25-.28.52-.49,1.07-.63,1.67-.13.58-.19,1.2-.19,1.83,0,.96.13,1.82.38,2.58.25.75.66,1.39,1.23,1.9.58.5,1.3.75,2.15.75.92,0,1.63-.33,2.15-1,.53-.67.79-1.65.79-2.94v-.19h-2.35v-.54h2.96v.54c0,1.6-.32,2.78-.96,3.54-.64.77-1.5,1.15-2.58,1.15Z"/>
  <path class="cls-3" d="m283.25,303.76v-11.21h5.85v.54h-5.27v4.6h3.56v.52h-3.56v5.02h5.63v.52h-6.21Z"/>
  <path class="cls-3" d="m299.96,303.76h-.56l-5.75-9.29-.5-.81v10.1h-.58v-11.21h.56l5.75,9.31.5.81v-10.13h.58v11.21Z"/>
</svg>