<?xml version="1.0" encoding="UTF-8"?><svg id="Layer_2" xmlns="http://www.w3.org/2000/svg" viewBox="0 0 283 303"><defs><style>.cls-1{fill:none;stroke:#34326a;stroke-miterlimit:10;}</style></defs><path class="cls-1" d="m277,285.19h-36.72c-17.21,0-34.69.73-51.93-.24-10.53-.59-21.33-2.62-30.61-7.84-4.56-2.57-8.35-5.46-10.73-10.19-1.95-3.88-2.97-8.18-3.58-12.46-1.68-11.73-.66-24.35-.55-36.16.16-16.61.31-33.22.47-49.83.03-3.34.14-6.94,2.14-9.62,1.48-2,3.79-3.18,6.01-4.3,13.89-7.02,22.14-16.73,26.89-31.66,3.31-10.4,4.99-21.78,1.6-32.15-.49-1.49-1.11-3-2.23-4.1-1.13-1.1-2.65-1.68-4.14-2.18-16.76-5.61-34.92-4.38-52.59-3.79-8.76.29-17.81.47-25.8,4.09,3.81,1.8,8.06,2.44,12.25,2.9,21.22,2.35,42.7.94,63.89-1.7,3.08-.38,6.4-.91,8.55-3.15.47-.5.9-1.2.63-1.84-.2-.48-.71-.73-1.19-.91-1.59-.61-3.29-.86-4.98-1.1-21.14-2.92-42.61-2.39-63.91-.99-4.55.3-9.11.64-13.61,1.36-3.64.58-8.69.32-9.24,5.08-.19,1.66.21,3.32.49,4.97.8,4.65.65,9.42,1.37,14.08,1.38,9.03,5.91,17.27,10.95,24.9,4.75,7.17,10.23,14.18,17.71,18.43,9.16,5.2,20.1,5.57,30.33,4.47,9.46-1.02,16.23-9.31,22.8-15.48,7.84-7.36,12.29-17.71,14.05-28.19,1.9-11.32.93-22.91-.49-34.3-1.31-10.53-2.99-21-5.04-31.41-1.76-8.97-3.8-17.89-6.11-26.74-.53-2.03-.78-5.1-1.85-6.89-1.2-2.01-1.94-1.18-4.37-.63-4.12.92-8.27,1.72-12.45,2.37-16.8,2.64-34.3,3.27-51-.37,10.36-2.2,20.89-3.26,31.47-3.61,5.31-.18,10.63-.2,15.95-.14,2.75.03,5.5.08,8.25.15,1.29.03,10.57.55,11.48,1.34-4.35-3.81-17.71-4.41-23.22-4.78-6.67-.45-13.38-.5-20.06-.15-6.15.32-12.29.99-18.37,1.98-4.33.71-11.57.38-12.86,5.48-4.69,18.56-8.4,37.47-10.19,56.55-1.58,16.83-3.54,34.97,2.62,51.15,5.34,14,16.41,25.09,28.52,33.92,4.6,3.36,9.61,6.69,12.09,11.82,1.82,3.75,2.07,8.05,2.29,12.22.69,13,1.78,26.07,1.59,39.05s-.79,27.05-1.12,40.58c-.13,5.4-.86,10.97-3.64,15.59-2.64,4.39-6.9,7.55-11.31,10.14-1.28.75-2.62,1.48-4.09,1.69s-3.11-.18-4.03-1.35c-4.6-5.8,13.69-10.45,16.78-10.97,7.69-1.3,15.51-1.12,23.28-1.12,9.69,0,19.51,2.3,28.44,5.95,2.34.96,4.84,2.23,5.76,4.59.78,1.99.17,4.33-1.1,6.05s-3.1,2.93-4.98,3.97c-10.9,6.03-23.79,7.17-36.24,7.23-12.18.05-24.65-.88-35.82-5.75-2.38-1.04-4.73-2.28-6.57-4.11-4.59-4.58-3.3-8.9,1.89-11.6,1.62-.84,5.96-2.99,7.2-2.99-5,0-11.04,3.19-15.69,4.76-7.96,2.68-15.64,4.76-23.99,5.9-17.67,2.41-35.56,2.07-53.35,1.87"/></svg>