<?xml version="1.0" encoding="UTF-8"?><svg id="Layer_2" xmlns="http://www.w3.org/2000/svg" viewBox="0 0 489 306.94"><defs><style>.cls-1{fill:none;stroke:#be402d;stroke-miterlimit:10;stroke-width:.75px;}</style></defs><g id="Layer_3"><path class="cls-1" d="m21,292.3s68.45,1.45,85.71,0c23.19-1.95,45.5-9.79,68.78-11.05,6.61-.36,13.26-.16,19.81.86,2.89.45,17.44,1.05,14.61,6.93-1.28,2.66-7.94,3.17-10.87,3.6-10.79,1.61-21.76,1.56-32.66,1.07-5.63-.25-11.53-.71-16.25-3.78-4.91-3.19-7.81-8.82-8.98-14.55-1.17-5.74-.83-11.66-.52-17.5,2.17-41.3,2.25-82.7.23-124-.42-8.58-.84-17.62,3.1-25.26,3.85-7.47,11.42-12.6,14.83-20.29,2.03-4.57,2.41-9.68,2.66-14.68.88-17.41.52-34.88-1.07-52.24-.31-3.33-.62-6.85.84-9.86,3.38-6.92,13.18-6.65,20.77-5.33,2.07.36,4.31.82,5.64,2.44,2.64,3.22-.13,8.58,2.21,12.03,1.55-2.5.4-5.98-1.84-7.88s-5.26-2.58-8.17-2.99c-3.53-.5-7.11-.72-10.68-.65-3.04.06-6.27.4-8.67,2.27s-3.45,5.76-1.39,8c1.55,1.7,4.12,1.85,6.42,1.89,5.55.1,11.11.19,16.66.29,1.66.03,3.45.11,4.73,1.16,1.63,1.35,1.8,3.74,1.84,5.85.29,14.15.58,28.3.87,42.46.08,3.87.17,7.81,1.43,11.46,3.18,9.21,12.93,14.56,17.54,23.15,3.48,6.49,3.71,14.16,3.86,21.52.68,34.43,1.37,68.86,2.05,103.29.05,2.33.04,4.85-1.3,6.76-1.55,2.22-4.44,2.99-7.1,3.53-21.02,4.23-43.03,3.47-63.71-2.2-.93-.26-1.93-.56-2.52-1.32-.62-.79-.66-1.87-.68-2.87-.49-27.65-.96-55.3-1.41-82.95-.02-1.25.02-2.65.9-3.54.89-.89,2.29-.94,3.55-.93,21.45.22,42.9.45,64.35.67,1.16.01,2.42.06,3.29.81,1.07.91,1.17,2.5,1.19,3.9.42,25.38.83,50.76,1.25,76.14.18,11.04.36,22.08.54,33.12.09,5.58.18,11.17.27,16.75.05,2.76.31,5.62.14,8.37s-1.82.76-1.17-.63c0,0,3.63-.73,13.05-.73s18.13.73,23.93,2.18,18.85,7.98,25.38,8.7,30.46,2.18,39.16,2.18c7.26,0,14.54-.29,21.77-.96,6.99-.66,18.16-.69,20.21-9.22.3-1.26.35-2.61-.08-3.83-.92-2.62-3.73-4.02-6.36-4.89-7.7-2.56-16.56-3.57-24.66-3.57-5.43,0-10.87.29-16.29.67-6.34.45-13.09.66-19.22,2.44-3.45,1-6.77,2.67-9.27,5.25-.49.51-.96,1.06-1.26,1.71-1,2.18.3,4.9,2.36,6.11s4.64,1.2,6.99.73c5.74-1.16,9.9-4.98,13.85-9.04,4.04-4.15,7.55-9.25,8.34-15.12,1.45-10.88,1.45-32.63,1.45-37.71s0-30.46-3.63-34.81c-4.37-5.25-10.9-8.2-16.66-11.62s-10.61-8.12-13.37-14.47c-2.69-6.18-3.21-13.08-3.14-19.82.12-12.34,2.09-24.55,4.23-36.67,1.72-9.72,2.87-19.67,5.44-29.21.49-1.83.33-4.19,2.03-5.41.9-.64,2-.92,3.08-1.14,2.03-.43,4.09-.73,6.15-.91,1.91-.16,3.91-.21,5.68.52.86.35,1.66.9,2.18,1.66.81,1.19.85,2.73.7,4.15-2.65,24.7-3.36,49.71-4.89,74.49l-.28,4.53c-.04.65-.13,1.38-.65,1.77-.36.26-.82.28-1.26.3-.96.03-8.04.89-8.1-.81-.32-9.91,1.1-20.19,1.78-30.06,1.09-15.83,2.61-31.69,4.8-47.41.03-.25.07-.5.1-.75.3-2.12.61-4.24,1.22-6.29.09-.32.21-.66.48-.86.24-.17.55-.21.84-.23,12.07-.97,24.2-.86,36.31-.53,1.62.04,3.36.14,4.64,1.13,1.21.95,1.74,2.5,2.19,3.97,5.74,18.6,10.61,38.95,10,58.53,0,0,.84,5.6-31.85,6.42,0,0-39.93.83-42.12-4.25-.36-.84,15.29-4.02,16.71-4.19,6.4-.78,12.85-.88,19.29-.94,7.34-.06,14.69-.07,22.01.56,5,.43,13.41.81,15.24,6.74,0,0,3.63,10.88.73,21.03,0,0-2.18,10.15-12.33,16.68-4.15,2.67-8.49,5.06-12.56,7.86s-5.8,5.42-6.49,10.23c-1.76,12.23-1.31,24.61-1.6,36.92-.23,10.08-1.88,22.03,2.26,31.6.28.64.59,1.27.98,1.86,5.8,8.7,13.05,12.33,13.05,12.33,0,0,15.95,7.98,39.16,7.25s89.2-.73,89.2-.73"/></g></svg>